<?xml version="1.0" encoding="utf-8"?>
<!-- Generator: Adobe Illustrator 22.1.0, SVG Export Plug-In . SVG Version: 6.00 Build 0)  -->
<svg version="1.1" id="Layer_1" xmlns="http://www.w3.org/2000/svg" xmlns:xlink="http://www.w3.org/1999/xlink" x="0px" y="0px"
	 viewBox="0 0 346 286" style="enable-background:new 0 0 346 286;" xml:space="preserve">
<style type="text/css">
	.st0{fill:#00A4E4;}
	.st1{fill:#FFFFFF;}
	.st2{opacity:0.72;fill:#00A4E4;}
	.st3{opacity:0.26;fill:#00A4E4;}
	.st4{opacity:0.18;fill:#00A4E4;}
	.st5{opacity:0.64;fill:#00A4E4;}
	.st6{opacity:0.1;fill:#00A4E4;}
	.st7{opacity:0.58;fill:#00A4E4;}
	.st8{opacity:0.5;fill:#00A4E4;}
	.st9{opacity:0.9;fill:#00A4E4;}
	.st10{opacity:0.42;fill:#00A4E4;}
	.st11{opacity:0.8;fill:#00A4E4;}
	.st12{opacity:0.34;fill:#00A4E4;}
	.st13{fill:url(#SVGID_1_);}
	.st14{fill:none;stroke:#00A4E4;stroke-width:0.1809;stroke-miterlimit:10;}
	.st15{fill:#E6E7E8;}
	.st16{fill:#39B7EA;}
	.st17{fill:#BEE0F6;}
	.st18{fill:#D1E8F8;}
	.st19{fill:#5ABDEC;}
	.st20{fill:#E4F1FB;}
	.st21{fill:#6CC2ED;}
	.st22{fill:#81C9EF;}
	.st23{fill:#00AAE6;}
	.st24{fill:#96D0F1;}
	.st25{fill:#00B1E8;}
	.st26{fill:#AAD7F4;}
	.st27{fill:#FCAF17;}
	.st28{fill:none;stroke:#000000;stroke-width:0.2209;stroke-miterlimit:10;}
</style>
<g>
	<g>
		<path class="st1" d="M166.7,194.8c-23.7,0-46.2-9.1-63.2-25.6c-17.1-16.6-26.9-38.8-27.7-62.6c-0.8-24.3,8-47.5,24.6-65.2
			c16.6-17.7,39.2-27.9,63.5-28.7c1,0,1.9,0,2.9,0c23.7,0,46.2,9.1,63.3,25.6c17.1,16.6,26.9,38.8,27.7,62.6
			c0.8,24.3-8,47.5-24.6,65.2c-16.6,17.7-39.2,27.9-63.5,28.7C168.7,194.8,167.7,194.8,166.7,194.8z"/>
		<g>
			<path style="fill:#EDEDED;" d="M166.9,12.2v1.2c23.6,0,45.9,9,62.8,25.4c17,16.4,26.8,38.5,27.5,62.2
				c0.8,24.1-7.9,47.1-24.5,64.7c-16.5,17.6-38.9,27.7-63.1,28.5c-1,0-1.9,0-2.9,0c-23.6,0-45.9-9-62.8-25.4
				c-17-16.4-26.8-38.5-27.5-62.2c-0.8-24.1,7.9-47.1,24.5-64.7c16.5-17.6,38.9-27.7,63.1-28.5c1,0,1.9,0,2.9,0L166.9,12.2
				 M166.9,12.2c-1,0-1.9,0-2.9,0c-50.6,1.6-90.3,43.9-88.7,94.4c1.5,49.6,42.2,88.8,91.5,88.8c1,0,1.9,0,2.9,0
				c50.6-1.6,90.3-43.9,88.7-94.4C256.8,51.3,216.1,12.2,166.9,12.2L166.9,12.2z"/>
		</g>
	</g>
	<path style="fill:#009CDE;" d="M174.3,51.1c0.2,5.1-3.8,9.3-8.9,9.4c-5.1,0.2-9.3-3.8-9.4-8.9c-0.2-5.1,3.8-9.3,8.9-9.5
		C169.9,42.1,174.2,46,174.3,51.1z"/>
	<path style="fill:#4BB7E9;" d="M114.7,114.6c-5.1,0.2-9.3-3.8-9.5-8.9c-0.2-5.1,3.8-9.3,8.9-9.4c5.1-0.2,9.3,3.8,9.4,8.9
		C123.7,110.2,119.7,114.4,114.7,114.6z"/>
	<path style="fill:#CDE6F9;" d="M219.5,111.3c-5.1,0.2-9.3-3.8-9.4-8.9c-0.2-5.1,3.8-9.3,8.9-9.4c5.1-0.2,9.3,3.8,9.5,8.9
		C228.5,106.9,224.6,111.2,219.5,111.3z"/>
	<path style="fill:#DCEEFB;" d="M216.2,84c-4.3,2.7-10,1.3-12.6-3c-2.7-4.3-1.3-10,3-12.6c4.3-2.7,10-1.3,12.6,3
		C221.8,75.6,220.5,81.3,216.2,84z"/>
	<path style="fill:#6BBFEC;" d="M127,139.2c-4.3,2.7-10,1.4-12.6-3c-2.7-4.3-1.3-10,3-12.6c4.3-2.7,10-1.3,12.6,3
		C132.7,130.9,131.4,136.6,127,139.2z"/>
	<path style="fill:#ECF5FD;" d="M199.7,61.9c-2.4,4.5-7.9,6.1-12.4,3.7c-4.5-2.4-6.1-8-3.7-12.4c2.4-4.5,8-6.1,12.4-3.7
		C200.4,51.9,202.1,57.5,199.7,61.9z"/>
	<path style="fill:#7EC5EE;" d="M150.1,154.4c-2.4,4.5-7.9,6.1-12.4,3.7c-4.5-2.4-6.1-8-3.7-12.4c2.4-4.5,7.9-6.1,12.4-3.7
		C150.8,144.3,152.5,149.9,150.1,154.4z"/>
	<path style="fill:#93CDF1;" d="M177.6,155.9c0.2,5.1-3.8,9.3-8.9,9.4c-5.1,0.2-9.3-3.8-9.4-8.9c-0.2-5.1,3.8-9.3,8.9-9.5
		C173.2,146.9,177.4,150.9,177.6,155.9z"/>
	<path style="fill:#00A5E2;" d="M147,54.4c2.7,4.3,1.3,10-3,12.6c-4.3,2.7-10,1.3-12.6-3c-2.7-4.3-1.3-10,3-12.6
		C138.7,48.8,144.3,50.1,147,54.4z"/>
	<path style="fill:#A8D6F4;" d="M202.2,143.6c2.7,4.3,1.3,9.9-3,12.6c-4.3,2.7-10,1.3-12.6-3c-2.7-4.3-1.4-10,3-12.6
		C193.9,137.9,199.6,139.2,202.2,143.6z"/>
	<path style="fill:#13AFE6;" d="M124.9,70.9c4.5,2.4,6.1,8,3.7,12.4c-2.4,4.5-8,6.1-12.4,3.7c-4.5-2.4-6.1-8-3.7-12.4
		C114.9,70.2,120.5,68.5,124.9,70.9z"/>
	<path style="fill:#BBDEF7;" d="M217.3,120.5c4.5,2.4,6.1,7.9,3.7,12.4c-2.4,4.5-8,6.1-12.4,3.8c-4.5-2.4-6.1-7.9-3.7-12.4
		C207.3,119.8,212.9,118.1,217.3,120.5z"/>
	<path style="fill:#F9B000;" d="M198.8,102.8c0.5,17.7-13.3,32.4-31,33c-17.6,0.6-32.4-13.3-33-31c-0.6-17.7,13.3-32.4,31-33
		C183.5,71.3,198.2,85.1,198.8,102.8z"/>
	<path class="st1" d="M176,103.5c0.2,5.1-3.8,9.3-8.9,9.4c-5.1,0.2-9.3-3.8-9.4-8.9c-0.2-5.1,3.8-9.3,8.9-9.4
		C171.6,94.5,175.8,98.5,176,103.5z"/>
	<path style="fill:#009CDE;" d="M166.9,12.2c49.3,0,90,39.2,91.5,88.8c1.6,50.6-38.1,92.9-88.7,94.4c-1,0-2,0-2.9,0
		c-49.3,0-90-39.2-91.5-88.8c-1.6-50.6,38.2-92.9,88.7-94.4C164.9,12.2,165.9,12.2,166.9,12.2 M166.9,4.6L166.9,4.6
		c-1,0-2.1,0-3.2,0.1c-26.5,0.8-51.1,11.9-69.2,31.2c-18.1,19.3-27.7,44.5-26.8,71c0.8,25.9,11.5,50.2,30.2,68.2
		c18.6,18,43.1,27.9,68.9,27.9c1,0,2.1,0,3.2,0c26.5-0.8,51.1-11.9,69.2-31.2c18.1-19.3,27.7-44.5,26.8-71
		c-0.8-25.9-11.5-50.2-30.2-68.2C217.2,14.5,192.7,4.6,166.9,4.6L166.9,4.6z"/>
</g>
<g>
	<g>
		<path style="fill:#009CDE;" d="M63.5,260.6c-0.1,0-0.2,0.1-0.2,0.1c-1.3,0.5-3.9,0.8-7.8,0.8c-3.9,0-6.4-0.3-7.8-0.8
			c-1.3-0.5-2.2-1.9-2.6-4c-0.4-2.1-0.6-6.1-0.6-12c0-5.9,0.2-9.9,0.6-12c0.4-2.1,1.2-3.4,2.6-4c1.3-0.5,3.9-0.8,7.8-0.8
			c3.9,0,6.5,0.3,7.8,0.8c0.1,0,0.2,0.1,0.2,0.1c0.1-0.9,0.3-1.7,0.5-2.4c0.5-2.4,1.5-4.6,2.7-6.5c-2.9-0.7-6.6-1-11.2-1
			c-6.9,0-11.8,0.7-14.7,2.2c-2.9,1.5-4.8,3.9-5.5,7.2c-0.8,3.3-1.1,8.8-1.1,16.4c0,7.6,0.4,13.1,1.1,16.4c0.8,3.3,2.6,5.7,5.5,7.2
			c2.9,1.5,7.8,2.2,14.7,2.2c4.6,0,8.4-0.3,11.2-1c-1.3-1.9-2.2-4.1-2.7-6.5C63.8,262.3,63.6,261.5,63.5,260.6z"/>
		<path style="fill:#009CDE;" d="M98.6,261.1c-1.5,0.2-3.5,0.4-6.1,0.4l0,0l0,0c-2.5,0-4.5-0.1-6-0.3c-0.2,0-0.4-0.1-0.6-0.1
			c-0.5-0.1-0.9-0.2-1.2-0.4c-1.3-0.5-2.2-1.9-2.6-4c0-0.1,0-0.3-0.1-0.4c-0.3-2.2-0.5-6.1-0.5-11.6c0-5.5,0.2-9.4,0.5-11.6
			c0-0.1,0-0.3,0.1-0.4c0.4-2.1,1.2-3.4,2.6-4c0.3-0.1,0.7-0.3,1.2-0.4c0.2,0,0.4-0.1,0.6-0.1c1.4-0.2,3.4-0.3,6-0.3l0,0l0,0
			c2.6,0,4.6,0.1,6.1,0.4c0.2-1.1,0.4-2.2,0.6-3.1c0.5-2.1,1.2-4,2.2-5.8c-2.5-0.4-5.4-0.5-8.8-0.5c-6.9,0-11.8,0.7-14.7,2.2
			c-0.4,0.2-0.7,0.4-1,0.6c-1.1,0.7-2,1.6-2.7,2.6c-0.8,1.1-1.4,2.5-1.8,4c-0.7,3.1-1.1,8.1-1.1,15c0,0.5,0,0.9,0,1.4
			c0,0.5,0,0.9,0,1.4c0,6.9,0.4,11.9,1.1,15c0.3,1.5,0.9,2.9,1.8,4c0.2,0.2,0.3,0.4,0.5,0.7c0.6,0.7,1.4,1.4,2.2,1.9
			c0.3,0.2,0.7,0.4,1,0.6c2.9,1.5,7.8,2.2,14.7,2.2c3,0,5.6-0.1,7.9-0.4c0.3,0,0.6-0.1,0.9-0.1c-1-1.7-1.7-3.7-2.2-5.8
			C98.9,263.3,98.7,262.3,98.6,261.1z"/>
	</g>
	<polygon style="fill:#009CDE;" points="14.9,219.5 14.8,219.5 7.1,219.5 7.1,228.3 14.8,228.3 14.8,269.9 25.2,269.9 25.2,219.5 	
		"/>
</g>
<g>
	<g>
		<path d="M120.1,219.5h1v19.8h-1V219.5z"/>
		<path d="M135.3,230.2c0-4.3-0.6-4.9-4-4.9c-4.4,0-4.4,2.9-4.4,6.4v7.6h-1v-14.7h0.8l0.1,2.3h0.1c0.4-1.3,1.4-2.5,4.6-2.5
			c4.1,0,4.8,1.6,4.8,5.7v9.2h-1V230.2z"/>
		<path d="M140.2,239.2v-1c2,0.3,3,0.3,4.7,0.3c3,0,3.4-1,3.4-3.1c0-2.7-0.5-2.8-2-2.9l-3.8-0.4c-2.2-0.3-2.8-1.1-2.8-3.6
			c0-3.7,1.8-4.2,5-4.2c1.2,0,2.8,0.1,3.8,0.3v1c-1.3-0.3-2.5-0.4-4.2-0.4c-2.1,0-3.6,0.3-3.6,3.1c0,2.3,0.5,2.6,2,2.8l3.6,0.4
			c2.3,0.3,2.9,0.8,2.9,4c0,3.2-1.4,4.1-4.8,4.1C143.2,239.5,141.3,239.4,140.2,239.2z"/>
		<path d="M153.7,225.5H151v-0.9h2.7v-4.3h1v4.3h3.1v0.9h-3.1v13.8h-1V225.5z"/>
		<path d="M160.5,217.9h1.2v1.8h-1.2V217.9z M160.6,224.6h1v14.7h-1V224.6z"/>
		<path d="M167,225.5h-2.7v-0.9h2.7v-4.3h1v4.3h3.1v0.9H168v13.8h-1V225.5z"/>
		<path d="M183.3,237h-0.1c-0.4,1.3-1.4,2.5-4.6,2.5c-4.1,0-4.8-1.5-4.8-5.7v-9.2h1v9.1c0,4.3,0.6,4.9,4,4.9c4.4,0,4.4-2.9,4.4-6.4
			v-7.6h1v14.7h-0.8L183.3,237z"/>
		<path d="M189.6,225.5h-2.7v-0.9h2.7v-4.3h1v4.3h3.1v0.9h-3.1v13.8h-1V225.5z"/>
		<path d="M195.7,232c0-6.3,0.3-7.6,5.5-7.6c5.2,0,5.5,1.4,5.5,7.6c0,6.3-0.3,7.6-5.5,7.6C196,239.5,195.7,238.2,195.7,232z
			 M205.7,232c0-5.6-0.1-6.7-4.5-6.7c-4.5,0-4.5,1.1-4.5,6.7c0,5.6,0.1,6.6,4.5,6.6C205.7,238.6,205.7,237.6,205.7,232z"/>
		<path d="M215.3,231.9c0-6.2,0.8-7.6,5.2-7.6c2.5,0,3.9,0.6,4.5,2.3h0.1v-8.8h1v21.4h-0.8l-0.1-2.3h-0.1c-0.7,2.2-2.6,2.5-4.6,2.5
			C216.1,239.5,215.3,238.1,215.3,231.9z M224.7,236.4c0.4-1.4,0.4-2.7,0.4-4.9c0-1.4,0-2.7-0.3-3.8c-0.5-1.8-1.8-2.5-4.2-2.5
			c-3.7,0-4.3,0.8-4.3,6.7c0,5.8,0.6,6.7,4.4,6.7C222.9,238.6,224.3,237.9,224.7,236.4z"/>
		<path d="M240.5,232.3h-9.6c0,5.1,0.5,6.3,4.7,6.3c1.4,0,3.2-0.2,4.4-0.4v1c-1,0.2-2.9,0.4-4.5,0.4c-4.9,0-5.6-1.5-5.6-7.6
			c0-5.7,0.2-7.6,5.6-7.6c4.7,0,5,1.7,5,7.6V232.3z M230.9,231.4h8.6v-0.6c0-4.9-0.9-5.5-4-5.5C231.4,225.3,230.9,226.1,230.9,231.4
			z"/>
		<path d="M256.1,239.5c-5.7,0-6.7-1.1-6.7-10.2c0-9,1-10.2,6.7-10.2c1.2,0,2.8,0.1,3.7,0.3v0.9c-1-0.2-2.4-0.3-3.5-0.3
			c-5.3,0-5.9,0.8-5.9,9.2c0,8.4,0.5,9.2,5.9,9.2c1.1,0,2.6-0.1,3.6-0.3v1C258.9,239.4,257.3,239.5,256.1,239.5z"/>
		<path d="M263.2,217.9h1.2v1.8h-1.2V217.9z M263.3,224.6h1v14.7h-1V224.6z"/>
		<path d="M278.7,232.3h-9.6c0,5.1,0.5,6.3,4.7,6.3c1.4,0,3.2-0.2,4.4-0.4v1c-1,0.2-2.9,0.4-4.5,0.4c-4.9,0-5.6-1.5-5.6-7.6
			c0-5.7,0.2-7.6,5.6-7.6c4.7,0,5,1.7,5,7.6V232.3z M269.2,231.4h8.6v-0.6c0-4.9-0.9-5.5-4-5.5C269.6,225.3,269.2,226.1,269.2,231.4
			z"/>
		<path d="M291.9,230.2c0-4.3-0.6-4.9-4-4.9c-4.4,0-4.4,2.9-4.4,6.4v7.6h-1v-14.7h0.8l0.1,2.3h0.1c0.4-1.3,1.4-2.5,4.6-2.5
			c4.1,0,4.8,1.6,4.8,5.7v9.2h-1V230.2z"/>
		<path d="M301.9,239.5c-4.8,0-5.2-2-5.2-7.6c0-6.1,1-7.6,5.1-7.6c1.2,0,2.5,0.1,3.4,0.3v1c-0.9-0.2-2.2-0.3-3.2-0.3
			c-3.6,0-4.2,1.2-4.2,6.6c0,5.6,0.6,6.7,4.3,6.7c1.1,0,2.5-0.2,3.2-0.4v1C304.5,239.4,303.1,239.5,301.9,239.5z"/>
		<path d="M308.4,217.9h1.2v1.8h-1.2V217.9z M308.5,224.6h1v14.7h-1V224.6z"/>
		<path d="M313,235.3c0-3.2,0.9-4.2,4-4.2c0.9,0,3.7,0.1,5.5,0.1V230c0-4.2-0.7-4.7-4.4-4.7c-1.2,0-3.2,0.2-4.2,0.4v-1
			c1-0.2,2.7-0.3,4.5-0.3c4.2,0,5.1,1,5.1,5.4v9.5h-0.8l-0.1-2.3h-0.1c-0.7,2.3-3,2.5-4.8,2.5C314.5,239.5,313,238.8,313,235.3z
			 M321.9,236.9c0.5-1.2,0.6-2.2,0.6-3.6v-1.2h-5.3c-2.6,0-3.2,0.4-3.2,3.3c0,2.7,0.7,3.3,3.7,3.3
			C319.5,238.6,321.2,238.5,321.9,236.9z"/>
		<path d="M327.4,239.2v-1c2,0.3,3,0.3,4.7,0.3c3,0,3.4-1,3.4-3.1c0-2.7-0.5-2.8-2-2.9l-3.7-0.4c-2.2-0.3-2.8-1.1-2.8-3.6
			c0-3.7,1.9-4.2,5-4.2c1.2,0,2.8,0.1,3.8,0.3v1c-1.3-0.3-2.5-0.4-4.2-0.4c-2.1,0-3.6,0.3-3.6,3.1c0,2.3,0.5,2.6,2,2.8l3.6,0.4
			c2.3,0.3,2.9,0.8,2.9,4c0,3.2-1.4,4.1-4.8,4.1C330.3,239.5,328.5,239.4,327.4,239.2z"/>
		<path d="M119.1,264.5c0-6.2,0.8-7.6,5.2-7.6c2.5,0,3.9,0.6,4.5,2.3h0.1v-8.8h1v21.4h-0.8l-0.1-2.3h-0.1c-0.7,2.2-2.6,2.5-4.6,2.5
			C119.9,272.1,119.1,270.7,119.1,264.5z M128.5,269c0.4-1.4,0.4-2.7,0.4-4.9c0-1.4,0-2.7-0.3-3.8c-0.5-1.8-1.8-2.5-4.2-2.5
			c-3.7,0-4.3,0.8-4.3,6.7c0,5.8,0.6,6.7,4.4,6.7C126.7,271.2,128.1,270.5,128.5,269z"/>
		<path d="M144.3,264.9h-9.6c0,5.1,0.5,6.3,4.7,6.3c1.4,0,3.2-0.2,4.4-0.4v1c-1,0.2-2.9,0.4-4.5,0.4c-4.9,0-5.6-1.5-5.6-7.6
			c0-5.7,0.2-7.6,5.6-7.6c4.7,0,5,1.7,5,7.6V264.9z M134.7,263.9h8.6v-0.6c0-4.9-0.9-5.5-4-5.5C135.2,257.8,134.7,258.7,134.7,263.9
			z"/>
		<path d="M153.5,250.4h1v21.4h-1V250.4z"/>
		<path d="M158,267.9c0-3.2,0.9-4.2,4-4.2c0.9,0,3.7,0.1,5.5,0.1v-1.3c0-4.2-0.7-4.7-4.4-4.7c-1.2,0-3.2,0.2-4.2,0.4v-1
			c1-0.2,2.7-0.3,4.5-0.3c4.2,0,5.1,1,5.1,5.4v9.5h-0.8l-0.1-2.3h-0.1c-0.7,2.3-3,2.5-4.8,2.5C159.5,272.1,158,271.4,158,267.9z
			 M166.9,269.4c0.5-1.2,0.6-2.2,0.6-3.6v-1.2h-5.3c-2.6,0-3.2,0.4-3.2,3.3c0,2.7,0.7,3.3,3.7,3.3
			C164.5,271.2,166.2,271.1,166.9,269.4z"/>
		<path d="M184.7,272.1c-5.7,0-6.7-1.1-6.7-10.2c0-9,1-10.2,6.7-10.2c1.2,0,2.8,0.1,3.7,0.3v0.9c-1-0.2-2.4-0.3-3.5-0.3
			c-5.3,0-5.9,0.8-5.9,9.2c0,8.4,0.5,9.2,5.9,9.2c1.1,0,2.6-0.1,3.6-0.3v1C187.4,272,185.9,272.1,184.7,272.1z"/>
		<path d="M191.3,264.5c0-6.3,0.4-7.6,5.5-7.6c5.2,0,5.5,1.4,5.5,7.6c0,6.3-0.3,7.6-5.5,7.6C191.6,272.1,191.3,270.8,191.3,264.5z
			 M201.3,264.5c0-5.6-0.1-6.7-4.5-6.7c-4.5,0-4.5,1.1-4.5,6.7c0,5.6,0.1,6.6,4.5,6.6C201.2,271.2,201.3,270.2,201.3,264.5z"/>
		<path d="M223.2,262.8c0-4.3-0.5-4.9-3.5-4.9c-4,0-4,2.5-4,6.4v7.6h-1v-9.1c0-4.3-0.5-4.9-3.5-4.9c-4,0-4,2.9-4,6.4v7.6h-1v-14.7
			h0.8l0.1,2.3h0.1c0.3-1.3,1.2-2.5,4.2-2.5c2.6,0,3.7,0.7,4.1,2.5h0.1c0.4-1.3,1.3-2.5,4.3-2.5c3.8,0,4.4,1.6,4.4,5.7v9.2h-1V262.8
			z"/>
		<path d="M228.6,257.2h0.8l0.1,2.3h0.1c0.7-2.2,2.6-2.5,4.6-2.5c4.4,0,5.2,1.4,5.2,7.6c0,6.2-0.8,7.6-5.2,7.6
			c-2.5,0-3.9-0.6-4.5-2.3h-0.1v7.7h-1V257.2z M238.4,264.5c0-5.8-0.6-6.7-4.4-6.7c-2.2,0-3.5,0.7-4,2.4c-0.3,1.2-0.3,2.6-0.3,4.3
			c0,1.8,0,3.1,0.3,4c0.6,1.9,1.9,2.6,4.1,2.6C237.8,271.2,238.4,270.3,238.4,264.5z"/>
		<path d="M252.7,269.6h-0.1c-0.4,1.3-1.4,2.5-4.6,2.5c-4.1,0-4.8-1.5-4.8-5.7v-9.2h1v9.1c0,4.3,0.6,4.9,4,4.9
			c4.4,0,4.4-2.9,4.4-6.4v-7.6h1v14.7h-0.8L252.7,269.6z"/>
		<path d="M258.9,258.1h-2.7v-0.9h2.7v-4.3h1v4.3h3.1v0.9H260v13.8h-1V258.1z"/>
		<path d="M264.6,267.9c0-3.2,0.9-4.2,4-4.2c0.9,0,3.7,0.1,5.5,0.1v-1.3c0-4.2-0.7-4.7-4.4-4.7c-1.2,0-3.2,0.2-4.2,0.4v-1
			c1-0.2,2.7-0.3,4.5-0.3c4.2,0,5.1,1,5.1,5.4v9.5h-0.8l-0.1-2.3h-0.1c-0.7,2.3-3,2.5-4.8,2.5C266,272.1,264.6,271.4,264.6,267.9z
			 M273.5,269.4c0.5-1.2,0.6-2.2,0.6-3.6v-1.2h-5.3c-2.6,0-3.2,0.4-3.2,3.3c0,2.7,0.7,3.3,3.7,3.3
			C271,271.2,272.8,271.1,273.5,269.4z"/>
		<path d="M284,272.1c-4.8,0-5.2-2-5.2-7.6c0-6.1,1-7.6,5.1-7.6c1.2,0,2.5,0.1,3.4,0.3v1c-0.9-0.2-2.2-0.3-3.2-0.3
			c-3.6,0-4.2,1.2-4.2,6.6c0,5.6,0.6,6.7,4.3,6.7c1.1,0,2.5-0.2,3.2-0.4v1C286.6,272,285.2,272.1,284,272.1z"/>
		<path d="M290.5,250.4h1.2v1.8h-1.2V250.4z M290.6,257.2h1v14.7h-1V257.2z"/>
		<path d="M295.4,264.5c0-6.3,0.4-7.6,5.5-7.6c5.2,0,5.5,1.4,5.5,7.6c0,6.3-0.4,7.6-5.5,7.6C295.8,272.1,295.4,270.8,295.4,264.5z
			 M305.5,264.5c0-5.6-0.1-6.7-4.5-6.7c-4.5,0-4.5,1.1-4.5,6.7c0,5.6,0.1,6.6,4.5,6.6C305.4,271.2,305.5,270.2,305.5,264.5z
			 M300.2,254.3l2.4-3.8h1.3v0.1l-2.9,3.8h-0.7V254.3z"/>
		<path d="M319.7,262.8c0-4.3-0.6-4.9-4-4.9c-4.4,0-4.4,2.9-4.4,6.4v7.6h-1v-14.7h0.8l0.1,2.3h0.1c0.4-1.3,1.4-2.5,4.6-2.5
			c4.1,0,4.8,1.6,4.8,5.7v9.2h-1V262.8z"/>
	</g>
</g>
</svg>
