<?xml version="1.0" encoding="utf-8"?>
<!-- Generator: Adobe Illustrator 23.0.3, SVG Export Plug-In . SVG Version: 6.00 Build 0)  -->
<svg version="1.1" id="Capa_1" xmlns="http://www.w3.org/2000/svg" xmlns:xlink="http://www.w3.org/1999/xlink" x="0px" y="0px"
	 viewBox="0 0 275.3 88.9" style="enable-background:new 0 0 275.3 88.9;" xml:space="preserve">
<style type="text/css">
	.st0{fill:#3D3D3C;}
	.st1{enable-background:new    ;}
</style>
<title>INTERNA EDUCACION-02</title>
<path class="st0" d="M82.8,47.3C82.8,47.3,82.7,47.3,82.8,47.3c-0.1,0.5-0.1,1-0.1,1.4s-0.1,1-0.2,1.5c-0.1,0.3-0.1,0.7-0.2,1.1
	c-0.2,0.8-0.3,1.6-0.5,2.3c-0.3,1.4-0.7,2.8-1.2,4.2c-0.4,1-0.8,2-1.2,3c-0.4,0.8-0.8,1.6-1.2,2.4c-0.7,1.4-1.6,2.7-2.5,3.9
	c-0.6,0.8-1.3,1.7-1.9,2.5c-0.7,0.9-1.5,1.8-2.4,2.6c-0.8,0.8-1.6,1.5-2.5,2.2c-1.2,1-2.4,1.9-3.7,2.7c-0.8,0.5-1.7,1-2.5,1.5
	c-1.5,0.8-3,1.5-4.5,2.1c-1.7,0.6-3.5,1.2-5.3,1.6c-0.7,0.2-1.5,0.3-2.2,0.4s-1.3,0.2-2,0.3c-0.4,0.1-0.9,0-1.3,0.1
	c-1.6,0.2-3.1,0-4.7,0.1c-0.5,0-1.1-0.1-1.6-0.1c-0.3,0-0.6,0-0.8-0.1l-2-0.3c-1-0.1-2-0.3-3-0.6c-1.4-0.4-2.8-0.8-4.2-1.4
	c-1.3-0.5-2.6-1.1-3.9-1.7c-1.6-0.8-3.2-1.8-4.7-2.9c-0.8-0.6-1.7-1.2-2.5-1.9c-1-0.8-1.9-1.7-2.8-2.6S15.7,69.8,15,69
	c-1.7-2.1-3.2-4.4-4.5-6.8c-0.9-1.8-1.7-3.6-2.3-5.5c-0.5-1.4-0.9-2.9-1.2-4.4c-0.2-0.8-0.3-1.6-0.4-2.4c-0.1-0.5-0.1-1.1-0.2-1.7
	s-0.1-0.9-0.1-1.4c0-0.1,0-0.2,0-0.3c0-1.2,0-2.4,0-3.7c0-0.5,0.1-1,0.1-1.5c0-0.3,0.1-0.5,0.1-0.8c0.1-1.1,0.2-2.2,0.4-3.3
	c0.2-1.1,0.5-2.2,0.8-3.3c0.4-1.4,0.9-2.7,1.4-4c0.5-1.1,1-2.3,1.6-3.4s1.3-2.2,2-3.3c0.7-1.1,1.5-2.1,2.4-3.1
	c1-1.3,2.2-2.4,3.4-3.5c0.6-0.6,1.3-1.1,1.9-1.6c1.1-0.9,2.2-1.7,3.4-2.4c0.8-0.5,1.6-1,2.5-1.5c0.6-0.3,1.2-0.6,1.8-0.9
	c1.6-0.8,3.3-1.5,5-2c1.3-0.4,2.6-0.7,3.9-1c0.8-0.1,1.6-0.3,2.4-0.4c0.6-0.1,1.2-0.1,1.7-0.2l1.2-0.1c0,0,0,0,0.1,0h4.3
	c0.1,0,0.1,0,0.2,0.1c0.3,0,0.5,0,0.8,0c0.6,0.1,1.2,0.1,1.7,0.2s1.2,0.1,1.8,0.2c1.1,0.2,2.2,0.5,3.3,0.8s2,0.6,3,0.9
	c1.7,0.6,3.4,1.4,5,2.3c0.9,0.5,1.8,1,2.7,1.6c1.3,0.8,2.5,1.7,3.6,2.6c0.7,0.6,1.4,1.2,2.1,1.8c0.9,0.8,1.7,1.7,2.5,2.6
	c0.9,1,1.8,2.1,2.6,3.2c1.3,1.8,2.4,3.7,3.3,5.8c0.7,1.6,1.3,3.2,1.9,4.8c0.4,1.2,0.7,2.5,1,3.8c0.1,0.5,0.2,1,0.2,1.5
	s0.1,0.8,0.2,1.2s0.1,0.6,0.1,1s0.1,0.9,0.1,1.3c0,0,0,0.1,0.1,0.1L82.8,47.3z M66,59L66,59L66,59L66,59c-0.2,0.1-0.3,0.2-0.4,0.3
	c-0.4,0.3-0.8,0.6-1.3,0.8c-0.1,0.1-0.3,0.1-0.5,0.1c-0.7,0-1.4-0.3-2-0.7c-0.4-0.2-0.6-0.6-0.7-1.1c0-0.6,0.4-1.1,1-1.2
	c0.3-0.4,0.5-0.9,0.8-1.3c0.5-0.8,1-1.5,1.6-2.2c0.1-0.2,0.2-0.4,0.2-0.6c0-0.1-0.1-0.1-0.1-0.2c-0.1,0.1-0.2,0.2-0.3,0.3
	c-0.4,0.6-0.8,1.1-1.3,1.6c-0.5,0.4-1,0.8-1.6,0.9c-0.3,0.1-0.7,0.1-1,0.1c-0.6,0-1.2,0.1-1.8,0.1c-1.4,0-2.7,0.1-4.1,0
	c-0.6,0-1.1,0-1.7-0.1s-0.9-0.1-1.3-0.1h-0.1l-1-0.1c-0.3,0-0.7,0-1-0.1c-0.7-0.1-1.3-0.2-2-0.3c-0.5-0.1-1.1-0.2-1.6-0.3
	c-0.1,0-0.2,0-0.3,0c-0.2,0.1-0.4,0.2-0.6,0.2c0.2,0.3,0.3,0.5,0.5,0.8c0.1,0.1,0.2,0.3,0.3,0.4c0.4,0.4,0.8,1,1.1,1.5
	c0.4,0.7,0.6,1.5,0.8,2.3c0.2,0.2,0.4,0.3,0.6,0.5c0.4,0.4,0.8,0.9,1.3,1.3c0.2,0.2,0.3,0.3,0.4,0.5c0.1,0.3,0.2,0.5,0.5,0.6
	c0.3,0.2,0.6,0.3,0.9,0.5c0.5,0.2,0.9,0.2,1.4,0.4c0.8,0.2,1.4,0.8,1.7,1.5c0.1,0.4,0.1,0.8-0.1,1.1c-0.3,1.2-0.6,2.3-0.7,3.5
	c0,0.2,0,0.5,0.1,0.7c0.1,0.4,0.2,0.7,0.3,1.1c0.1,0.2,0.1,0.5,0.1,0.7c0,0.3-0.1,0.6-0.2,0.9c0,0,0,0.1,0,0.2
	c3.2-0.9,6.2-2.4,8.8-4.4c-0.3-0.4-0.4-0.9-0.3-1.4c0.1-0.4,0.2-0.8,0.3-1.3c0.1-0.2,0-0.3,0-0.5c-0.2-0.3-0.3-0.5-0.5-0.7
	c-0.4-0.4-0.8-0.6-1.3-0.8c-0.5-0.2-1-0.4-1.4-0.7c-0.2-0.1-0.3-0.2-0.3-0.4v-0.5l-0.3-0.2c-0.5-0.3-1-0.5-1.5-0.7
	c-0.2-0.1-0.4-0.2-0.5-0.4c-0.2-0.4-0.2-0.8-0.2-1.2c0-0.6,0.1-1.2,0.1-1.8V57c0.1,0,0.1,0.1,0.1,0.1c0.1,0.3,0.2,0.7,0.2,1
	c0,0.5,0,1,0,1.5c-0.1,0.5-0.1,1-0.1,1.5c0,0.3,0,0.5,0.2,0.8c0.5-0.2,1.1-0.1,1.5,0.3L58,62.3c-0.4-0.2-0.8-0.5-1.3-0.3
	c0.1,0.2,0.2,0.3,0.4,0.4c0.5,0.1,0.9,0.3,1.3,0.5l0.2,0.1c0-0.3,0-0.6,0-0.8c0-0.5-0.1-1-0.1-1.4c0-0.4,0-0.7,0-1.1
	c0.1-0.5,0-1.1-0.1-1.6c-0.1-0.3-0.1-0.6-0.2-0.9l0,0c0,0,0.1,0,0.1,0.1c0.2,0.4,0.3,0.7,0.4,1.1c0.1,0.5,0.2,1.1,0.3,1.6
	c0,1.2,0.1,2.5,0.1,3.7c0,0.1,0,0.2,0,0.2c0.2,0.2,0.4,0.4,0.7,0.5l0.9,0.3c0.6,0.2,1.1,0.5,1.4,1c0.2,0.2,0.3,0.5,0.5,0.7
	c0.1-0.3,0.2-0.5,0.3-0.8c0.6-1.2,1.2-2.4,1.7-3.7c0.3-0.5,0.5-1,0.7-1.5S65.8,59.5,66,59L66,59z M13.3,53.4v0.1l0,0V53.4
	c-0.1-0.1-0.1-0.2-0.1-0.4s0-0.2,0-0.3c0-0.3,0.2-0.5,0.5-0.6l-1-0.4C12.8,52.3,13,52.9,13.3,53.4L13.3,53.4z M11.7,53.3L11.7,53.3
	L11.1,54c-0.1,0.6,0,1.2,0.5,1.6c0-0.1,0.1-0.1,0.1-0.2c0.2-0.5,0.4-0.9,0.8-1.2c0-0.1,0.1-0.1,0.2,0c0,0,0,0,0,0
	c-0.1,0.3-0.2,0.5-0.3,0.7l-0.3,0.4c-0.2,0.2-0.2,0.4-0.1,0.7l0.4,0.3c0.1-0.4,0.3-0.8,0.4-1.2c0.1-0.4,0.4-0.8,0.6-1.1
	c-0.6-0.7-1-1.5-1.1-2.4l-1.1-0.2c-0.1,0.1-0.1,0.2-0.1,0.4C11,52.4,11,53,11,53.7C11.3,53.5,11.4,53.3,11.7,53.3L11.7,53.3z
	 M41.3,31.3c0.8-0.2,1.5-0.7,2-1.3c0.3-0.3,0.6-0.7,0.9-1c0.5-0.5,1-0.9,1.5-1.4c0.5-0.5,1.1-0.9,1.8-1.3l0.2-0.1
	c-0.1-0.1-0.3-0.2-0.4-0.2c-0.4,0-0.8,0.1-1.2,0.1s-0.9,0-1.3,0c-0.2,0-0.5,0-0.7,0.1c-0.3,0.1-0.6,0.3-0.7,0.5
	c-0.6,1.3-1.2,2.6-1.8,3.9C41.5,30.9,41.4,31.1,41.3,31.3L41.3,31.3L41.3,31.3z M72.4,34.2c-0.4-0.1-0.9,0-1.3,0.1
	c-0.5,0.7-0.8,1.5-1,2.3c0,0.1,0,0.2,0.1,0.2c0,0.3,0.2,0.5,0.5,0.7c0.2,0.2,0.5,0.2,0.8,0.2l0.2,0.1l0,0h-0.2
	c-0.1-0.2-0.2-0.4-0.4-0.6l-0.3,0.2L70.5,37c0.2-0.3,0.4-0.3,0.7-0.4c0.2,0,0.4,0.1,0.6,0.2c0.6,0.3,1,0.7,1.5,1.2
	c0.3,0.3,0.5,0.6,0.8,1l0,0l0,0c-0.1-0.3-0.2-0.6-0.4-0.9c-0.5-0.7-1-1.3-1.7-1.8c0,0,0,0-0.1-0.1c1.3,0.5,2.3,1.7,2.6,3
	c0.1-0.1,0.1-0.3,0.1-0.4c0-0.2-0.1-0.4-0.1-0.6c-0.4-1.8-0.9-3.5-1.6-5.2l-0.2-0.2c-0.3-0.3-0.8-0.5-1.3-0.6
	c-0.4,0-0.7,0.3-0.7,0.6c0,0.2,0.1,0.4,0.2,0.5h0.4c0.2-0.2,0.3-0.5,0.7-0.4c0.1,0.1,0.2,0.2,0.3,0.3h-0.5l-0.3,0.3l-0.4,0.2
	l0.1,0.2h1L72.4,34.2L72.4,34.2z M64.7,40.3L64.2,40c0.2,1,0.4,2.1,0.4,3.2c0,0.3,0,0.6,0.1,0.8c0,0.4,0.1,0.8,0.1,1.1s0,0.6,0.1,1
	s0.1,0.7,0.1,1.1c0,0.6,0.1,1.3,0.1,1.9v0.1c0,0.5,0.1,1,0.1,1.5c0,0.8,0,1.5,0,2.3c0,0.2,0,0.5-0.1,0.7c0,0.1-0.1,0.1-0.2,0.1
	c-0.3,0.2-0.6,0.5-0.8,0.8l-1.5,2.2c-0.2,0.2-0.3,0.5-0.5,0.7c-0.1,0.2-0.1,0.5,0.1,0.6c0.1,0,0.1,0,0.2-0.1
	c0.6-0.4,1.1-0.9,1.4-1.5c0.1-0.2,0.2-0.4,0.3-0.6c0.2-0.1,0.4-0.2,0.6-0.3c0.4-0.3,0.8-0.5,1.2-0.8c0.5-0.3,0.9-0.8,1.2-1.3
	c0.3-0.6,0.5-1.2,0.7-1.9c0.2-0.8,0.4-1.7,0.5-2.6c0.1-0.5,0.1-1,0.2-1.5s0.1-1.2,0.1-1.7s0-1.2,0-1.8c0-0.8-0.1-1.6-0.2-2.4
	c-0.2-0.8-0.3-1.7-0.5-2.5c-0.3-1.2-0.6-2.4-1.1-3.5c-0.2-0.4-0.3-0.8-0.6-1.2c-1.5,0.5-3.2,0.6-4.8,0.4c0.3,1,0.8,2,1.4,2.9
	c0.5,0.7,1,1.4,1.6,2C64.6,40.1,64.6,40.2,64.7,40.3L64.7,40.3z M38.6,45.4l-1.5-1.3c-0.5,0-0.9,0.1-1.3,0.4
	c0.2,0.1,0.3,0.2,0.5,0.2c0.4,0.1,0.7,0.2,1,0.5l1.3,0.8l0,0c-0.3-0.1-0.6-0.3-0.9-0.4c-0.7-0.4-1.4-0.7-2.2-1
	c-0.2,0.2-0.4,0.4-0.5,0.7c-0.1,0.3-0.3,0.5-0.5,0.7c-0.2,0.2-0.5,0.5-0.7,0.7c-0.2,0.1-0.2,0.3-0.2,0.5c0.2,0,0.4,0,0.6-0.1
	C34.6,47,35,47,35.4,47c1.1,0,2.3,0,3.4,0H39c0,0.1,0.1,0.2,0.1,0.2c0.1,0.3,0.5,0.6,0.8,0.5c0.1,0,0.3,0,0.5,0l3.8,3.9l1.4,0.1
	c0.8,0,1.6,0,2.3,0.1c1.1,0.1,2.2,0.1,3.3,0.1s2,0,2.9-0.1h0.2c0.2,0,0.3-0.1,0.5-0.3s-0.1-0.3-0.1-0.5c-0.2-0.5-0.4-0.9-0.8-1.3
	c-0.7-0.8-1.3-1.6-2-2.5c-0.2-0.2-0.3-0.4-0.5-0.5c-1.1-0.8-2.3-1.4-3.6-1.6c-0.6-0.1-1.1-0.2-1.7-0.2c-0.6,0-1.1-0.1-1.7-0.1h-3
	c-0.4,0-0.7,0.2-1,0.4l-0.2,0.2c0-0.4,0.3-0.8,0.7-0.9c0.2-0.1,0.4-0.1,0.7-0.1c1.2,0,2.4,0,3.6,0.1c0.7,0,1.3,0.1,2,0.2l0.8,0.1
	c-0.2-0.5-0.5-1-0.8-1.5c-0.2-0.2-0.4-0.4-0.7-0.4l-2-0.2h-0.2c-0.3,0-0.7-0.1-1-0.1L42,42.6l-0.7-0.1l-1.1-0.1l-1-0.1l-0.8-0.1
	l-0.6-0.1c0.1,0.1,0.1,0.2,0.2,0.3c0.4,0.6,0.9,1.1,1.3,1.7c0.3,0.4,0.5,0.8,0.8,1.2c0.1,0.3,0.1,0.6,0,0.9
	c-0.1,0.2-0.1,0.4-0.1,0.5c0.1,0.2,0.4,0.3,0.4,0.5L40,47.5L39.7,47c-0.1-0.2-0.2-0.4-0.1-0.6c0.1-0.2,0.1-0.3,0.2-0.5
	c-0.3-1.1-1-2-1.8-2.7h-1.3l0.3,0.3c0.4,0.4,0.8,0.7,1.1,1.1C38.3,44.8,38.5,45.1,38.6,45.4L38.6,45.4z M45.7,63.2L45.7,63.2
	c0.1-0.3,0.3-0.5,0.4-0.8c0.3-0.6,0.4-1.3,0.5-2c0.1-0.5,0.1-1.1,0-1.6c-0.1-0.6-0.4-1.2-0.9-1.7c0.2,0.6,0.3,1.3,0.3,2
	c0,0.3-0.1,0.5-0.1,0.8c-0.4,1.3-1.8,2-3.1,1.7l0.3-0.1c0.3-0.1,0.5-0.1,0.8-0.2c0.7-0.3,1.3-0.8,1.6-1.5c0.2-0.7,0.3-1.4,0.1-2.1
	c-0.2-0.9-0.6-1.7-1.2-2.3c-0.2-0.2-0.4-0.4-0.6-0.5c-0.3,0.1-0.6,0.1-0.9,0c-0.5-0.2-1.1-0.2-1.7-0.2c-0.4,0-0.8,0.1-1.1,0.1
	c-0.8,0.1-1.6,0-2.4-0.2c-0.3-0.1-0.6-0.2-0.8-0.3l0,0l1.6,0.1h0.1c0.6,0.1,1.2,0,1.8-0.1c0.3-0.1,0.6-0.2,0.9-0.1
	c0.3,0,0.6,0.1,0.9,0.1c0.3,0,0.7,0.1,1,0.2l0.1,0.1l0,0H43c-0.1,0-0.1-0.1-0.2-0.1c-0.4-0.2-0.9-0.4-1.3-0.5l-1.3-0.6
	c-0.2-0.1-0.3-0.2-0.3-0.4c0-0.2,0.2-0.4,0.5-0.3c0,0,0,0,0,0c0.2,0,0.4,0.1,0.6,0.2c0.2,0.1,0.4,0.2,0.6,0.3l0,0l0,0
	c-0.1-0.2-0.2-0.4-0.4-0.6s-0.1-0.2,0-0.3c0.1,0,0.2,0.1,0.3,0.2c0.3,0.4,0.7,0.9,1.1,1.2c0.6,0.5,1.3,1,2.1,1.3
	c0.1-0.1,0-0.2-0.1-0.3c-0.4-0.4-0.8-0.8-1.2-1.2c-0.4-0.5-0.7-0.9-1.1-1.3l-1.3-1.6L40.6,50l0,0c0.4,0.3,0.8,0.7,1.2,1
	s0.5,0.6,0.7,0.8l1.3,1.4c0.1,0.1,0.3,0.3,0.4,0.4c0.5,0.6,1.3,1.1,2.1,1.2c0.5,0.1,1.1,0.2,1.7,0.2s1.2,0.1,1.7,0.2l1.7,0.1h0.2
	c0.5,0,1.1,0.1,1.6,0.1c1.4,0,2.8,0,4.2,0c0.1,0,0.2,0,0.4,0c0.5-0.1,1-0.4,1.5-0.8c0.4-0.4,0.8-0.8,1.1-1.2c0.4-0.6,0.6-1.3,0.5-2
	c0-0.4-0.2-0.8-0.5-1.1c-0.2-0.2-0.5-0.4-0.7-0.7c-0.6-0.6-1.3-1.1-2.2-1.4c-0.4-0.2-0.9-0.4-1.3-0.7c-0.3-0.2-0.7-0.3-1-0.5
	c-0.7-0.2-1.4-0.4-2.2-0.5c-0.4-0.1-0.8,0-1.1,0.2c0.3,0.3,0.5,0.5,0.8,0.8c0.1,0.1,0.2,0.2,0.4,0.2c0.9,0.4,1.7,1.1,2.1,2.1
	c0,0,0,0.1,0,0.2l-1.2-1.3c-0.1-0.1-0.2-0.1-0.3-0.2l0,0l0,0c0.6,0.6,1.1,1.3,1.5,2.1c0.1,0.2,0.2,0.5,0.3,0.7
	c0.1,0.3,0.1,0.5-0.1,0.8c-0.5,0.2-1,0.3-1.5,0.3c-0.7,0.1-1.4,0.1-2.1,0.1c-1.2,0-2.3,0-3.5-0.1h-0.5l-1.7-0.1L44.1,52l-3.8-3.9
	h-0.6c-0.2,0-0.5-0.1-0.6-0.3c-0.1-0.1-0.2-0.2-0.2-0.3c-0.5,0.1-0.9,0.3-1.3,0.4c-0.5,0.2-1.1,0.4-1.5,0.8c-0.4,0.2-0.7,0.5-1,0.8
	c-0.6,0.7-0.8,1.7-0.6,2.7c0.2,0.9,0.5,1.7,1,2.5c0.4,0.7,0.8,1.3,1.2,2c0.6,0.9,1.2,1.8,1.9,2.7c0,0.1,0.1,0.1,0.1,0.2l0,0
	c-0.1,0-0.1-0.1-0.2-0.1c-0.6-0.6-1.2-1.2-1.7-1.9c-0.3-0.3-0.5-0.6-0.7-0.9c-0.7-1-1.3-2-1.8-3.2c-0.2-0.6-0.4-1.2-0.4-1.8
	c-0.1-1,0.3-1.9,1-2.6c0.7-0.7,1.6-1.3,2.5-1.6l-2.5,0.1c-0.1,0-0.2,0.1-0.3,0.2c-0.5,0.3-1,0.7-1.4,1.1c-0.5,0.5-0.9,1.1-1.2,1.8
	c-0.2,0.4-0.3,0.9-0.3,1.3c0,1,0.1,1.9,0.3,2.9c0.1,0.5,0.2,1,0.3,1.5s0.2,1.1,0.2,1.7s0.1,1,0.1,1.5c0,0.7-0.1,1.3-0.1,2
	c0,1.1,0,2.2,0.1,3.2c0,0.2,0.1,0.4,0.2,0.6c0.7,0.1,1.3,0.3,1.8,0.7c0,0.6,0,0.6,0.4,0.9h0.3c0.3,0,0.6-0.1,0.9-0.1
	c0.2,0,0.4,0,0.5,0c0.5,0.1,0.9,0.1,1.4,0.2c0.5,0.1,0.9,0.2,1.4,0.2c0.5,0,1,0,1.4,0c0,0,0.1,0,0.1,0l-0.1,0.3l0.3,0.2
	c0.2-0.2,0.3-0.4,0.5-0.6s0.4-0.6,0.7-0.9c0.1-0.1,0.2-0.2,0.4-0.3c0.1,0.1,0.1,0.2,0.1,0.3c0,0.3,0.1,0.7,0.3,0.9
	c0.1,0.1,0.1,0.2,0.1,0.3c-0.1,0.4-0.2,0.7-0.5,1c-0.3,0.3-0.5,0.6-0.6,1c0,0.1-0.1,0.3-0.2,0.4c-0.2,0.3-0.3,0.7-0.4,1.1
	c-0.3,0.5-0.7,0.9-1,1.3c-0.2,0.3-0.3,0.6-0.4,0.9c-0.1,0.2,0,0.4,0.1,0.5c0,0,0,0,0,0c0.2,0,0.4,0,0.6-0.2c0.6-0.4,1.1-0.9,1.6-1.5
	l0,0l0,0c-0.5,0.1-0.9,0.4-1.3,0.7c-0.1,0.1-0.3,0.3-0.5,0.3c-0.1,0-0.2-0.1-0.2-0.2c0,0,0,0,0-0.1c0.2-0.3,0.4-0.5,0.7-0.6
	c0.7-0.3,1.3-0.6,2-0.8c0.8-0.3,1.7-0.6,2.6-0.7c0.6-0.1,1.1-0.2,1.7-0.2c0.1,0,0.2,0,0.3,0v0.1c-0.8,0.2-1.6,0.3-2.4,0.5
	c-0.8,0.2-1.6,0.4-2.3,0.7c-0.6,0.9-1.4,1.7-2.4,2.3c-0.9,0.6-2,1-3.1,1.2v0.5c0.2,0.3,0.5,0.4,0.8,0.3c0.1-0.1,0.2-0.2,0.3-0.2
	l0.8-0.4l0,0c-0.1,0.1-0.2,0.2-0.3,0.2l-0.6,0.5v0.3c0.1,0,0.2,0,0.3,0c0.3-0.1,0.5-0.1,0.7-0.2c0.3-0.1,0.6-0.2,0.8-0.4l0,0
	c-0.5,0.5-1.1,0.8-1.7,0.9c-0.1,0-0.2-0.1-0.3-0.2c-0.1-0.1-0.2-0.2-0.2-0.3c-0.5,0.2-1.1-0.1-1.3-0.6c0,0,0-0.1,0-0.1
	c0-0.1-0.1-0.2-0.1-0.3c-0.2,0-0.4-0.1-0.6-0.1c-1.7-0.4-3.4-1-5-1.8c-1.6-0.7-3.1-1.6-4.5-2.5c-1.5-0.9-2.9-2-4.2-3.2
	c-1.2-1.1-2.3-2.2-3.3-3.5c-1-1.2-1.8-2.4-2.6-3.8l-0.6-1l-0.2,0.1c-0.5,0.3-0.9,0.5-1.5,0.7c-1,0.3-2,0.4-3,0.1
	c-0.8-0.2-1.6-0.6-2.3-1.2l-0.4-0.3l0,0l0,0v0.1c0.3,0.7,0.6,1.3,0.9,2c0.7,1.5,1.5,2.9,2.3,4.2c0.6,1,1.3,1.9,2,2.8
	c0.5,0.7,1.1,1.4,1.7,2c0.6,0.6,1.1,1.2,1.7,1.8s1.3,1.3,2,1.8s1.5,1.2,2.2,1.7c1.1,0.8,2.3,1.6,3.5,2.3c1.2,0.7,2.3,1.3,3.5,1.8
	c1.1,0.5,2.1,0.9,3.2,1.3c2.5,0.8,5.1,1.4,7.7,1.7l0.9,0.1c0.6,0,1.2,0.1,1.7,0.1c0.3,0,0.5,0,0.8,0c1.3,0,2.5,0,3.8-0.1h0.2
	l1.2-0.1c0.3,0,0.6-0.1,0.9-0.1c0.5-0.1,1-0.2,1.6-0.3c0.9-0.1,1.7-0.3,2.6-0.6c0.5-0.1,1-0.3,1.5-0.4c1.4-0.4,2.8-0.9,4.2-1.5
	c0.9-0.4,1.8-0.8,2.7-1.3s1.7-1,2.6-1.5c0.8-0.5,1.9-1.3,2.8-2c1-0.7,1.9-1.5,2.8-2.4c0.7-0.7,1.5-1.5,2.2-2.2s1.2-1.4,1.8-2.1
	c1-1.3,1.9-2.6,2.7-4c0.8-1.4,1.6-2.9,2.2-4.4c0.1-0.3,0.2-0.6,0.3-0.9c-0.4,0.2-0.8,0.2-1.2,0.2c-0.4,0-0.8,0-1.3-0.2l0.1-0.3
	l1.2,0.1c0.3-0.3,0.5-0.6,0.5-1C78.7,56.9,78.3,57,78,57c-0.2,0.1-0.4,0.3-0.6,0.5c-0.2,0.3-0.4,0.5-0.5,0.8
	c-0.1,0.1-0.2,0.2-0.3,0.2c0-0.1,0-0.2,0-0.3c0.1-0.3,0.2-0.5,0.4-0.7c0.3-0.4,0.6-0.8,0.8-1.2c0.1-0.2,0.2-0.4,0.4-0.6
	c0.6-0.8,1.1-1.6,1.4-2.5c0,0,0,0,0-0.1h-0.1c-0.2,0.2-0.1,0.5-0.3,0.6h-0.1c0,0,0,0-0.1-0.1c0.1-0.4,0.3-0.8,0.5-1.1
	c0.3-0.5,0.6-0.9,0.8-1.4c0.1-0.1,0.1-0.2,0.2-0.2l0.1,0.1c-0.1,0.4-0.3,0.8-0.4,1.2c-0.2,0.9-0.7,1.8-1.2,2.5c-0.4,0.6-0.8,1.3-1,2
	c0,0,0,0,0,0.1c0.1-0.1,0.2-0.3,0.4-0.3l0,0l-0.2,0.3l0.2,0.1c0.2-0.2,0.4-0.4,0.6-0.7c0.1-0.1,0.2-0.3,0.3-0.5
	c0.5-0.8,0.9-1.7,1.1-2.7c0.1-0.4,0.2-0.9,0.3-1.3c0-0.5,0-1,0-1.5c0-0.1,0-0.1,0-0.2c-0.5,0.1-1,0.4-1.3,0.8
	c-0.3,0.4-0.5,0.8-0.7,1.2c-0.7,1.4-1.4,2.8-2,4.3c-0.1,0.3-0.2,0.6-0.2,0.8l-0.4,1.2c-0.1-0.1-0.2-0.3-0.3-0.4
	c-0.2-0.4-0.1-0.8,0.1-1.1c0.1-0.2,0.2-0.4,0.2-0.6c0.3-0.9,0.6-1.7,0.9-2.6c0.1-0.5,0.2-1,0.1-1.4c-0.1-0.3-0.1-0.7-0.1-1H77
	c-0.6,0.4-1.2,0.9-1.8,1.5c-0.1,0.1-0.1,0.2-0.3,0.2l0.3-0.7c-0.1,0.1-0.2,0.1-0.3,0.2c-0.1,0.1-0.1,0.1-0.2,0.2
	c-1.4,5.2-4.1,10-7.9,13.9c-3.8,3.9-8.5,6.7-13.7,8.3L51.8,76l0.3,0.1c0.4,0.2,0.6,0.6,0.5,1c0,0.2,0,0.5-0.1,0.7
	c0,0.1-0.1,0.2-0.1,0.3c0.3,0.1,0.6,0.2,0.8,0.5c0.2,0.3,0.3,0.7,0.3,1.1c0,0.5-0.3,0.9-0.8,1.1c-0.7,0.2-1.4,0.4-2.2,0.5
	c-0.1,0-0.3,0-0.3-0.2c0-0.1,0-0.3,0-0.4s0-0.2,0-0.4s0-0.5-0.1-0.7c-0.1-0.7-0.2-1.3-0.3-2c0-0.3-0.1-0.6-0.3-0.8
	c-0.1-0.1-0.1-0.3-0.1-0.5c0.1-0.1,0.3-0.1,0.3-0.3l-0.3-0.4c-0.3,0.1-0.6,0.1-0.8-0.1L46.3,76c-0.3,0.3-0.7,0.5-1.1,0.7
	c-0.4,0.2-0.8,0.3-1.2,0.3h0.1c0.2,0,0.5,0,0.7,0c0.2,0,0.4,0,0.6,0.1c0.5,0.1,0.8,0.5,0.8,1c0,0.5-0.2,1-0.6,1.3
	c0.2,0.3,0.4,0.7,0.6,1c0.2,0.4,0.5,0.6,0.9,0.7c0.1,0,0.2,0,0.3,0.2c-0.1,0.2-0.2,0.3-0.4,0.3c-0.4,0.1-0.8,0-1.1-0.3
	c-0.3-0.3-0.5-0.6-0.7-1c-0.1-0.2-0.2-0.5-0.4-0.6h-0.3v1.9l-0.3,0.2l-0.9-0.1c-0.2-0.3,0-0.4,0-0.5c0-0.9,0.1-1.7,0.1-2.6
	c0-0.2,0-0.3,0-0.5s0-0.5,0-0.8c-0.2,0-0.4,0.1-0.7,0.1c-0.2,0-0.4-0.2-0.4-0.4c-0.5,0.2-0.9,0.3-1.3-0.2h-0.4
	c-0.1-0.1-0.3-0.2-0.2-0.4c0.4,0.3,0.5,0.3,0.9,0.1l0.4-0.2l0.5-0.3l0,0l-0.4,0.3c-0.1,0.1-0.2,0.1-0.3,0.2c0,0.1-0.1,0.2-0.1,0.2
	l0.3,0.1c0.5-0.1,0.9-0.4,1.3-0.6c-0.2,0.3-0.5,0.4-0.4,0.7c0.4,0.1,0.4,0.1,0.7-0.1c0.3-0.2,0.7-0.3,1.1-0.4
	c0.4-0.1,0.9-0.2,1.2-0.5c0.8-0.6,1.7-1,2.5-1.5c0.3-0.2,0.7-0.4,1-0.6c0.4-0.3,0.7-0.8,0.7-1.3c0.1-0.5,0-1-0.2-1.4
	c-0.3-0.4-0.5-0.9-0.7-1.3c-0.2-0.6-0.4-1.2-0.5-1.8c-0.2-0.7-0.3-1.4-0.4-2c-0.1-0.4-0.1-0.8-0.2-1.2l0.3-0.6
	c0.2-0.3,0.3-0.6,0.5-0.9c0.2-0.3,0.2-0.6,0.2-0.9c-0.2-0.2-0.3-0.3-0.4-0.5s-0.3-0.3-0.5-0.5c-0.2-0.2-0.3-0.3-0.5-0.5
	c-0.1,0.9-0.1,1.9,0,2.8c-0.1-0.1-0.1-0.2-0.1-0.2c-0.1-0.3-0.1-0.6-0.2-0.9C47,62,47,61.4,47,60.7v-0.4c-0.1,0.5-0.2,0.9-0.4,1.4
	C46.5,62.3,46.1,62.8,45.7,63.2z M64,57.3h0.1c0.6-0.4,1.3-0.7,2-0.9c0.3-0.1,0.7-0.2,1.1-0.2c-0.3,0.2-0.6,0.4-0.9,0.4l-0.4,0.1
	c-0.7,0.1-1.3,0.4-1.8,0.8c-0.2,0.2-0.5,0.4-0.9,0.5c0,0,0,0,0,0.1c0.1,0.1,0.3,0.1,0.4,0c0.3-0.1,0.5-0.3,0.8-0.4
	c0.3-0.2,0.7-0.4,1.1-0.6c0.4-0.1,0.8,0,1.1,0.2c0.1,0.1,0.2,0.1,0.3,0.2l0.8-0.3c0-0.3,0-0.5,0.2-0.7c0.3-0.2,0.5-0.5,0.5-0.9
	c0-0.1,0.1-0.2,0.3-0.2c0,0.1,0,0.2,0,0.3c-0.2,0.3-0.4,0.6-0.6,1c0,0.4-0.1,0.8-0.3,1.2c-0.4,1.1-0.8,2.2-1.3,3.3
	c-0.7,1.6-1.5,3.2-2.5,4.7c-0.6,0.9-0.9,1.8-1.1,2.8c0,0.1-0.1,0.2-0.1,0.2L62.6,69c0-0.2,0-0.3,0.1-0.5c0.2-1.1,0.7-2.2,1.3-3.2
	c0.6-1,1.1-2,1.6-3c0.6-1.4,1.2-2.8,1.8-4.2c0.1-0.2,0.1-0.3,0.2-0.5l-0.6,0.2c-0.1,0.3-0.2,0.6-0.3,0.9c-0.6,1.2-1.1,2.3-1.7,3.5
	s-1.1,2.2-1.6,3.3c-0.3,0.6-0.5,1.2-0.7,1.8c-0.2,0.5-0.2,1-0.2,1.5c0,0.2,0.1,0.4,0.3,0.5c3.8-2.9,7-6.5,9.2-10.8
	c-0.4,0-0.7,0.3-1.1,0c0-0.1,0-0.2-0.1-0.3c0-0.2,0-0.4,0.1-0.7c0.3-0.9,0.5-1.8,0.8-2.6c0.2-0.7,0.3-1.3,0.4-2s0.3-1.5,0.4-2.2
	c-0.2,0-0.4,0-0.6,0.2c-0.3,0.3-0.7,0.6-1,0.9c-0.4,0.4-0.9,0.8-1.4,1c0,0,0,0-0.1,0l-0.1-0.1c0-0.2,0.1-0.3,0.2-0.5
	s0.1-0.3,0.1-0.5l0.1-0.5c0-0.2,0.1-0.3,0.1-0.5s0-0.3,0.1-0.5c0-0.2,0-0.4,0.1-0.5c0.3,0.3,0.4,0.8,0.3,1.2
	c-0.1,0.2-0.1,0.5-0.2,0.7c0,0.1,0,0.2,0,0.3l0.3-0.3c0.5-0.5,1-1,1.5-1.5c0.1-0.2,0.3-0.3,0.6-0.3c0.2,0,0.4,0,0.6,0h0.3l-0.1-0.4
	l0.8,0.3L73.6,50c0.3,0,0.7,0,1-0.2c0-0.2,0.1-0.3,0.1-0.4s0-0.3,0-0.4c-0.7-0.5-0.8-0.5-0.7-0.9c0.3,0.1,0.4,0.5,0.7,0.6l0.1-0.5
	l-0.2-0.5l0,0l0.2,0.1l0.1-0.4c-0.1,0-0.3,0.1-0.4,0.1c-0.2,0.1-0.4,0-0.5-0.1l1-0.3c0-0.1-0.1-0.2-0.1-0.2c-0.1,0-0.3-0.1-0.4-0.1
	c-0.3,0-0.6,0-0.9,0.1c-0.2,0.1-0.5,0-0.7-0.1c-0.2-0.1-0.3-0.3-0.3-0.5l-0.5,0.4l-1.3,1.2c-0.2,0.2-0.4,0.4-0.7,0.5
	c-0.1,0-0.1,0.1-0.2,0.1c0-0.1,0-0.1,0-0.2c0-0.5-0.1-0.9-0.1-1.4c0-1.2,0-2.4-0.1-3.5c0-0.4,0-0.8-0.1-1.2s-0.1-1-0.2-1.5
	s-0.2-1.3-0.3-1.9c-0.3-1.3-0.7-2.6-1.2-3.9c-0.1-0.2-0.1-0.3-0.2-0.5c0.1,0,0.1,0.1,0.2,0.2l0.6,1.2c0.4,1,0.8,2.1,1,3.2
	c0.1,0.5,0.2,1,0.3,1.5s0.1,0.8,0.2,1.3s0.1,0.7,0.1,1.1c0,0.7,0.1,1.3,0.1,2c0,0.9,0,1.8,0,2.8c0,0.1,0,0.3,0.1,0.4
	c0.4-0.3,0.8-0.7,1.2-1s0.8-0.7,1.2-1v-0.4c0-0.6,0-1.1-0.1-1.7v-0.1c0-0.6-0.1-1.1-0.1-1.7l-0.1-1.3c0-0.3,0-0.6-0.1-0.8
	c0-0.5-0.1-0.9-0.1-1.4c0-0.2,0-0.4-0.1-0.5c-0.2,0-0.3-0.1-0.5-0.1c-0.3-0.1-0.6-0.1-0.9-0.2c-0.3-0.1-0.5-0.4-0.5-0.7
	c-0.1-0.3-0.1-0.6,0-0.9c0.1-0.3,0.2-0.7,0.4-1c0.2-0.4,0.4-0.7,0.6-1l-0.1-0.4c-0.1-0.1-0.2-0.1-0.3-0.2c-0.2-0.3-0.3-0.7-0.1-1
	c0.1-0.3,0.4-0.5,0.7-0.5c0.4-0.1,0.9,0,1.2,0.3l0.3,0.2c-0.6-1.4-1.3-2.7-2.2-3.9c-0.9-1.3-1.8-2.6-2.8-3.8c-0.8-1-1.7-1.9-2.5-2.8
	c-0.6-0.6-1.1-1.1-1.7-1.7c-0.3-0.2-0.5-0.5-0.8-0.7L61.9,19l0,0c0,0,0.1,0,0.1,0c1.2,0.8,2.4,1.7,3.5,2.7c0.7,0.7,1.4,1.4,2,2.2
	c0.8,0.9,1.5,1.9,2.2,2.9c0.6,1,1.2,1.9,1.8,2.9c0.7,1.1,1.3,2.3,1.7,3.5c0.5,1.5,1,3,1.4,4.5c0.2,0.7,0.3,1.4,0.4,2.1
	s0.2,1.3,0.2,1.9s0.1,1.2,0.1,1.8s0,0.9,0,1.3c0,1,0,1.9-0.1,2.8c0,0,0,0.1,0,0.2c0,0.3-0.1,0.6-0.1,1s-0.1,0.9-0.2,1.3
	s-0.2,1-0.3,1.5c0,0.1,0,0.2,0,0.3l0.4-0.2c0.3-0.2,0.5-0.3,0.8-0.5c0.8-0.4,1.6-0.6,2.5-0.7c0.9-0.1,1.7-0.4,2.5-0.7
	c0.4-0.2,0.8-0.4,1.1-0.8c0.1-0.5,0.1-1,0.2-1.5s0.1-1.1,0.1-1.7c0-0.4,0-0.8,0-1.2c0-0.9,0-1.8-0.1-2.7c0,0,0-0.1,0-0.1
	c0-0.4-0.1-0.8-0.1-1.2s-0.1-1-0.2-1.5c-0.1-0.7-0.2-1.3-0.3-1.9c-0.2-1.2-0.5-2.4-0.9-3.5c-0.4-1.4-0.9-2.7-1.5-4
	c-0.6-1.4-1.3-2.8-2.1-4.1c-0.7-1.2-1.4-2.3-2.2-3.3c-0.8-1-1.6-2-2.5-3c-0.5-0.6-1.1-1.1-1.6-1.6c-0.7-0.7-1.5-1.4-2.3-2.1
	c-0.9-0.8-1.9-1.5-2.9-2.2s-1.9-1.2-2.8-1.7c-1.2-0.7-2.5-1.3-3.8-1.8c-1.4-0.6-2.8-1.1-4.2-1.4C54,8.2,53.2,8,52.4,7.8
	c-0.6-0.1-1.2-0.3-1.8-0.3s-1.1-0.2-1.7-0.2c-0.4,0-0.8-0.1-1.2-0.1c-0.7,0-1.4-0.1-2.1-0.1s-1.4,0-2.1,0c-0.2,0-0.4,0-0.6,0
	l-1.5,0.1l-1.1,0.1c-0.3,0-0.5,0-0.8,0.1s-0.8,0.1-1.2,0.2c-0.6,0.1-1.3,0.2-1.9,0.4C35.8,8,35,8.2,34.3,8.4
	c-1.5,0.4-3.1,0.9-4.5,1.6c-1.1,0.4-2.1,1-3.2,1.5c-0.7,0.4-1.4,0.8-2.1,1.2c-1.3,0.8-2.6,1.8-3.8,2.8c-0.8,0.7-1.5,1.3-2.3,2
	c-0.9,0.9-1.8,1.8-2.6,2.8c-0.8,1-1.6,2-2.3,3c-0.7,1-1.4,2.1-2,3.2c-0.9,1.7-1.7,3.4-2.4,5.2c-0.6,1.6-1,3.1-1.4,4.8
	c-0.1,0.7-0.3,1.3-0.4,2s-0.2,1.2-0.2,1.8s-0.2,1.3-0.2,2c0,0.5-0.1,1-0.1,1.6c0,1.1,0,2.3,0.1,3.4v0.1c0,0.4,0.1,0.9,0.1,1.3
	c0,0.3,0.1,0.6,0.1,0.8c0.7,0.7,1.7,1.1,2.7,1.3c0.6,0.1,1.2,0.2,1.9,0.4c0.9,0.1,1.7,0.5,2.4,1l0.1,0.1c-0.1-0.3-0.1-0.5-0.2-0.8
	c-0.1-0.8-0.3-1.7-0.4-2.6c-0.1-0.7-0.2-1.4-0.2-2.1c-0.1-1.1-0.1-2.2,0-3.3c0.1-0.6,0.1-1.2,0.2-1.8s0.1-1.2,0.3-1.8
	c0.2-0.9,0.4-1.8,0.6-2.8c0.5-1.9,1.2-3.7,2-5.5c0.7-1.4,1.4-2.8,2.3-4.2c0.8-1.2,1.7-2.4,2.7-3.4c0.7-0.8,1.5-1.4,2.2-2.1
	c0.1,0,0.1-0.1,0.2-0.1l0,0l-0.3,0.3c-0.6,0.6-1.2,1.3-1.8,1.9c-0.6,0.6-1.1,1.3-1.6,2c-0.7,1-1.3,2-1.9,3c-0.8,1.5-1.6,3-2.2,4.6
	c-0.5,1.2-0.9,2.4-1.2,3.6c-0.3,1.2-0.5,2.3-0.7,3.5c-0.1,0.5-0.2,1.1-0.2,1.7c-0.1,0.8-0.1,1.7-0.1,2.5c0,0.3,0,0.6,0,0.9
	c0,0.1,0,0.2,0,0.3c0,0.5,0.1,1.1,0.1,1.6c0,0.3,0.1,0.6,0.1,1s0.1,0.9,0.2,1.4s0.2,1.1,0.3,1.6c0.1,0,0.3,0,0.4-0.1
	c0.3-0.2,0.7-0.2,1-0.2c0.1-0.1,0.2-0.3,0.3-0.4c0.1-0.3,0.5-0.5,0.9-0.5c0.1,0,0.1,0,0.2,0.1c0.5-0.3,0.9-0.7,1.6-0.5l0.2,0.3v1.1
	c0.2,0.2,0.4,0.5,0.4,0.9l-0.3,0.6c-0.1,0.2-0.2,0.4-0.2,0.6c0,0.4,0,0.7,0.2,1c0.2,0.5,0,1-0.5,1.2c0,0-0.1,0-0.1,0
	c-0.1,0-0.2,0.1-0.3,0.1c-0.1,0.5-0.3,0.9-0.7,1.2c-0.2,0.2-0.3,0.3-0.5,0.5c-0.2,0.2-0.5,0.5-0.8,0.6c-0.1,0.1-0.2,0.2-0.3,0.2
	c0,0.2-0.1,0.4-0.2,0.5c-0.1,0.1-0.3,0.2-0.5,0.3l0.1,0.4c0.3-0.2,0.6-0.3,0.9-0.4s0.5-0.3,0.8-0.5l0.1,0.2c0.3,0.5,0.6,1.1,0.9,1.6
	c0.6,1.1,1.3,2.1,2.1,3.1c0.6,0.7,1.2,1.4,1.8,2.1s1.2,1.2,1.9,1.8c0.4,0.4,0.9,0.8,1.3,1.2c1,0.8,2,1.5,3,2.2
	c1.5,0.9,3.1,1.7,4.8,2.4c1.3,0.5,2.6,1,3.9,1.3c1.5,0.3,1.1,0.4,2.3,0c0.4-0.1,0.8-0.3,1.2-0.5l-0.2-0.4c0.2-1,0.7-2,1.5-2.7
	l0.1-0.8l0,0c-0.6,0-1.2-0.1-1.8-0.1c-1.3,0-2.7,0-4-0.1s-2.4,0-3.6-0.1s-2.1-0.1-3.2-0.1h-0.1L29,69.5l0.2-0.2c0.3,0,0.6,0.1,1,0.1
	c0.8,0,1.5,0,2.2,0.1c0.7,0.1,1.7,0.1,2.5,0.1l2,0.1l3.4,0.1h0.3l1.1,0.1c0.1-0.4,0.2-0.8,0.5-1.2c0.3-0.3,0.6-0.7,0.9-1l-0.5-0.9
	c-0.1,0.1-0.2,0.3-0.3,0.4c-0.3,0.4-0.7,0.7-1.2,0.8c-0.1,0-0.2-0.1-0.3-0.2c-0.2-0.2-0.5-0.3-0.8-0.3c-0.8,0.1-1.6,0-2.5-0.1
	c-0.2-0.1-0.5-0.1-0.7-0.1c-0.5,0-0.9,0-1.4,0.1c-0.4,0.1-0.8,0-1.1-0.4l-0.1-0.7c-0.2-0.3-0.2-0.3-0.5-0.4s-0.7-0.2-1.1-0.3
	s-0.4-0.2-0.4-0.5c0-0.6-0.1-1.2-0.1-1.8c0-0.8-0.1-1.6-0.1-2.3c0-1,0-2-0.2-2.9c-0.1-0.7-0.2-1.4-0.2-2.1c-0.1-0.6-0.2-1.3-0.3-1.9
	c-0.2-0.8-0.3-1.5-0.3-2.3c0-0.4,0.1-0.8,0.3-1.2c0.4-0.8,0.9-1.5,1.5-2.1c0.2-0.2,0.4-0.4,0.6-0.6l-0.3-0.1c-0.1-0.4,0-0.8,0.4-1.1
	c0.5-0.4,1-0.9,1.3-1.5c0.1-0.1,0.1-0.2,0.2-0.3c0.4-0.3,0.8-0.5,1.3-0.5c0.1,0,0.3-0.1,0.3-0.2l-0.6-0.5c0-0.1,0.1-0.1,0.1-0.1
	l1.6-0.1l-0.9-1l0.3-0.2l1,0.1l0.7,0l1.7,0.2l1.1,0.1l0.8,0.1c0.4,0,0.8,0.1,1.1,0.1l1.1,0.1l2.1,0.2c0.6,0.5,1.1,1.2,1.3,2
	c0,0,0.1,0.1,0.1,0.1l0.5,0.2c0.5-1.3,1.2-2.6,2-3.8L50,39c-0.1,0-0.1,0-0.2-0.1c-0.5,0-0.9-0.2-1.2-0.5c-0.3-0.2-0.5-0.5-0.7-0.6
	c-0.4-0.2-0.5-0.6-0.4-1c0.2-0.6,0.3-1.3,0.4-1.9c0-0.1,0-0.2,0.1-0.3c-1.8,0.7-3.5,1.5-5.3,2.2l2.6,0.1h0.7h0.2
	c-0.3,0.1-0.6,0.1-0.8,0.1c-1.1,0-2.3,0-3.4,0c-0.4,0-0.8,0-1.2,0s-1,0.1-1.5,0.1s-0.8,0-1.2,0c-0.5,0-1,0-1.5-0.1
	c-0.2,0-0.5-0.1-0.7-0.2c-0.4,0-0.8-0.1-1.1-0.3c-0.5,0-0.8-0.1-1.2-0.1c-0.7,0-1.4-0.1-2.1-0.1c-1.4,0-2.8-0.1-4.1-0.1
	c-0.6,0-1.1,0-1.7,0.1c-0.1,0-0.2,0-0.3,0c0.3-0.2,0.7-0.3,1.1-0.3c1.4,0,2.8,0,4.2,0c1.2,0.1,2.3,0.1,3.5,0.1c0.1,0,0.2,0,0.2,0
	c-0.2-0.5-0.2-1,0-1.4c0.2-0.7,0.4-1.4,0.7-2c1-2.2,2.3-4.2,3.9-6c0.5-0.6,1-1.2,1.5-1.9c0.2-0.4,0.5-0.7,0.8-1
	c0.5-0.4,1.1-0.8,1.7-1.1c0.5-0.3,1-0.5,1.5-0.6l0.9-0.2l0.1-1c-0.3-0.2-0.1-0.5,0-0.8c-0.3,0.1-0.6,0-0.7-0.3c0-0.2,0-0.5,0.1-0.7
	c0.1-0.3,0.3-0.6,0.4-1c0.1-0.2,0.2-0.5,0.2-0.7c0-0.4,0-0.9,0-1.3c0-0.4,0-0.8,0.1-1.2c0-0.2,0.1-0.4,0.1-0.6c0-0.1,0-0.3-0.1-0.4
	c0-0.3,0.2-0.6,0.5-0.7l1.1-0.6l-0.8,0.1c-0.3,0-0.5,0-0.8,0c-0.2,0-0.5,0.1-0.8-0.1c0-0.1,0.1-0.3,0.1-0.4c0.1-0.3,0.1-0.5,0.2-0.8
	c0-0.8,0-1.6,0-2.4C45.1,8.7,45,8.3,44.7,8c0-0.2,0-0.3,0.1-0.3c0.2-0.1,0.3-0.1,0.5-0.1L47,7.7l0.8,0.1c0.1,0,0.3,0.1,0.4,0.1
	c0.2,0.3,0.2,0.8,0.1,1.1l-0.2,0.1c-0.4-0.5-1.1-0.8-1.8-0.6v1.2c0.2,0.1,0.4,0.1,0.6,0.1l0.6-0.2c0.2,0.4,0.2,0.9,0,1.3h-0.3
	c-0.2-0.3-0.5-0.5-0.9-0.4c-0.1,0.6-0.1,1.3,0,1.9c0,0,0.1,0,0.1,0c0.4-0.1,0.8-0.2,1.1-0.5l0.5-0.6c0.1-0.1,0.3-0.2,0.4-0.2
	c0.1,0.2,0.1,0.4,0,0.6c0,0.2-0.1,0.4-0.1,0.6c0.9-0.3,1.9-0.4,2.9-0.2l0.1-0.1c0.2-0.7,0.4-1.3,0.5-2c0.1-0.3,0.1-0.7,0-1.1
	c0-0.1,0-0.2,0-0.3c0.2,0,0.3,0,0.5,0L53.8,9c0.3,0.1,0.6,0.1,0.9,0.2c0.5,0.2,0.9,0.6,0.9,1.1c0.1,0.5-0.2,1-0.6,1.2l-0.1,0.1
	c0.3,0.4,0.4,1,0.2,1.5l0.8,0.5l0.1-0.2c0.3-0.8,0.6-1.6,1-2.4c0.1-0.2,0.1-0.5,0-0.8c0,0,0-0.1,0.1-0.1l0.1-0.1
	c0.5,0,1,0.4,1.4,0.5c0.2,0,0.3,0.1,0.3,0.3c-0.1,0.1-0.1,0.1-0.2,0.2c-0.1,0.1-0.2,0.3-0.3,0.4c-0.3,0.8-0.7,1.6-1,2.5
	c-0.1,0.2-0.1,0.3,0,0.5l0.2,0.1c0.2,0.3,0.7,0.3,0.9,0c0,0,0.1-0.1,0.1-0.1c0.1-0.1,0.2-0.3,0.3-0.4c0.3-0.6,0.5-1.2,0.8-1.8
	c0.1-0.2,0.1-0.5,0.1-0.7c0-0.1,0-0.2,0-0.3c0.4-0.1,0.6,0.1,0.9,0.2c0.2,0,0.3,0.1,0.4,0.3c0,0.3-0.3,0.2-0.4,0.3s-0.1,0.1-0.1,0.2
	c-0.3,0.7-0.6,1.3-0.9,2c-0.2,0.4-0.5,0.8-0.8,1.1c-0.3,0.3-0.7,0.5-1.2,0.4L57,15.5l0,0l0,0l0.1,0.4c0.2,0.2,0.4,0.3,0.7,0.3
	c0.2,0,0.4,0.2,0.6,0.4c0,0.4,0,0.4-0.2,0.5c-0.3-0.1-0.6-0.2-0.9-0.3c0,0.3,0,0.6,0,1c0.2,0.1,0.4,0.2,0.6,0.3
	c0.2,0.1,0.5,0.1,0.7,0.1c0.2,0.3,0.2,0.6,0.3,1l-0.2,0.2l-0.5-0.1c-0.2-0.1-0.4-0.1-0.5-0.2c-0.1-0.1-0.3-0.1-0.4,0l0.1,0.7
	c0.4,0.3,0.9,0.4,1.5,0.5c0.4,0.4,0.6,0.9,0.7,1.4l-0.1,0.1c-0.5-0.1-1-0.2-1.4-0.5c-0.5-0.2-0.8-0.7-0.9-1.2
	c-0.1-0.4-0.1-0.8-0.2-1.3c0-0.4,0-0.9,0-1.3c0,0,0,0.1-0.1,0.1c-0.3,0.7-0.5,1.5-0.6,2.3c-0.1,0.4,0,0.8,0.1,1.3
	c0,0.1,0.1,0.3,0.2,0.5c-0.3-0.2-0.6-0.5-0.7-0.9c-0.1-0.5,0-1,0.2-1.4c0.3-0.8,0.6-1.6,1-2.4c0-0.2-0.1-0.4-0.1-0.6
	c-0.2-1.4-1.2-2.5-2.4-3.1c-1.2-0.5-2.4-0.8-3.7-0.8c-0.7,0-1.4,0.1-2.1,0.2c-1,0.2-1.9,0.6-2.6,1.1c-0.1,0.1-0.2,0.2-0.3,0.3
	l0.2,0.4l-0.2,1.4c0.1-0.3,0.3-0.5,0.4-0.8s0.2-0.5,0.4-0.7l-0.3-0.1c0.4-0.3,0.7-0.1,1.1-0.1c-0.1,0.3-0.4,0.2-0.7,0.4
	s-0.3,0.5-0.4,0.8c-0.3,0.5-0.4,1.2-0.4,1.8c0,0.2,0,0.5-0.1,0.7c-0.2,0.5-0.4,1-0.6,1.5c-0.1,0.2-0.1,0.5,0,0.8h0.3l0.3-0.2
	c0.2,0.2,0.4,0.2,0.6,0.2l0.3-0.1l0,0c-0.1,0.3-0.3,0.4-0.7,0.4l-0.3-0.2v0.5c0.1,0.1,0.2,0.2,0.4,0.3c0.3,0,0.5,0.1,0.7,0.3
	c-0.1,0-0.1,0.1-0.2,0.1l-0.4,0c-0.2,0-0.3-0.2-0.5-0.1l0.2,0.6l-0.3,0.4l0.1,0.5c0.1,0,0.2,0.1,0.4,0.1c0.5,0,1,0.1,1.4,0.2
	c1.1,0.2,2,1.1,2.2,2.3c0,0.2,0.1,0.5,0.1,0.7c0,0.1,0,0.3,0.2,0.4c0.2,0.2,0.4,0.5,0.3,0.8l-0.5-0.7c-0.1-0.1-0.1-0.2-0.1-0.3
	c0-0.3-0.1-0.7-0.2-1c-0.1-0.2-0.1-0.3-0.2-0.5v-0.1l0,0l0.1,0.1c0.1,0.3,0.1,0.6,0.2,1c0,0.3,0,0.6,0,0.9c0,0.2-0.2,0.3-0.4,0.3
	c-0.1,0-0.1,0-0.2-0.1c-0.1-0.1-0.2-0.1-0.3-0.2c-0.3,0.2-0.6,0.1-0.8-0.1L47,27.2c-1,0.7-2,1.5-2.8,2.4c-0.2,0.3-0.5,0.5-0.7,0.8
	C42.8,31,42,31.6,41.1,32c-0.2,0.1-0.4,0.3-0.5,0.5c-0.3,0.5-0.6,1-1,1.4l-0.2-0.1c0.1-0.1,0.2-0.3,0.3-0.4c0.4-0.6,0.8-1.3,1.2-1.9
	c0.3-0.4,0.5-0.8,0.6-1.3c0.5-1.3,1.1-2.5,1.7-3.7c0.1-0.3,0.4-0.6,0.8-0.7c0.5-0.2,0.9-0.2,1.4-0.2c0.4,0,0.8,0,1.2,0
	c0.3,0,0.6-0.1,0.9-0.2c-0.1-0.4-0.3-0.6-0.6-0.8c-0.5-0.2-1-0.2-1.5-0.2l-0.7,0.1l0,0c0,0,0-0.1,0.1-0.1c0.6-0.3,1.3-0.4,2-0.3
	c0.4,0,0.7,0.3,0.9,0.6c0.1,0.2,0.2,0.5,0.3,0.7c0.1,0.3,0.2,0.5,0.4,0.7c0,0,0.1,0,0.1,0l0.2-0.2c0-0.4-0.1-0.8-0.2-1.2
	c-0.1-0.4-0.4-0.8-0.7-1.1c-0.1-0.1-0.2-0.2-0.3-0.3l0,0c0.4,0,0.7,0.2,0.9,0.5c0.4,0.6,0.6,1.3,0.6,2l0.2,0.2h0.2
	c0-0.1,0-0.2,0-0.2c-0.1-0.7-0.2-1.3-0.4-2c-0.1-0.4-0.4-0.7-0.8-0.8H48c-0.7-0.3-1.4-0.4-2.1-0.5c-0.2-0.2-0.4-0.4-0.5-0.7
	l-0.6,0.1c-0.5,0.1-0.9,0.2-1.3,0.4c-0.7,0.4-1.3,0.8-2,1.1c-0.4,0.2-0.6,0.5-0.8,0.9c-0.2,0.3-0.4,0.6-0.6,0.8
	c-0.4,0.5-0.9,1-1.3,1.6c-0.8,0.9-1.5,1.9-2.1,2.9c-0.8,1.3-1.5,2.8-2,4.3c-0.1,0.3-0.2,0.7-0.1,1c0,0.3,0.1,0.5,0.3,0.7
	c0.3,0.2,0.6,0.3,1,0.3c0.1,0,0.3,0,0.4,0.1c0.7,0.1,1.3,0.2,2,0.2c0.3,0,0.5,0,0.7-0.1c0.5,0,1-0.1,1.5-0.2
	c0.6-0.1,1.2-0.2,1.8-0.4c1.3-0.5,2.5-1.1,3.8-1.6c0.6-0.3,1.2-0.6,1.8-0.7c-0.2-0.5-0.4-1-0.7-1.4c0.5,0.3,0.8,0.8,1,1.3
	c0.1,0.2,0.1,0.4,0.1,0.5c-0.1,0.6-0.2,1.1-0.3,1.7c-0.1,0.4-0.2,0.8-0.2,1.2c0.1,0.1,0.2,0.2,0.3,0.3s0.3,0.3,0.5,0.4
	c0.5,0.6,1.3,0.8,2.1,0.7c0.4,0,0.8-0.2,1.2-0.3c0,0,0.1,0,0.2,0l0,0c0,0-0.1,0.1-0.2,0.2c-0.4,0.3-0.9,0.5-1.4,0.6
	c0.2,0.7,0.4,1.4,0.7,2c-0.4,0.7-0.8,1.3-1.1,2c-0.4,0.7-0.7,1.4-0.9,2.1l2.2,1.2c0.3-0.1,0.5-0.1,0.8-0.2c0.4-0.1,0.9-0.1,1.3,0.1
	c0.3,0.1,0.6,0.2,0.9,0.3c0.7,0.1,1.5,0.4,2.1,0.8c0.3,0.2,0.6,0.4,1,0.5c0.8,0.2,1.5,0.7,2.1,1.3c0.3,0.3,0.6,0.6,0.8,0.9
	c0.3,0.4,0.6,0.8,0.9,1.2c0.2,0.3,0.3,0.6,0.4,0.8c0,0.1,0.1,0.3-0.1,0.4c-0.1-0.1-0.2-0.2-0.2-0.3c-0.1-0.2-0.1-0.4-0.2-0.5v-0.1
	l0,0l0.1,0.1c0,0.1,0,0.2,0,0.3c0,0.3-0.1,0.6-0.2,0.9c-0.5,1-1.1,1.9-1.9,2.7l0,0l0,0c0.3-0.1,0.6-0.3,0.9-0.5
	c0.4-0.4,0.8-0.8,1.2-1.2c0,0,0.1-0.1,0.2-0.1l0,0c0,0.1,0,0.1,0,0.2c-0.2,0.4-0.4,0.8-0.7,1.1c-0.2,0.2-0.5,0.4-0.7,0.7
	c0.6,0,1.2,0,1.7-0.3c1.3-0.5,2.2-1.5,2.6-2.8c0.1-0.3,0.2-0.7,0.2-1c0.1-0.6,0.2-1.1,0.3-1.7c0-0.3,0-0.7,0.1-1c0-0.1,0-0.3,0-0.4
	c0-0.3-0.1-0.6-0.1-0.9c-0.1-0.6-0.1-1.1-0.2-1.7l-0.1-0.8c0-0.3-0.1-0.6-0.1-0.9s0-0.6-0.1-0.9c-0.1-0.5-0.1-1-0.2-1.5
	c0-0.4-0.1-0.8-0.3-1.2c-0.5-1.1-1-2.2-1.6-3.3c-0.3-0.7-0.6-1.3-0.8-2c-0.4-0.2-0.8-0.6-0.9-1.1c0-0.1-0.1-0.2-0.2-0.3
	c-0.1-0.1-0.1-0.2-0.2-0.2l-0.2,0.6c-0.2-0.1-0.3-0.4-0.2-0.6c0-0.8-0.1-1.6-0.5-2.3c0-0.1,0-0.1-0.1-0.2c0.4,0.2,0.5,0.5,0.7,0.8
	c0.1,0.1,0.3,0.2,0.4,0.3c0.1,0.1,0.2,0.2,0.3,0.4c1.5,0.1,3.7-0.4,4.5-1.1c0-0.1,0-0.2-0.1-0.3c-0.1-0.3-0.2-0.6-0.3-0.9
	c-0.3-0.8-0.7-1.6-1.1-2.3c-0.6-0.9-1.3-1.7-1.9-2.6c-0.2-0.2-0.4-0.4-0.6-0.5c-0.5-0.2-1-0.4-1.6-0.5c-1-0.4-2.1-0.7-3.1-1
	c-0.4-0.2-0.8-0.4-1.2-0.6c-0.4-0.2-0.7-0.6-0.8-1c-0.1-0.2-0.2-0.4-0.3-0.6c-0.2-0.4-0.5-0.7-0.8-1c-0.7,0.8-1.1,1-1.7,0.9
	c0.6-0.2,1-0.6,1.3-1.2l-0.6-0.3c-0.7-0.3-1.2-0.7-1.7-1.2c-0.3-0.3-0.5-0.6-0.7-1l0,0c0.1,0.1,0.2,0.2,0.3,0.3
	c0.5,0.5,1.1,1,1.7,1.4c0.3,0.1,0.5,0.3,0.8,0.4c0.6,0.3,1.2,0.8,1.6,1.4c0,0.1,0.1,0.1,0.2,0.3c0.1-0.1,0.1-0.3,0.1-0.5
	c-0.2-0.2-0.3-0.4-0.5-0.6c-0.2-0.2-0.5-0.4-0.6-0.7c0.4,0,0.5,0.2,0.7,0.4s0.4,0.3,0.6,0.5c0.1-0.2,0.1-0.3,0.1-0.5
	c0-0.3-0.2-0.6-0.5-0.7c-0.3-0.1-0.5-0.2-0.8-0.3c-0.1,0-0.1-0.1-0.1-0.1c0.1,0,0.2,0,0.3,0c0.3,0.1,0.7,0.2,1,0.3
	c0.3,0.1,0.6,0.4,0.6,0.7l0.3-0.4c0.1,0,0.1,0.1,0.1,0.2c0,0,0,0,0,0.1c-0.1,0.4-0.3,0.9-0.7,1.2l-0.4,1c0.1,0.2,0.1,0.3,0.2,0.4
	c0.4,0.4,0.8,0.6,1.3,0.7l0.1-0.5c0.3,0.3,0.6,0.6,0.9,0.9v-0.4c0.5,0.3,0.7,0.8,1.2,0.9c-0.2-0.5-0.4-1-0.5-1.4s-0.2-0.8-0.3-1.2
	l0,0c0.1,0.1,0.1,0.1,0.2,0.2c0.2,0.4,0.4,0.8,0.6,1.2c0.8,0.5,1.6,0.7,2.5,0.9c-0.2,0.1-0.4,0.2-0.7,0.2c-0.3,0-0.6,0-0.9-0.1
	L58.3,23l0,0l0,0l0.2,0.4l2.5,0.9l-0.3-0.6c0.1,0,0.1,0,0.2,0.1c0.7,0.7,1.4,1.4,2,2.2c0.2,0.3,0.4,0.5,0.7,0.8v0.1l0,0l-0.1-0.1
	L63.2,26c-0.2-0.7-0.2-1.3-0.1-2c0.1-0.5,0.3-0.9,0.7-1.2c0.3-0.2,0.7-0.3,1.1-0.3c-0.1,0-0.1,0.1-0.2,0.1c-0.5,0.2-0.8,0.5-1,1
	c-0.2,0.6-0.3,1.2-0.2,1.8c0.1,0.7,0.2,1.5,0.5,2.2c0.1,0.3,0.2,0.5,0.3,0.8c0.4,0.6,0.7,1.2,1,1.9c0.2,0.3,0.1,0.7-0.2,1
	c-0.1,0.1-0.1,0.2-0.2,0.2c-0.7,0.5-1.4,0.8-2.3,0.9c-0.3,0-0.5,0-0.7,0.1c-0.5,0.1-1,0.1-1.5,0c-0.2,0-0.3,0-0.5,0
	c0.2,0.5,0.5,1.1,0.7,1.6c0.1,0.3,0.4,0.5,0.7,0.5c0.3,0.1,0.5,0.1,0.8,0.1c0.7,0,1.4,0,2.1-0.1c0.8-0.1,1.6-0.3,2.3-0.5
	c0.1,0,0.2,0,0.3,0c0,0.1,0,0.1,0,0.2s-0.2,0.2-0.3,0.3c0.6,1.1,1,2.3,1.3,3.5c0.2,0.9,0.5,1.9,0.7,2.8c0.2,0.8,0.3,1.6,0.3,2.3
	c0,0.6,0.1,1.1,0.1,1.7c0,0.9,0,1.8-0.1,2.6v0.1l-0.2,1.7c0,0.4-0.1,0.8-0.2,1.2c-0.2,0.7-0.3,1.4-0.5,2.1c-0.2,0.6-0.4,1.1-0.7,1.6
	c-0.9,0.7-1.8,1.4-2.7,1.9L64,57.3c-0.1,0-0.1,0-0.1,0.1l0,0L64,57.3z M50.1,75.7c0.2,0.1,0.4,0.2,0.6,0.2c0.3-0.1,0.5-0.2,0.8-0.3
	c0.8-0.6,1.4-1.4,1.7-2.3c0-0.1,0-0.3,0-0.4c-0.1-0.5-0.3-0.9-0.4-1.4c-0.2-0.4-0.2-0.7-0.2-1.1c0.1-0.3,0.2-0.7,0.3-1
	c0.2-0.7,0.5-1.4,0.7-2.1c0.2-0.4,0.2-0.9,0-1.4c-0.1-0.4-0.4-0.8-0.8-1c-0.4-0.2-0.9-0.3-1.3-0.4c-0.8-0.1-1.5-0.4-2-1
	c0,0-0.1,0.1-0.1,0.1c-0.2,0.3-0.5,0.6-0.7,0.9c-0.1,0.1-0.2,0.3-0.2,0.5c-0.1,0.5,0,1.1,0.3,1.6c0.3,0.5,0.6,1.1,0.7,1.7
	c0.2,0.7,0.5,1.5,0.7,2.2c0.2,0.4,0.3,0.9,0.5,1.3c0.2,0.5,0.2,1.1-0.1,1.6c-0.2,0.3-0.5,0.6-0.8,0.8c-0.2,0.1-0.4,0.3-0.6,0.4
	c-0.1,0.1-0.2,0.2-0.3,0.3l0.2,0.2l0.5-0.3c0.2-0.1,0.5-0.3,0.6-0.5l0.4-0.5c-0.1,0.8-0.7,1.1-1.2,1.4c0,0.2,0,0.4,0.2,0.5
	c0.2,0,0.4-0.1,0.5-0.2c0.2-0.2,0.4-0.5,0.6-0.7c0.2-0.3,0.4-0.7,0.7-1c0,0.2,0,0.3-0.1,0.4c0,0.3-0.2,0.6-0.3,0.8
	c-0.2,0.2-0.4,0.5-0.6,0.7L50.1,75.7z M18.9,54.7c0-0.1,0-0.2,0-0.3c-0.1-0.4-0.1-0.8-0.3-1.2c-0.1-0.3,0-0.5,0.2-0.7
	c0.1-0.2,0.2-0.3,0.3-0.5c0.1-0.3,0.1-0.3-0.1-0.5s-0.2-0.2-0.3-0.3l0.1-1c-0.1,0-0.1-0.1-0.2-0.1c-0.2,0-0.3,0-0.5,0.1
	c-0.4,0.3-0.8,0.4-1.3,0.3h-0.1c-0.1,0.1-0.3,0.3-0.3,0.4c-0.1,0.3-0.4,0.5-0.7,0.4h-0.4L15,51.7c-0.1,0.1-0.3,0.2-0.4,0.3L14,52.4
	c-0.3,0.2-0.5,0.6-0.3,1c0,0.1,0.1,0.2,0.1,0.3c0.1,0.2,0,0.4-0.1,0.6c-0.1,0.1-0.1,0.1-0.2,0.2c-0.4,0.3-0.5,1-0.2,1.4c0,0,0,0,0,0
	c0.1,0.1,0.1,0.2,0.2,0.3c-0.1,0.2-0.1,0.5-0.2,0.7c-0.1,0.2-0.1,0.4,0,0.6c0.2,0.2,0.2,0.5,0.1,0.8c0,0,0,0.1,0,0.1
	c0.1,0.5,0.3,0.9,0.6,1.3c0.1-0.1,0.1-0.1,0.1-0.2c0.1-0.2,0-0.4-0.1-0.6c-0.1-0.2-0.2-0.4-0.2-0.5v-0.7c-0.1-0.2-0.2-0.5-0.1-0.8
	c0.1-0.1,0.1-0.2,0.3-0.3l0.1,0.7h0.3c0.2-0.4,0.4-0.8,0.6-1.2c0.8-1.4,1.6-2.8,2.4-4.2c0.1-0.2,0.3-0.4,0.4-0.6
	c0.1-0.1,0.1-0.2,0.3,0c-0.1,0.1-0.1,0.2-0.2,0.3c-0.5,0.8-1,1.7-1.5,2.6c-0.4,0.7-0.7,1.5-1.1,2.3c-0.3,0.7-0.5,1.4-0.7,2.1
	c-0.1,0.3-0.1,0.7-0.1,1h0.2c0.1-0.4,0.4-0.8,0.8-1V58c0.3-0.3,0.8-0.2,1.1-0.5c0.1-0.4,0.3-0.7,0.7-0.8c0.3-0.2,0.5-0.6,0.5-1
	c0-0.2,0.1-0.4,0.3-0.5C18.4,55.1,18.7,54.9,18.9,54.7L18.9,54.7z M72,37.2c0,0.2,0,0.4,0.1,0.7l0.1,0.8c0,0.4,0.1,0.8,0.1,1.1
	s0.1,0.8,0.1,1.3c0,0.6,0.1,1.3,0.1,1.9c0,0,0,0.1,0,0.2c0,0.6,0.1,1.2,0.1,1.8c0,0.3,0,0.6,0,0.8c0,0.3,0.1,0.5,0.3,0.7h0.9
	c0.1-0.2,0.1-0.3,0.1-0.5c0-0.2,0-0.4,0-0.6c0.1-0.5,0.1-1.1,0-1.6c0-0.6-0.1-1.1-0.1-1.7c0-0.4,0-0.8-0.1-1.2
	c0-0.2-0.1-0.5-0.1-0.7s-0.1-0.7-0.1-1.1c0-0.2-0.1-0.5-0.2-0.7C73,37.9,72.5,37.5,72,37.2z M71.8,58.1c0.5-1.3,0.9-2.6,1.2-3.9
	c0.4-1.3,0.6-2.7,0.7-4L73,50c0,0.1-0.1,0.2-0.1,0.3c-0.1,0.3-0.1,0.5-0.2,0.8c-0.2,0.7-0.3,1.5-0.5,2.2s-0.4,1.5-0.6,2.3
	s-0.5,1.7-0.8,2.5c0,0,0,0,0,0.1l0.1,0.2C71.3,58.3,71.6,58.3,71.8,58.1L71.8,58.1z M10.3,57.8c-0.8-0.5-1.3-1.2-1.5-2.1L9,55.1
	l-0.2-0.3c-0.3-0.4-0.3-0.9-0.1-1.3c0,0,0-0.1,0.1-0.1c0-0.2,0.1-0.5,0.1-0.7c0-0.2,0-0.3,0-0.5c-0.1-0.4,0.1-0.8,0.5-0.9
	c0,0,0,0,0-0.1c-0.7-0.3-1.4-0.6-2-1c0.3,2.5,0.9,4.9,1.8,7.2c0.8,0.7,1.7,1.3,2.6,1.8c0-0.2-0.2-0.3-0.4-0.4
	C10.9,58.6,10.6,58.2,10.3,57.8L10.3,57.8z M9.3,55c0,0.2,0,0.5,0,0.7c0.1,0.6,0.5,1.2,1,1.6c0-0.1,0-0.1,0-0.2
	c-0.2-0.4-0.4-0.9-0.6-1.3c-0.1-0.1-0.1-0.3-0.1-0.5c0.1-0.4,0.1-0.8-0.1-1.2c-0.1-0.2-0.1-0.4,0-0.6c0-0.2,0.1-0.4,0.1-0.6
	c0-0.2,0.1-0.4,0.1-0.7s0-0.2,0.2-0.3c0,0.1,0.1,0.2,0.1,0.3c0,0.3-0.1,0.7-0.2,1c-0.1,0.3-0.1,0.7,0,1c0.2,0.4,0.2,0.8,0.1,1.2
	l0.3,0.7c0.1-0.3,0.3-0.6,0.6-0.8c0-0.3-0.1-0.5-0.1-0.7c0-0.2,0-0.5,0-0.7c0-0.4,0-0.8,0.1-1.2c0-0.2,0-0.4,0-0.5s0-0.5,0-0.8
	L10,51.3l-0.6,0.3c-0.2,0.2-0.2,0.5-0.2,0.7c0.1,0.3,0.1,0.5,0,0.8C9,53.7,9,54.4,9.3,55C9.3,55,9.3,55,9.3,55z M66.3,57.7
	c-0.4-0.3-1-0.3-1.4,0c-0.3,0.2-0.6,0.4-0.9,0.6c-0.3,0.2-0.8,0.3-1.1,0.2l-0.8-0.2v0l-0.3-0.3l0.1-0.7c-0.4,0.1-0.4,0.4-0.5,0.6
	c0,0.4,0.3,0.8,0.7,1c0.3,0.2,0.6,0.3,1,0.4c0.6,0.2,1.2,0.1,1.6-0.3l0.2-0.1C65.5,58.7,65.9,58.2,66.3,57.7z M12.7,57.4
	c0-0.4-0.2-0.8-0.6-0.9c0,0-0.1,0-0.1-0.1l-1-0.8c-0.4,0.1-0.6,0.5-0.6,1c0,0.2,0,0.4,0.1,0.7c0,0.5,0.4,1,0.9,1.2l0.5,0.2
	c0.3,0.2,0.5,0.4,0.6,0.8c0.1,0.1,0.3,0.1,0.5,0.1C12.5,58.9,12.4,58.1,12.7,57.4z M74.2,39.9c0,0.1,0,0.2,0,0.3l0.2,2.2
	c0,0.6,0.1,1.2,0.1,1.9s0,1.2,0,1.8c0,0.1,0,0.2,0,0.3H75c0-0.7,0.1-1.4,0.1-2.1c0-0.2,0-0.5,0-0.7c0-0.5,0-1.1-0.1-1.6
	s-0.1-1.2-0.2-1.8c0-0.1-0.1-0.3-0.2-0.3L74.2,39.9z M81.4,49.9v0.2c0,0.3,0.1,0.6,0.1,0.8c0,0.5-0.1,1-0.1,1.4
	c-0.1,1-0.4,1.9-0.9,2.8c-0.3,0.6-0.6,1.2-0.9,1.8c-0.1,0.2-0.2,0.5-0.1,0.7L79,58.5c0.4,0,0.8-0.3,0.9-0.7c0.2-0.6,0.4-1.2,0.6-1.7
	s0.4-1.3,0.6-2s0.3-1.5,0.5-2.3s0.2-1.3,0.4-2.1L81.4,49.9z M51.3,80.5h0.3c0.4,0,0.8-0.3,0.8-0.7c0,0,0,0,0-0.1c0-0.1,0-0.2,0-0.3
	c0-0.3-0.2-0.7-0.5-0.8c-0.3,0-0.7-0.1-1,0.3L51.3,80.5z M77.1,55.5c0-0.1,0.1-0.2,0.1-0.3c0.2-0.8,0.3-1.5,0.6-2.3
	c0.1-0.4,0.3-0.8,0.5-1.2c0.1-0.2,0.2-0.3,0.3-0.3C78.2,52,78,52.7,78,53.4c0.3-0.4,0.5-0.8,0.7-1.3c0.1-0.3,0.1-0.6,0.2-0.9
	c0-0.2,0-0.3-0.1-0.5c-0.2,0.1-0.3,0.2-0.5,0.3c-0.5,0.4-0.7,1-0.8,1.7c0,0.3-0.1,0.5-0.1,0.8c-0.1,0.7-0.3,1.3-0.6,2c0,0,0,0,0,0.1
	L77.1,55.5z M51.5,76.5h-0.5l-0.2,0.2l0.1,1.5c0.1,0,0.3,0,0.5,0c0.2,0,0.4-0.2,0.4-0.4C51.8,77.3,51.7,76.8,51.5,76.5z M53.1,10.9
	c0.2,0.1,0.5,0.1,0.7,0.1c0.4-0.2,0.5-0.7,0.3-1.1c0,0,0,0,0-0.1c-0.2-0.2-0.4-0.2-0.7-0.2C53.3,10,53.2,10.5,53.1,10.9z M44.6,79
	c0.2-0.1,0.5-0.2,0.6-0.4c0.1-0.3,0.1-0.7,0-1c0-0.1-0.1-0.1-0.1-0.1h-0.5v1.4C44.5,78.9,44.6,79,44.6,79z M73.3,54.7L73.3,54.7
	c0.6-1.4,1.1-2.9,1.3-4.4l-0.3,0.1c0,0.2,0,0.4,0,0.5c-0.1,0.7-0.3,1.5-0.6,2.2C73.5,53.7,73.4,54.2,73.3,54.7z M52.9,11.5l-0.2,0.8
	l0.9,0.3c0.2-0.2,0.2-0.5,0.2-0.8C53.6,11.6,53.3,11.5,52.9,11.5z M58.9,20.8c-0.3-0.2-0.6-0.3-1-0.3c0.2,0.7,0.5,0.9,1.1,0.9
	C59.1,21.2,59,21,58.9,20.8z M76.3,57.8c0.1-0.7,0.3-1.4,0.7-2c-0.2-0.1-0.4,0-0.4,0.2c0,0,0,0,0,0c-0.1,0.3-0.2,0.5-0.3,0.8
	C76.1,57.1,76.1,57.5,76.3,57.8L76.3,57.8z M58.6,18.9c-0.3-0.3-0.7-0.3-1-0.5c0,0,0,0-0.1,0v0.2C58.2,19.1,58.3,19.1,58.6,18.9z"/>
<path class="st0" d="M63.4,26.8L63.4,26.8L63.4,26.8L63.4,26.8L63.4,26.8z"/>
<path class="st0" d="M13.3,53.4L13.3,53.4L13.3,53.4L13.3,53.4L13.3,53.4z"/>
<path class="st0" d="M53.4,48.4L53.4,48.4L53.4,48.4z"/>
<path class="st0" d="M59,55.3L59,55.3L59,55.3z"/>
<path class="st0" d="M57,15.5L57,15.5L57,15.5z"/>
<path class="st0" d="M9.5,58.6L9.5,58.6L9.5,58.6z"/>
<path class="st0" d="M66,59L66,59L66,59z"/>
<path class="st0" d="M66,59L66,59L66,59L66,59z"/>
<path class="st0" d="M41.3,31.3L41.3,31.3L41.3,31.3z"/>
<path class="st0" d="M43.1,71.8L43.1,71.8L43.1,71.8z"/>
<path class="st0" d="M58.3,23L58.3,23L58.3,23z"/>
<path class="st0" d="M41.6,53L41.6,53L41.6,53z"/>
<path class="st0" d="M39.7,8.1C40,8,40.3,7.9,40.6,7.9c0.5-0.1,1-0.1,1.5-0.1c0.3,0,0.7,0.1,1,0.2c0.3,0.1,0.5,0.3,0.6,0.6
	C43.9,9,44,9.4,44,9.8c0,0.3,0.1,0.5,0,0.8c0,0.3-0.1,0.7-0.2,1c-0.2,0.7-0.8,1.2-1.5,1.3c-0.4,0.1-0.8,0.1-1.1,0.2h-0.3
	c-0.2,0-0.4,0.1-0.6-0.1l0.2-0.4c0-0.6-0.1-1.3-0.2-2c0-0.5-0.1-1-0.2-1.5c0-0.2-0.1-0.4-0.3-0.6C39.7,8.4,39.7,8.4,39.7,8.1z
	 M41.9,12.3c0.1,0.1,0.3,0,0.4-0.1c0,0,0,0,0,0c0.1-0.2,0.2-0.4,0.2-0.6c0-0.4,0-0.7,0-1.1c0-0.4,0-0.7-0.1-1.1
	c0-0.2-0.1-0.4-0.2-0.6c-0.1-0.2-0.3-0.4-0.5-0.4h-0.1l-0.1,0.1C41.7,9.8,41.7,11,41.9,12.3z"/>
<path class="st0" d="M66,16.7c-0.4,0.5-0.7,1-1,1.5c-0.3,0.3-0.5,0.8-0.5,1.3c0,0.1-0.1,0.2-0.1,0.2c-0.1,0-0.3,0-0.4-0.1
	c-0.2-0.2-0.5-0.3-0.7-0.5c-0.1-0.1-0.2-0.2-0.2-0.3c0.1-0.1,0.1-0.1,0.2-0.2c0.4-0.2,0.7-0.6,1-1c0.4-0.6,0.9-1.1,1.3-1.6
	c0.3-0.3,0.4-0.6,0.4-1c0-0.2,0-0.4,0.3-0.4c0.4,0.2,0.8,0.4,1.1,0.7c0.1,0.1,0.1,0.2,0.2,0.4c0,0.4,0,0.7-0.1,1.1
	c0,0.6-0.1,1.1-0.1,1.7l0.7-0.9c0.3-0.3,0.3-0.7,0.2-1.1c0.2-0.2,0.3-0.2,0.4-0.1l0.8,0.7c0.1,0.1,0.2,0.2,0.1,0.4
	c-0.1,0.1-0.2,0.1-0.3,0.1c-0.2,0-0.3,0.1-0.5,0.3l-0.9,1l-1,1.1c-0.2,0.2-0.4,0.5-0.5,0.9c0,0.1-0.1,0.2-0.3,0.4s-0.3-0.1-0.5-0.3
	c0-0.4,0-0.8,0.1-1.2s0.1-0.7,0.1-1s0.1-0.8,0.1-1.2S66,17,66,16.7z"/>
<path class="st0" d="M33.3,14.8c0-0.2,0-0.3,0.1-0.4c0-0.2,0-0.4,0-0.6c-0.2-0.9-0.5-1.8-0.7-2.7c-0.1-0.4-0.3-0.7-0.6-0.9
	c0-0.1,0-0.2,0.1-0.3c0.1-0.1,0.2-0.1,0.4-0.2c0.5-0.2,1-0.3,1.5-0.4c0.3-0.1,0.7-0.1,1,0c0.5,0.1,0.9,0.4,1.1,0.9
	c0.3,0.5,0.5,1.1,0.5,1.6c0.1,0.4,0,0.8-0.1,1.1c-0.2,0.5-0.6,0.9-1.1,1.1c-0.5,0.2-1,0.4-1.6,0.6C33.6,14.8,33.4,14.8,33.3,14.8z
	 M34.8,13.6c0.2,0.1,0.3,0.1,0.3,0c0.1-0.1,0.1-0.2,0.2-0.4c0-0.2,0-0.5,0-0.7c-0.1-0.4-0.2-0.8-0.3-1.3c-0.1-0.5-0.3-1-0.7-1.3
	L34,9.9l-0.3,0.1c0,0.1,0.1,0.3,0.1,0.4c0.3,0.9,0.5,1.9,0.8,2.8C34.7,13.4,34.7,13.5,34.8,13.6z"/>
<path class="st0" d="M76,40.1l-0.1-0.2c0.1-0.5,0.3-1,0.7-1.3c0.3-0.3,0.6-0.6,0.9-0.9c0.1-0.1,0.2-0.2,0.2-0.4
	c0-0.1-0.2-0.2-0.3-0.1c0,0,0,0,0,0c-0.5,0.1-1.1,0.3-1.5,0.6c-0.1,0.1-0.2,0.1-0.3,0.1c-0.2-0.6-0.1-1.2-0.4-1.7
	c0.2-0.3,0.3-0.3,0.6-0.1c0.3,0,0.7,0,1-0.1l2.3-0.6c0.3,0,0.6-0.2,0.7-0.5c0-0.1,0.2-0.1,0.2-0.2c0.2,0.1,0.2,0.3,0.3,0.4
	c0.2,0.5,0.3,1.1,0.4,1.6c0.2,0.6,0.1,1.2-0.4,1.6c-0.5,0.4-1.2,0.5-1.8,0.3l-0.3-0.2c-0.4,0.3-0.7,0.5-1.1,0.8
	C76.8,39.7,76.4,40,76,40.1z M78.4,36.8c0.1,0.2,0.1,0.4,0.2,0.5c0.1,0.2,0.4,0.3,0.6,0.3c0.2,0,0.3-0.1,0.5-0.1
	c0.2,0,0.3-0.1,0.4-0.3c0-0.3,0-0.5-0.2-0.8C79.4,36.6,78.8,36.7,78.4,36.8L78.4,36.8z"/>
<path class="st0" d="M17,24c0.4,0.1,0.8,0.1,1.2,0.2s0.8,0,1.3,0.1c0.2,0,0.3,0.1,0.4,0.2c0,0.2-0.2,0.4-0.4,0.5
	c-0.3,0.1-0.7,0.2-1,0.2c-0.5,0-1,0.1-1.5,0.1c-0.2,0-0.4,0-0.5,0.3c0.2,0.3,0.6,0.4,0.8,0.6s0.7,0.2,1,0.4c-0.3,0.5-0.6,1-1,1.5
	c0,0-0.1,0-0.2,0c-0.1-0.5-0.4-0.9-0.8-1.1l-1.9-1.3c-0.2-0.2-0.5-0.3-0.7-0.4c-0.2,0-0.4,0.2-0.5-0.1l0.3-0.5
	c0.4-0.6,0.8-1.2,1.3-1.8c0.5-0.5,1.4-0.6,2,0c0.1,0.1,0.1,0.1,0.2,0.2c0.1,0.1,0.1,0.2,0.1,0.4C17,23.7,17,23.9,17,24z M14.5,24.1
	c0,0.2,0,0.3,0.2,0.4l0.8,0.6c0.1,0,0.2,0.1,0.3,0.1c0.4-0.5,0.4-0.8-0.1-1.1c-0.1-0.1-0.3-0.2-0.4-0.3c-0.1-0.1-0.3-0.1-0.5,0
	L14.5,24.1z"/>
<path class="st0" d="M65,14c-0.1,0.4-0.2,0.7-0.4,1.1h-0.4c-0.1-0.5-0.4-1-0.8-1.4c-0.1,0-0.1-0.1-0.2-0.1l-0.7,1.1
	c0.1,0.1,0.1,0.1,0.2,0.1c0.2,0.1,0.5,0.1,0.8,0c0.1,0,0.2,0,0.3,0c0,0.1,0,0.1,0,0.2c-0.2,0.5-0.4,0.9-0.7,1.4
	c-0.3,0-0.3,0-0.3-0.2c0-0.3-0.2-0.6-0.5-0.8l-0.1-0.1c0,0-0.1,0.1-0.1,0.1l-0.7,1.1c-0.1,0.1-0.1,0.3-0.1,0.5
	c0.2,0.1,0.4,0.2,0.6,0.3c0.4,0.1,0.8,0.1,1.2-0.1c0.2-0.1,0.3-0.1,0.5-0.1c0,0.1-0.1,0.3-0.2,0.4c-0.3,0.4-0.7,0.7-1.1,1
	c-0.5-0.3-1-0.6-1.6-1s-1-0.6-1.6-0.8c0-0.2,0.1-0.3,0.3-0.3c0.2,0,0.4-0.1,0.5-0.3c0.5-0.8,1.1-1.7,1.6-2.5
	c0.1-0.2,0.2-0.4,0.3-0.6c0-0.2-0.1-0.4,0-0.6c0.3-0.1,0.5,0,0.7,0.2l0.8,0.5l1.4,0.9C64.8,13.9,64.9,13.9,65,14z"/>
<path class="st0" d="M25.3,19.1c0-0.1-0.1-0.1-0.1-0.2c0-0.4-0.1-0.7-0.3-1c-0.4-0.6-0.9-1.3-1.3-1.9c-0.2-0.3-0.5-0.5-0.8-0.6
	l-0.3-0.1c0-0.2,0.1-0.2,0.2-0.3c0.5-0.3,1.1-0.7,1.6-1c0.5-0.3,1.1-0.3,1.6-0.2c0.3,0.1,0.6,0.3,0.8,0.6c0.5,0.4,0.8,1,0.9,1.6
	c0.2,0.6-0.1,1.3-0.6,1.8l-1.6,1.3C25.4,19.1,25.4,19.1,25.3,19.1z M24.3,14.7l2,2.9c0.3,0.1,0.4,0,0.4-0.2c0.1-0.3,0-0.6-0.2-0.9
	c-0.1-0.1-0.2-0.3-0.3-0.4c-0.3-0.4-0.5-0.8-0.8-1.2c-0.2-0.4-0.6-0.6-1-0.5L24.3,14.7z"/>
<path class="st0" d="M75.4,24.7c-0.3,0.3-0.7,0.6-1.1,0.9c0,0-0.1,0-0.2,0c0.1-0.4,0.2-0.8,0.1-1.3c0-0.2-0.1-0.5-0.2-0.7
	c-0.1-0.3-0.3-0.3-0.6-0.3c-0.1,0.2-0.1,0.5,0,0.7c0.1,0.3,0.2,0.5,0.2,0.7c0.2,0.5,0.2,1,0,1.5c-0.3,0.6-0.8,1.1-1.4,1.2l-0.3,0.1
	l-0.4-0.1c-0.5-0.1-0.9-0.4-1.1-0.9c-0.1-0.5-0.4-1-0.9-1.3c0-0.1,0-0.2,0-0.2c0.3-0.5,0.7-0.9,1.2-1.2c0,0,0.1,0,0.1,0
	c0,0,0.1,0,0.1,0.1c0,0.3,0,0.5-0.1,0.8c-0.1,0.6,0,1.2,0.3,1.7c0.1,0.1,0.2,0.3,0.3,0.4H72c0.4-0.2,0.5-0.7,0.4-1.1
	c-0.1-0.4-0.2-0.9-0.3-1.3c-0.1-0.3-0.1-0.7,0-1c0.2-0.6,0.7-1,1.4-1c0.4,0.1,0.8,0.3,1,0.7c0.2,0.2,0.3,0.4,0.4,0.6
	c0.2,0.2,0.3,0.5,0.4,0.7S75.4,24.6,75.4,24.7z"/>
<path class="st0" d="M12.7,43.5c-0.3,0-0.3-0.3-0.4-0.4c-0.1,0-0.2-0.1-0.4-0.1s-0.4-0.1-0.7-0.1L10,42.8l-1.3-0.1H8.3
	C8.1,42.8,7.9,43,7.6,43c0-0.5,0-1,0.2-1.4l2.4-1.4l-1.6-0.2c-0.3,0-0.4,0.3-0.6,0.2c0-0.1,0-0.2,0-0.2c0-0.3,0.1-0.6,0.1-0.9
	c0-0.2,0.1-0.3,0.3-0.3c0.2,0,0.2,0.3,0.4,0.4c1.4,0.3,2.9,0.5,4.4,0.8c-0.5,0.4-1.1,0.8-1.7,1.1c-0.6,0.3-1.1,0.7-1.8,1
	c0.9,0.2,1.9,0.3,2.8,0.3c0.1-0.1,0.1-0.2,0.2-0.2c0-0.1,0.1-0.1,0.3-0.1C13,42,13,42.1,13,42.2c0,0.3-0.1,0.7-0.1,1
	C12.8,43.3,12.8,43.4,12.7,43.5z"/>
<path class="st0" d="M70.5,19c1,0,1.8,0.8,1.8,1.8c0,0,0,0,0,0c0,0.4-0.2,0.8-0.4,1.1c-0.4,0.6-1,1.1-1.7,1.5
	c-0.3,0.2-0.7,0.3-1.1,0.3c-0.8,0-1.4-0.6-1.6-1.4c-0.1-0.5-0.1-1,0.2-1.5c0.5-0.9,1.3-1.7,2.3-2c0.1,0,0.2-0.1,0.3-0.1L70.5,19z
	 M68.6,22.9c0.2,0,0.4,0,0.5-0.1c0.2-0.1,0.3-0.2,0.4-0.4c0.5-0.5,0.9-0.9,1.4-1.4c0.2-0.2,0.3-0.5,0.4-0.7c0.1-0.2,0.1-0.4-0.1-0.5
	c0,0,0,0,0,0c-0.3,0-0.6,0-0.8,0.2c-0.7,0.5-1.4,1-2,1.6l-0.2,0.2c-0.2,0.3-0.2,0.7,0.1,0.9C68.5,22.8,68.6,22.9,68.6,22.9
	L68.6,22.9z"/>
<path class="st0" d="M29.7,11.1c0,0,0.1,0.1,0.1,0.1c0,0.4,0.2,0.7,0.5,0.9c0.4,0.5,0.9,1,1.3,1.5c0.1,0.1,0.3,0.3,0.4,0.4
	c0.2,0.3,0.5,0.5,0.8,0.7c0,0,0.1,0.1,0.1,0.1s-0.3,0.3-0.4,0.3c-0.4,0.3-0.9,0.4-1.4,0.5c0.1-0.4-0.1-0.8-0.5-1
	c-0.4,0.1-0.7,0.2-1.1,0.4c-0.2,0.2-0.1,0.4,0,0.7l0.5,0.4c0,0.2-0.1,0.3-0.2,0.3c-0.4,0.1-0.8,0.3-1.1,0.6c0,0-0.2,0-0.2,0
	c-0.1-0.1-0.1-0.3,0-0.4c0.1-0.2,0.2-0.4,0.1-0.6c0-0.7,0-1.3-0.1-2c-0.1-0.4-0.1-0.9-0.2-1.4c0-0.3-0.2-0.6-0.3-0.9
	C28.5,11.4,29.1,11.1,29.7,11.1z M29.2,14.5c0.3,0,0.7-0.1,0.9-0.3c-0.3-0.5-0.7-0.9-1.1-1.2L29.2,14.5z"/>
<path class="st0" d="M8.4,46.6c1.1,0,2.2,0,3.3,0c0.3,0,0.5-0.1,0.6-0.4c0-0.5,0-0.5-0.1-0.8c-0.2-0.1-0.4-0.2-0.7-0.2
	c-1-0.1-1.9-0.1-2.9-0.1H8.2l-0.5,0.3c-0.2-0.2-0.2-0.2-0.1-1.1L7.9,44l0.3,0.3l1.1,0.1l1.4,0.1c0.3,0,0.6,0,0.9,0.1
	s0.4,0.1,0.6,0.1c0.4,0.1,0.6,0.4,0.6,0.7c0.1,0.5,0.1,1,0,1.5c0,0.3-0.2,0.5-0.5,0.7c-0.3,0.2-0.7,0.2-1,0.3c-0.9,0-1.9,0-2.9,0.1
	c-0.2,0-0.3,0.1-0.5,0.2c-0.1,0.1-0.2,0.1-0.2,0.2c0-0.1-0.1-0.1-0.1-0.2c0-0.5-0.1-1-0.1-1.5c0-0.2,0.1-0.3,0.4-0.4L8.4,46.6z"/>
<path class="st0" d="M11.3,29.8l-0.3,0.1c-0.1-0.1-0.1-0.3,0-0.4c0.4-0.8,0.8-1.5,1.1-2.3c0.1-0.1,0.1-0.2,0.2-0.3
	c0.4,0,0.9,0.1,1.3,0.3c-0.3,0.4-0.7,0.3-1,0.5c-0.2,0.2-0.4,0.5-0.5,0.9l1.4,0.7c0.1-0.1,0.2-0.3,0.1-0.5c0-0.1-0.1-0.3-0.1-0.4
	c0-0.1,0-0.3,0.1-0.3c0.4,0.1,0.8,0.2,1.2,0.5c0.2,0.1,0.3,0.2,0.3,0.4C14.9,29,14.8,29,14.7,29c-0.4,0.1-0.5,0.1-0.6,0.6l1.5,0.8
	c0.3-0.4,0.2-0.8,0.2-1.2s-0.3-0.7-0.3-1.1l0.2-0.2c0.5,0.3,1,0.7,1.3,1.2c-0.3,0.5-0.5,1-0.8,1.5s-0.4,0.7-0.6,1.1
	c-0.1,0.1-0.1,0.3-0.3,0.3s-0.1,0-0.1,0c-0.2-0.3-0.5-0.6-0.8-0.8c-0.7-0.4-1.5-0.8-2.2-1.2C11.9,29.8,11.6,29.8,11.3,29.8z"/>
<path class="st0" d="M74.3,33.3c-0.1,0-0.3-0.2-0.3-0.3c0-0.1-0.1-0.3-0.1-0.4c0-0.2-0.1-0.3-0.2-0.4c-0.1-0.1-0.1-0.3-0.1-0.5
	c0.2-0.1,0.4-0.2,0.6-0.3c0.2-0.1,0.4-0.2,0.6-0.4c-0.1-0.5-0.3-0.9-0.5-1.3c-0.4,0-0.7,0.1-1,0.3c-0.1,0.1-0.3,0.2-0.5,0.3
	c-0.3-0.3-0.3-0.7-0.6-1c0.1-0.2,0.3-0.2,0.4-0.2c0.7,0.1,1.4,0.1,2.2-0.1c0.7-0.1,1.4-0.2,2.1-0.3l0.5-0.5c0,0,0.1,0,0.2,0
	c0.2,0.4,0.4,0.8,0.7,1.2c0.1,0.1,0.1,0.3,0.1,0.5c-0.2,0.2-0.4,0.2-0.6,0.2L77,30.7l-1.7,1.5c-0.2,0.2-0.4,0.4-0.6,0.5
	C74.6,32.9,74.5,33.1,74.3,33.3z M75.3,30.3c0.4-0.2,0.7-0.4,1-0.8c-0.4-0.2-0.8-0.1-1.2,0L75.3,30.3z"/>
<path class="st0" d="M19.6,19.5c-0.2,0.2-0.5,0.3-0.8,0.3c-0.5,0-0.9,0.1-1.3,0.3c-0.2,0.4-0.2,0.4-0.2,0.7c0.1,0.2,0.4,0.3,0.7,0.2
	l0.9-0.4c0.4-0.1,0.7-0.3,1.1-0.4c0.5-0.2,1,0,1.4,0.3c0.4,0.4,0.5,0.9,0.3,1.4c-0.1,0.4-0.3,0.7-0.5,1c-0.2,0.2-0.4,0.3-0.5,0.5
	s-0.4,0.5-0.6,0.8c-0.1,0-0.2,0-0.4,0l-0.8-0.3c-0.2,0-0.3-0.1-0.4-0.3c0-0.1,0.1-0.2,0.3-0.2l0.9-0.2c0.5-0.1,0.9-0.5,1.3-0.9
	C21,22,21,21.8,21,21.6c0-0.1-0.1-0.3-0.2-0.4c-0.4,0-0.7,0-1,0.2c-0.3,0.1-0.6,0.3-0.8,0.5c-0.4,0.2-0.9,0.3-1.4,0.2
	c-0.6-0.1-1.1-0.7-1-1.3c0-0.1,0-0.2,0.1-0.3c0.1-0.3,0.3-0.6,0.6-0.8c0.2-0.1,0.5-0.3,0.7-0.5l0.3-0.4c0.2,0,0.4,0,0.6,0.1
	C19.4,19.2,19.4,19.2,19.6,19.5z"/>
<path class="st0" d="M10,32.1c0-0.6,0.2-1.1,0.6-1.5c0.1,0,0.2,0.1,0.2,0.2c0.1,0.2,0.2,0.4,0.3,0.5c0.5,0.5,1.1,1,1.7,1.4l0.9,0.7
	c0.1,0.1,0.3,0.2,0.4,0.2h0.6c0.1,0.2,0,0.3,0,0.4c-0.2,0.4-0.2,0.9-0.6,1.3H14c-0.2-0.2-0.5-0.3-0.7-0.3H9.4l-0.4,0.2L8.9,35
	c0.1-0.6,0.3-1.1,0.6-1.6c0.1,0,0.1,0,0.1,0c0.3,0.2,0.7,0.3,1.1,0.3c0.5,0,1,0,1.5,0.1c0.1,0,0.2,0,0.3,0c0-0.2-0.1-0.3-0.2-0.4
	l-1.6-1.2C10.5,32,10.3,32,10,32.1z"/>
<path class="st0" d="M76.2,40.4c0.3,0.3,0.8,0.4,1.3,0.3c0.3-0.1,0.6-0.1,0.9-0.1s0.4-0.1,0.6-0.1c0.3-0.1,0.6-0.1,0.9-0.1
	c0.3,0,0.6-0.1,0.8-0.3c0,0,0.1,0,0.2-0.1L81,40c0.2,1,0.2,2.1,0.2,3.2c-0.3,0.2-0.7,0.2-1,0.3L80,43.4c0,0,0-0.1,0-0.1
	c0.1-0.1,0.1-0.2,0.2-0.3c0.3-0.2,0.4-0.6,0.4-1c0-0.2,0-0.4,0-0.5c-0.5-0.1-1-0.1-1.6,0c0,0.3,0,0.3,0.5,1
	c-0.1,0.1-0.2,0.1-0.3,0.1c-0.4,0-0.8,0.3-1.2,0.2c-0.1-0.2,0.1-0.3,0.2-0.4c0.2-0.2,0.4-0.5,0.3-0.8c-0.6,0-1.3,0-1.9,0.2
	c-0.1,0.2-0.1,0.3,0,0.5c0.2,0.5,0.5,1,1,1.3l0.2,0.1c0,0.2-0.1,0.2-0.2,0.2l-0.8-0.1l-0.4-0.1l-0.3-0.1v-0.8c0-0.5,0-0.9-0.1-1.4
	c0-0.2-0.1-0.4-0.1-0.6C75.9,40.6,76,40.5,76.2,40.4z"/>
<path class="st0" d="M80.5,44.5c0.6,0.4,1,1.1,0.8,1.8c-0.1,0.4-0.1,0.7-0.2,1.2c-0.1,0.1-0.1,0.1-0.2,0.2c-0.4,0.1-0.7,0.2-1.1,0.3
	c-0.2-0.1-0.1-0.2,0-0.3c0.1-0.1,0.2-0.2,0.3-0.3c0.4-0.3,0.7-0.7,0.7-1.2c0.1-0.3,0-0.5-0.3-0.7c-0.3-0.1-0.5,0.1-0.6,0.3
	c-0.1,0.2-0.1,0.4-0.2,0.5c-0.1,0.5-0.3,0.9-0.6,1.3c-0.3,0.4-0.7,0.7-1.2,0.7c-0.2,0-0.4,0-0.7,0c-0.7-0.1-1.2-0.7-1.3-1.4
	c0-0.3,0-0.7,0.1-1c0.1-0.3,0.1-0.7,0-1.1l1.8-0.4c0,0,0.1,0,0.1,0s-0.2,0.2-0.3,0.3l-0.6,0.5c-0.3,0.2-0.5,0.5-0.6,0.8
	c-0.2,0.4,0,0.9,0.3,1.1c0.3,0.2,0.7,0.2,1-0.2c0,0,0,0,0-0.1c0.1-0.2,0.2-0.4,0.3-0.6c0.2-0.5,0.4-1,0.7-1.4
	c0.2-0.3,0.5-0.6,0.9-0.6H80.5z"/>
<path class="st0" d="M20.3,17.6l-0.6-0.2c0.4-0.5,0.9-1,1.5-1.4c0.1,0,0.2,0.2,0.3,0.3c0.1,0.3,0.3,0.6,0.5,0.8
	c0.6,0.6,1.2,1.3,1.8,2c0.2,0.2,0.4,0.4,0.7,0.5c0.1,0,0.1,0,0.1,0.1c0.1,0.2,0,0.2-0.1,0.3L24,20.4c-0.2,0.1-0.3,0.3-0.5,0.4
	s-0.2,0.1-0.3,0.2S23,20.8,23,20.6c-0.1-0.3-0.2-0.6-0.4-0.9c-0.5-0.7-1.1-1.2-1.8-1.8L20.3,17.6z"/>
<path class="st0" d="M79.7,33.6l-0.1,0.2l-0.3-0.1h-0.1l-3.2,1.1c-0.2,0.1-0.5,0.2-0.6,0.4c-0.1,0.1-0.2,0.2-0.3,0.3
	c-0.1-0.1-0.2-0.2-0.2-0.3c-0.2-0.4-0.3-0.9-0.4-1.3c0.1-0.1,0.2-0.1,0.4-0.1c0.3,0,0.5-0.1,0.8-0.2c0.8-0.3,1.6-0.6,2.3-0.9
	c0.3-0.1,0.6-0.3,0.8-0.5C78.9,32,79,32,79.2,32L79.7,33.6z"/>
<path class="st0" d="M13.7,36.9l0.1,0.1c-0.3,0.5-0.2,1.2-0.5,1.7c-0.1,0.1-0.2,0-0.3-0.1c-0.2-0.3-0.5-0.4-0.9-0.5
	c-0.8-0.2-1.5-0.3-2.3-0.5c-0.3-0.1-0.6-0.1-0.9-0.2l-0.4,0.2c0-0.1-0.1-0.2-0.1-0.2c0.1-0.4,0.1-0.7,0.2-1.1c0-0.2,0.1-0.4,0.2-0.6
	c0.2-0.1,0.3-0.1,0.4,0c0.4,0.4,0.9,0.7,1.4,0.7c0.7,0.2,1.4,0.3,2.1,0.5c0.3,0,0.5,0,0.8-0.1C13.6,36.9,13.6,36.9,13.7,36.9z"/>
<path class="st0" d="M24.5,24.3c0.3-0.2,0.5-0.4,0.8-0.6c1-0.7,1.9-1.3,2.9-2c1-0.6,2.1-1.2,3.2-1.6c1.1-0.5,2.3-1,3.5-1.4
	c0.6-0.2,1.2-0.4,1.7-0.6l2.1-0.6l0.9-0.3c0.1,0,0.1,0.1,0,0.2c0,0,0,0,0,0c-0.1,0.1-0.2,0.2-0.3,0.2c-0.5,0.2-1,0.4-1.5,0.5
	c-1.5,0.4-2.9,0.8-4.3,1.4c-1.4,0.5-2.7,1.2-4,1.9c-1.6,0.8-3.1,1.7-4.6,2.7L24.5,24.3C24.5,24.3,24.5,24.3,24.5,24.3z"/>
<path class="st0" d="M32.8,28.8c-0.4,0.2-0.7,0.5-1.1,0.7c-0.6,0.3-1.2,0.7-1.8,1c-0.7,0.3-1.4,0.6-2.1,0.9c-0.8,0.3-1.6,0.6-2.4,1
	s-1.4,0.8-2.1,1.2c-1,0.6-1.9,1.2-2.8,1.7l-0.9,0.5c-0.1,0-0.1,0-0.2,0.1l0,0c0-0.1,0.1-0.1,0.1-0.2c1.3-0.8,2.5-1.6,3.8-2.4
	c1.7-1,3.4-2,5.2-2.8c0.5-0.2,1-0.5,1.6-0.6c0.9-0.3,1.8-0.7,2.6-1.1L32.8,28.8L32.8,28.8z"/>
<path class="st0" d="M31.3,28.4c0,0-0.1,0.1-0.1,0.1l-1.6,0.9c-0.2,0.1-0.5,0.3-0.7,0.4c-1.1,0.4-2.2,0.9-3.3,1.3
	c-1.2,0.6-2.4,1.2-3.6,1.9c-0.6,0.4-1.2,0.8-1.8,1.3c-0.3,0.2-0.6,0.4-0.9,0.6s-0.9,0.5-1.4,0.7l0,0c0.1-0.1,0.2-0.2,0.3-0.3
	c1.1-0.9,2.3-1.7,3.6-2.4c1.1-0.7,2.2-1.3,3.4-1.9c0.9-0.5,1.9-1,2.9-1.4s2-0.9,3-1.3C31.1,28.4,31.2,28.4,31.3,28.4L31.3,28.4z"/>
<path class="st0" d="M37.9,16.6c-0.1,0-0.2,0.1-0.3,0.1c-1.2,0.4-2.4,0.9-3.5,1.4s-2.2,1-3.3,1.6c-1.4,0.7-2.7,1.4-4,2.3
	c-0.9,0.6-1.8,1.2-2.6,1.8c0,0-0.1,0-0.1,0c0-0.1,0.1-0.1,0.1-0.2c0.4-0.4,0.8-0.7,1.3-1c1.2-0.8,2.4-1.6,3.7-2.3
	c0.8-0.4,1.5-0.9,2.3-1.3c1.3-0.6,2.6-1.2,3.9-1.7l2.3-0.8C37.7,16.5,37.8,16.5,37.9,16.6L37.9,16.6z"/>
<path class="st0" d="M50.3,14.9c0.6,0.5,1.3,0.9,2.1,1.1c0.2,0,0.4,0,0.5,0c0.2,0,0.4,0,0.5,0.2l-0.2,0.2l0.2,0.1l0.1,0.2
	c0.2,0.2,0.6,0.2,0.8,0.6c-0.1,0-0.2,0-0.2-0.1l-1-0.5l-0.2,0.2c-0.2,0-0.3-0.1-0.5-0.2c-0.6-0.3-1.1-0.6-1.5-1.1
	c-0.1-0.1-0.3-0.2-0.4-0.3l0.4,0.8c-0.1,0-0.1-0.1-0.2-0.1c-0.4-0.3-0.6-0.8-0.8-1.2c-0.1-0.3-0.2-0.5-0.4-0.7L49,13.7
	C49.6,13.6,50.3,14.2,50.3,14.9z"/>
<path class="st0" d="M36.9,22.8c-0.2,0.2-0.4,0.3-0.5,0.4c-0.7,0.5-1.5,0.9-2.3,1.3c-0.8,0.4-1.6,0.7-2.5,1
	c-1.1,0.4-2.1,0.8-3.2,1.3c-0.7,0.3-1.3,0.6-2,1c-0.4,0.2-0.8,0.4-1.1,0.6l0,0c0.2-0.1,0.3-0.2,0.5-0.4c1.2-0.6,2.3-1.2,3.5-1.8
	c0.8-0.4,1.5-0.7,2.3-1c1.2-0.5,2.4-1,3.5-1.5l1.4-0.7C36.6,22.9,36.7,22.9,36.9,22.8L36.9,22.8z"/>
<path class="st0" d="M55,17.1c0-0.4-0.1-0.8-0.3-1.2c-0.3-0.6-0.6-1.2-1-1.8c-0.1-0.1-0.2-0.2-0.3-0.3l-0.3-0.4l0,0
	c0.1,0,0.1,0.1,0.2,0.1c0.6,0.6,1.2,1.3,1.7,2c0.3,0.5,0.5,1,0.6,1.5c0.1,0.5-0.1,1-0.4,1.4L55,18.2c0-0.2,0-0.4-0.1-0.5
	c-0.3-0.6-0.7-1.2-1.1-1.7l-0.2-0.3l0.1-0.1c0.2,0.2,0.4,0.4,0.6,0.6C54.5,16.5,54.7,16.8,55,17.1C54.9,17.1,55,17.1,55,17.1v0.1
	l0,0V17.1z"/>
<path class="st0" d="M54.5,36.6C54.5,36.6,54.6,36.6,54.5,36.6c0.5,0.3,1,0.5,1.5,0.5c0.8,0.2,1.6-0.1,2.2-0.7
	c0.2-0.2,0.4-0.5,0.5-0.9c0-0.1,0.1-0.3,0.3-0.3s0.1,0.1,0.1,0.1c-0.1,0.6-0.3,1.1-0.7,1.6c-0.4,0.4-0.9,0.7-1.5,0.8
	c-0.7,0.1-1.4-0.2-1.9-0.6C54.8,36.9,54.6,36.8,54.5,36.6L54.5,36.6z"/>
<path class="st0" d="M50.6,10.1c0.1,0.5-0.2,0.9-0.6,1c0,0,0,0,0,0c-0.4,0-0.7-0.2-0.9-0.6c-0.1-0.4,0.1-0.8,0.4-0.9
	C49.9,9.5,50.3,9.7,50.6,10.1z"/>
<path class="st0" d="M38.2,11.4c-0.4,0-0.7-0.3-0.8-0.7c0,0,0,0,0,0c0-0.4,0.4-0.7,0.8-0.8c0.4,0,0.8,0.3,0.8,0.8
	C39,11.1,38.7,11.4,38.2,11.4C38.3,11.4,38.3,11.4,38.2,11.4z"/>
<path class="st0" d="M73.7,27.5c0-0.4,0.3-0.7,0.7-0.7c0,0,0,0,0,0c0.4,0,0.8,0.3,0.8,0.8c0,0.4-0.4,0.7-0.8,0.7
	c-0.4,0-0.7-0.2-0.8-0.6C73.7,27.6,73.7,27.6,73.7,27.5z"/>
<path class="st0" d="M27.1,26.5c0.1-0.1,0.2-0.1,0.3-0.2c1.3-0.7,2.6-1.3,3.9-1.9c1.5-0.7,3-1.3,4.6-1.9h0.2
	c-0.3,0.2-0.6,0.4-0.9,0.5c-1.3,0.5-2.6,1-3.9,1.5s-2.6,1.2-4,1.9C27.3,26.6,27.2,26.6,27.1,26.5L27.1,26.5z"/>
<path class="st0" d="M60.8,33.5c0-0.1,0.2-0.2,0.3-0.2c0,0,0,0,0,0c0.3,0.1,0.7,0.2,1,0.2c0.5,0.1,1,0.1,1.5,0.1
	c0.5-0.1,1-0.2,1.5-0.3c0.4-0.1,0.8-0.4,1.1-0.6c0.1-0.1,0.2-0.2,0.3-0.1c0,0.1-0.1,0.3-0.2,0.3c-0.4,0.4-0.8,0.6-1.3,0.7
	c-0.6,0.2-1.3,0.3-2,0.2c-0.7,0-1.4-0.2-2.1-0.4L60.8,33.5z"/>
<path class="st0" d="M32.9,37.2c-0.1,0.2-0.3,0.2-0.4,0.3c-0.4,0-0.8-0.1-1.1-0.1c-1,0-2,0-3.1,0c-0.2,0-0.4,0-0.6,0
	c0.1-0.2,0.3-0.3,0.5-0.3c0.4,0,0.9-0.1,1.3-0.1s0.9,0,1.4,0s1,0.1,1.6,0.1L32.9,37.2z"/>
<path class="st0" d="M65,32.2c-0.1,0.2-0.3,0.3-0.5,0.4c-0.3,0.1-0.5,0.3-0.8,0.4c-0.3,0.1-0.6,0.2-0.9,0.3h0.7
	c-1,0.2-2,0.1-2.9-0.2c0.1,0,0.1-0.1,0.2-0.1c0.1,0,0.2,0,0.3,0c0.2,0,0.5,0,0.7,0c0.7,0,1.5-0.2,2.2-0.4
	C64.3,32.5,64.6,32.4,65,32.2z"/>
<path class="st0" d="M58.8,47.7c0.3-0.1,0.5-0.1,0.8,0c0.6,0.1,1.2,0.4,1.8,0.7c0.4,0.3,0.6,0.7,0.8,1.1c0.1,0.2,0.1,0.4-0.1,0.5
	C61.4,48.7,60.2,47.9,58.8,47.7z"/>
<path class="st0" d="M59.3,41.7l-0.2,0.2c-0.2,0.3-0.3,0.7-0.2,1c0.1,0.7,0,1.4-0.3,2c-0.1,0.3-0.3,0.5-0.6,0.6
	c0.1-0.1,0.1-0.2,0.2-0.2c0.3-0.4,0.5-0.9,0.5-1.4c0-0.5,0-1.1-0.1-1.7c-0.4-0.4-0.9-0.7-1.4-0.8c0.6,0,1.2,0.2,1.7,0.5L59.3,41.7
	L59.3,41.7z"/>
<path class="st0" d="M48.3,18.2l-0.4,0.2c-0.3,0-0.5-0.1-0.7-0.3c-0.2-0.2-0.3-0.3-0.5-0.5v0.7c0.1,0.2,0.3,0.2,0.5,0.2
	c-0.2,0.2-0.2,0.2-0.6,0.1c-0.2-0.1-0.3-0.3-0.3-0.4c0-0.3-0.1-0.7-0.3-0.9c0.1-0.2,0.3-0.2,0.5-0.1c0.2,0.1,0.4,0.2,0.6,0.4
	c0.1,0.1,0.3,0.2,0.4,0.4C47.7,18,48,18.1,48.3,18.2z"/>
<path class="st0" d="M52.9,17.9c0.1,0.2,0.1,0.4-0.1,0.5c-1-0.3-1.8-1-2.4-1.8l0.2-0.1C51.2,17.2,52,17.7,52.9,17.9z"/>
<path class="st0" d="M45.6,37.8c-1.9,0.1-3.9,0-5.8-0.1c0.3,0,0.6-0.1,0.9-0.1c1,0,1.9,0,2.9,0C44.3,37.7,45,37.8,45.6,37.8z"/>
<path class="st0" d="M51.9,16.9c0.3,0.2,0.7,0.4,1.1,0.5c0.2,0,0.4,0.1,0.7,0.1c0.2,0,0.4,0.1,0.5,0.3L54,18
	c-0.4-0.1-0.8-0.2-1.1-0.3c-0.3-0.1-0.7-0.3-0.9-0.5C51.9,17.1,51.8,17.1,51.9,16.9z"/>
<path class="st0" d="M63,48.2l-0.3-0.5c-0.4-0.7-1-1.1-1.8-1.3h-0.1c0,0,0,0,0-0.1c0-0.1,0.1-0.1,0.2-0.1c0.4,0,0.8,0.1,1.1,0.4
	C62.6,46.9,63,47.6,63,48.2L63,48.2z"/>
<path class="st0" d="M50.2,16.5L50,16.7c-1-0.6-1.7-1.4-2.3-2.3c0.1,0,0.1,0.1,0.2,0.1c0.4,0.4,0.8,0.9,1.3,1.3
	c0.3,0.2,0.5,0.4,0.8,0.7L50.2,16.5z"/>
<path class="st0" d="M57,35.5h-0.5l-0.2-0.2v-0.3c0.1-0.3,0.5-0.4,0.8-0.3l0.2,0.2v0.4L57,35.5z"/>
<path class="st0" d="M55.8,46.7c0.1-0.2,0.3-0.3,0.5-0.4c0.2,0.1,0.4,0.1,0.6,0c0.5-0.2,1.1-0.2,1.6-0.2c0.3,0,0.7,0,1.1,0
	c-0.1,0.1-0.3,0.2-0.4,0.2c-0.8,0-1.5,0.1-2.2,0.3c-0.1,0-0.2,0-0.3,0C56.3,46.5,56.1,46.6,55.8,46.7z"/>
<path class="st0" d="M19.8,31.2c0.3-0.2,0.5-0.4,0.7-0.6c1-0.7,2-1.4,3-2c0.1,0,0.1-0.1,0.2-0.1l0,0l-0.5,0.4
	c-0.9,0.6-1.8,1.3-2.7,1.9C20.3,31,20,31.1,19.8,31.2L19.8,31.2z"/>
<path class="st0" d="M62.2,51.3c0.3-0.3,0.5-0.7,0.5-1.1c0-0.2,0-0.3,0-0.5s0-0.3,0-0.4l0.2-0.1c0,0,0.1,0,0.1,0
	C63.2,50,62.9,50.8,62.2,51.3C62.3,51.3,62.2,51.3,62.2,51.3L62.2,51.3z"/>
<path class="st0" d="M51.8,18.3h-0.5c-0.5-0.2-0.9-0.7-1.2-1.2C50.7,17.5,51.2,17.9,51.8,18.3L51.8,18.3z"/>
<path class="st0" d="M54.8,20.5c0,0,0-0.1,0.1-0.1c0.4-0.2,0.6-0.6,0.5-1c0-0.2,0-0.4,0.2-0.5h0.1l0.1,0.1c0,0.5-0.2,1-0.5,1.3
	C55.2,20.4,55,20.5,54.8,20.5L54.8,20.5z"/>
<path class="st0" d="M53.7,36.7c-0.5,0-1-0.7-1.1-1.3l0.3-0.2C53,35.8,53.3,36.3,53.7,36.7z"/>
<path class="st0" d="M56.6,17c-0.1,0.5-0.2,1-0.5,1.5H56c0-0.4,0.1-0.8,0.3-1.2C56.3,17.1,56.3,17,56.6,17z"/>
<path class="st0" d="M44.9,30.9c0.8,0,1.7,0.4,2.2,1c-0.4-0.2-0.8-0.4-1.1-0.5L44.9,30.9z"/>
<path class="st0" d="M67.8,55.8l0.5-0.5c0.3-0.4,0.5-0.8,0.6-1.2c0-0.2,0.1-0.3,0.3-0.3c0,0.1,0,0.2,0,0.3c-0.2,0.7-0.6,1.3-1.2,1.8
	C67.9,55.7,67.8,55.7,67.8,55.8L67.8,55.8z"/>
<path class="st0" d="M54.9,21.7l0.2-0.3h0.4l0.3,0.6l-0.1,0.2L54.9,21.7z"/>
<path class="st0" d="M61.9,52.1l0.3-0.2c0.1,0.3,0.1,0.6-0.1,0.8c-0.1,0.2-0.3,0.3-0.5,0.2C61.9,52.7,62,52.4,61.9,52.1z"/>
<path class="st0" d="M51.9,15.4c0.1,0,0.2,0,0.3-0.1c0.4-0.2,0.5-0.1,0.7,0.3c0,0.1-0.1,0.1-0.2,0.1c-0.2-0.1-0.4-0.1-0.5,0
	c-0.1,0-0.3,0.1-0.4-0.1L51.9,15.4L51.9,15.4z"/>
<path class="st0" d="M50.7,26.8l0.3-0.2c0.3,0.1,0.2,0.4,0.3,0.6c0,0.1-0.1,0.1-0.2,0.1C50.9,27.2,50.8,27,50.7,26.8z"/>
<path class="st0" d="M55.1,40.7c0,0.1-0.1,0.2-0.2,0.1c-0.5,0-1,0.1-1.5,0.2l0,0C53.9,40.7,54.5,40.6,55.1,40.7z"/>
<path class="st0" d="M52,14.1c-0.4,0.4-0.9,0.3-1.4,0.2c0.1-0.2,0.3-0.2,0.4-0.2L52,14.1z"/>
<path class="st0" d="M51.9,15.4c-0.1,0-0.1,0-0.2,0c0,0,0,0-0.1-0.1l0.1-0.2l0.5-0.3h0.2C52.2,15,52.1,15.2,51.9,15.4L51.9,15.4z"/>
<path class="st0" d="M19.4,32c0.2-0.1,0.4-0.3,0.6-0.4s0.7-0.4,1-0.6L21,31C20.5,31.4,20,31.7,19.4,32L19.4,32z"/>
<path class="st0" d="M55,25.7L54.7,26c-0.4,0-0.4,0-0.7-0.3C54.4,25.6,54.7,25.6,55,25.7z"/>
<path class="st0" d="M51.3,13.9L50.9,14c-0.2-0.1-0.5,0-0.7-0.3l0.2-0.1L51.3,13.9z"/>
<path class="st0" d="M53.1,42.3c0,0.2-0.1,0.2-0.3,0.3c-0.2,0-0.3-0.2-0.3-0.4c0.1,0,0.1-0.1,0.2-0.1S53,42.1,53.1,42.3z"/>
<path class="st0" d="M73.7,48.7L73.7,48.7l0.6,0.6c-0.2,0-0.4-0.1-0.6-0.3C73.7,48.9,73.6,48.8,73.7,48.7z"/>
<path class="st0" d="M26.5,26.9c0.2-0.2,0.4-0.3,0.7-0.4l0,0L26.5,26.9L26.5,26.9z"/>
<path class="st0" d="M37.9,16.6c0.1-0.1,0.3-0.2,0.5-0.1L37.9,16.6L37.9,16.6z"/>
<path class="st0" d="M24.3,21.2c-0.1,0.2-0.2,0.3-0.4,0.3l0,0C24.1,21.4,24.2,21.2,24.3,21.2L24.3,21.2z"/>
<path class="st0" d="M25.2,28.4l-0.4,0.2l0,0C24.9,28.5,25.1,28.4,25.2,28.4L25.2,28.4z"/>
<path class="st0" d="M26.2,27.1c-0.1,0.1-0.2,0.2-0.4,0.2l0,0C25.9,27.2,26,27.1,26.2,27.1L26.2,27.1z"/>
<path class="st0" d="M33.2,28.6c-0.1,0.2-0.2,0.2-0.3,0.3l0,0L33.2,28.6L33.2,28.6z"/>
<path class="st0" d="M24,28.4l0.4-0.2l0,0C24.3,28.3,24.2,28.3,24,28.4L24,28.4z"/>
<path class="st0" d="M24.2,24.5l0.3-0.2l0,0L24.2,24.5L24.2,24.5z"/>
<path class="st0" d="M59.4,41.6l0.2-0.1l0,0L59.4,41.6L59.4,41.6z"/>
<path class="st0" d="M24,24.7c0-0.1,0.1-0.2,0.2-0.1l0,0L24,24.7z"/>
<path class="st0" d="M21.2,30.8l0.2-0.1l0,0L21.2,30.8L21.2,30.8z"/>
<path class="st0" d="M23.7,24.9c0-0.1,0.2-0.2,0.3-0.1l0,0C24,24.8,23.9,24.9,23.7,24.9L23.7,24.9z"/>
<path class="st0" d="M23.8,28.5l0.2-0.1l0,0L23.8,28.5z"/>
<path class="st0" d="M21.8,30.5c0-0.1,0.1-0.2,0.2-0.2l0,0C22,30.4,21.9,30.5,21.8,30.5z"/>
<path class="st0" d="M22.2,30.1c0,0.1-0.1,0.2-0.2,0.1l0,0C22,30.2,22.1,30.1,22.2,30.1L22.2,30.1z"/>
<path class="st0" d="M24.6,28c0,0.1-0.1,0.2-0.2,0.1l0,0L24.6,28L24.6,28z"/>
<path class="st0" d="M25.1,27.7c0,0.1-0.1,0.2-0.2,0.1l0,0C24.9,27.7,25,27.7,25.1,27.7z"/>
<path class="st0" d="M25.3,27.6c0-0.1,0.1-0.2,0.2-0.1l0,0C25.5,27.6,25.4,27.6,25.3,27.6L25.3,27.6z"/>
<path class="st0" d="M21.4,30.7l0.2-0.1l0,0C21.6,30.6,21.5,30.7,21.4,30.7L21.4,30.7z"/>
<path class="st0" d="M21.2,30.8L21,31v0L21.2,30.8L21.2,30.8z"/>
<path class="st0" d="M44.6,24.8l-0.2,0.1v-0.1L44.6,24.8L44.6,24.8z"/>
<path class="st0" d="M26.5,27l-0.1,0.1l0,0L26.5,27L26.5,27z"/>
<path class="st0" d="M26.2,27.1l0.1-0.1l0,0L26.2,27.1L26.2,27.1z"/>
<path class="st0" d="M17.9,35.7l-0.1,0.1l0,0L17.9,35.7L17.9,35.7z"/>
<path class="st0" d="M63,48.2L63,48.2L63,48.2L63,48.2L63,48.2z"/>
<path class="st0" d="M19.2,36L19.2,36L19.2,36L19.2,36L19.2,36z"/>
<path class="st0" d="M47.3,23.8h-0.2H47.3C47.3,23.8,47.3,23.8,47.3,23.8L47.3,23.8z"/>
<path class="st0" d="M21.6,30.5l0.1-0.1l0,0L21.6,30.5L21.6,30.5z"/>
<path class="st0" d="M19.4,32l-0.2,0.1l0,0L19.4,32L19.4,32z"/>
<path class="st0" d="M22.4,30.1l-0.1,0.1l0,0L22.4,30.1L22.4,30.1z"/>
<path class="st0" d="M24.6,28l0.1-0.1l0,0L24.6,28z"/>
<path class="st0" d="M24.3,28.9l0.1-0.1l0,0L24.3,28.9z"/>
<path class="st0" d="M24.9,27.8l-0.1,0.1l0,0L24.9,27.8z"/>
<path class="st0" d="M25.1,27.7l0.1-0.1l0,0L25.1,27.7L25.1,27.7z"/>
<path class="st0" d="M24.5,28.7l0.1-0.1l0,0L24.5,28.7z"/>
<path class="st0" d="M25.5,27.5l0.1-0.1l0,0L25.5,27.5L25.5,27.5z"/>
<path class="st0" d="M24.8,28.6l-0.1,0.1l0,0L24.8,28.6L24.8,28.6z"/>
<path class="st0" d="M33.2,28.6L33.2,28.6L33.2,28.6L33.2,28.6L33.2,28.6z"/>
<path class="st0" d="M25.8,27.3l-0.1,0.1l0,0L25.8,27.3L25.8,27.3z"/>
<path class="st0" d="M61.2,53.4"/>
<path class="st0" d="M67.8,55.8L67.8,55.8L67.8,55.8z"/>
<path class="st0" d="M19.9,31.2L19.9,31.2L19.9,31.2L19.9,31.2L19.9,31.2z"/>
<path class="st0" d="M51.9,38.3L51.9,38.3L51.9,38.3z"/>
<path class="st0" d="M65,32.2L65,32.2L65,32.2z"/>
<path class="st0" d="M49.5,16.9L49.5,16.9L49.5,16.9z"/>
<path class="st0" d="M59.4,41.6L59.4,41.6L59.4,41.6L59.4,41.6L59.4,41.6z"/>
<path class="st0" d="M31.3,28.4L31.3,28.4L31.3,28.4z"/>
<path class="st0" d="M61.8,18.9L61.8,18.9L61.8,18.9z"/>
<path class="st0" d="M61.8,18.9L61.8,18.9L61.8,18.9L61.8,18.9L61.8,18.9z"/>
<path class="st0" d="M46.7,20L46.7,20L46.7,20z"/>
<path class="st0" d="M54.8,20.5L54.8,20.5L54.8,20.5z"/>
<path class="st0" d="M57.2,20.7L57.2,20.7L57.2,20.7L57.2,20.7z"/>
<path class="st0" d="M24.3,21.2L24.3,21.2L24.3,21.2z"/>
<path class="st0" d="M23.9,21.5L23.9,21.5L23.9,21.5L23.9,21.5L23.9,21.5z"/>
<path class="st0" d="M19.2,32.1L19.2,32.1L19.2,32.1z"/>
<path class="st0" d="M24.3,28.9L24.3,28.9L24.3,28.9z"/>
<path class="st0" d="M36.9,22.8L36.9,22.8L36.9,22.8z"/>
<path class="st0" d="M22.4,30.1L22.4,30.1L22.4,30.1z"/>
<path class="st0" d="M24.5,28.8L24.5,28.8L24.5,28.8L24.5,28.8z"/>
<path class="st0" d="M23.7,24.9L23.7,24.9z"/>
<path class="st0" d="M62.2,51.3L62.2,51.3L62.2,51.3z"/>
<path class="st0" d="M54.5,36.6L54.5,36.6L54.5,36.6z"/>
<path class="st0" d="M74.7,47.7L74.7,47.7L74.7,47.7L74.7,47.7z"/>
<polygon class="st0" points="24.1,29 24.1,29 24.1,29 "/>
<path class="st0" d="M31.2,79.1c-0.4-0.1-0.8-0.4-1.1-0.6c0-0.1,0.1-0.2,0.1-0.3l1.5-3c0.2-0.3,0.2-0.6,0.2-0.9c0-0.1,0-0.2,0-0.3
	c0.1,0,0.3,0,0.4,0l1.4,0.6c0.4,0.2,0.7,0.6,0.7,1.1c0,0.6-0.3,1.1-0.7,1.4l-0.3,0.2c0.1,0.4,0.1,0.8,0.2,1.2c0,0.2,0.1,0.3,0.1,0.5
	c0.1,0.2,0.3,0.4,0.6,0.4c0.1-0.1,0.1-0.2,0.2-0.3c0.3-0.9,0.7-1.8,1-2.7c0-0.1,0.1-0.3,0.1-0.4c-0.2-0.2-0.4,0.1-0.7,0l-0.2-0.2
	c0-0.3,0.2-0.5,0.4-0.7c0.2-0.1,0.5,0,0.7,0.1c0.4,0.2,0.8,0.3,1.2,0.4c0.1,0,0.2,0.1,0.3,0.2v0.5c-0.1,0.1-0.3,0.1-0.4,0
	c0,0,0,0,0,0c-0.1-0.1-0.3-0.1-0.4,0l-0.7,1.9c-0.2,0.4-0.3,0.8-0.5,1.2c-0.1,0.4-0.6,0.7-1,0.7c-0.2,0-0.4,0-0.7-0.1
	c-0.5-0.1-0.8-0.5-0.9-1c0-0.3-0.1-0.5-0.1-0.8c0-0.2-0.1-0.4-0.1-0.6c-0.1-0.2-0.3-0.4-0.6-0.5c-0.1,0.3-0.3,0.7-0.5,1
	C31.5,78.4,31.3,78.7,31.2,79.1z M33,74.8c-0.3,0.5-0.5,1-0.7,1.5c0,0.1,0,0.2,0,0.3h0.8c0.3-0.4,0.5-0.9,0.4-1.4L33,74.8z"/>
<path class="st0" d="M22,73.8c0-0.2,0-0.4,0.1-0.7c0.2-0.7,0.4-1.4,0.5-2.2c0-0.1,0-0.2,0-0.3c-0.5,0.4-0.9,0.9-1.3,1.3
	c-0.1,0.2-0.2,0.3-0.3,0.5l-0.2,0.3c-0.3-0.2-0.5-0.4-0.8-0.7c0-0.2,0.1-0.4,0.3-0.5L23,69l0.5-0.4c0.4,0,0.6,0.3,0.6,0.7
	c0,0,0,0.1,0,0.1c-0.2,0.8-0.4,1.6-0.6,2.4l0.1,0.2c0.1,0,0.1-0.1,0.2-0.1c0.5-0.4,1.1-0.7,1.6-1.1c0.2-0.2,0.5-0.3,0.8-0.2
	c0.3,0.2,0.4,0.4,0.3,0.8l-1.6,4.2c0,0.1-0.1,0.1-0.1,0.2c-0.4-0.1-0.7-0.3-0.9-0.6l0.5-1.1c0.2-0.4,0.4-0.9,0.6-1.3
	c0-0.1,0.1-0.3,0.1-0.4c-0.1,0-0.2,0.1-0.2,0.1c-0.7,0.5-1.5,1-2.2,1.5c-0.1,0-0.1,0.1-0.2,0.1S22.1,73.9,22,73.8z"/>
<path class="st0" d="M16.6,64.3c0,0.2,0,0.4,0,0.6c-0.1,0.3-0.2,0.6-0.4,0.8c-0.2,0.4-0.4,0.8-0.6,1.2c-0.1,0.1-0.1,0.1-0.2,0.2
	c-0.3-0.2-0.4-0.5-0.5-0.8c0-0.1,0-0.2,0.1-0.3c0.1-0.3,0.3-0.5,0.5-0.8l0.3-0.5c0.2-0.3,0.1-0.6-0.1-0.8c-0.1-0.1-0.1-0.1-0.2-0.2
	c-0.3,0.3-0.6,0.6-0.8,0.9c-0.2,0.3-0.3,0.7-0.5,1.1c-0.3-0.4-0.5-0.8-0.7-1.2c0.2-0.3,0.6-0.4,0.7-0.8c-0.2-0.5-0.4-1-0.7-1.5
	c-0.4-0.2-0.9-0.1-1.3,0.2L11.6,61c0.1-0.1,0.2-0.1,0.3-0.1c0,0,0,0,0.1,0.1c0.3,0.2,0.7,0.2,1,0.1c0.1,0,0.2,0,0.3,0l2-0.2
	c0.3,0,0.7-0.1,1-0.2c0.2,0,0.5-0.1,0.7-0.3c0.1,0,0.1-0.1,0.2-0.1c0,0,0.1,0.1,0.1,0.2l0.9,1.4c0.2,0.3,0.3,0.6,0.4,1
	c0.1,0.7-0.4,1.2-1.1,1.3c0,0,0,0,0,0L16.6,64.3z M17.1,61.6c-0.2,0.2-0.5,0.5-0.6,0.7c-0.2,0.2-0.4,0.5-0.6,0.8
	c0.2,0.2,0.5,0.4,0.8,0.3c0.5-0.2,0.8-0.7,0.8-1.2c0,0,0-0.1,0-0.1C17.4,62,17.3,61.8,17.1,61.6z M15.7,61.8c-0.5,0-1,0-1.4,0.2
	l0.5,1C15.2,62.6,15.5,62.2,15.7,61.8z"/>
<path class="st0" d="M17.3,68.7c0.7-0.1,0.9-0.5,1-1c0.2,0,0.4,0.1,0.5,0.3l0.8,1c0.1,0,0.1,0,0.1,0l1.5-1.4c0-0.2-0.2-0.4-0.4-0.5
	c-0.1,0-0.2-0.1-0.3-0.2c0.1-0.3,0.3-0.4,0.5-0.6c0.1,0,0.1-0.1,0.2-0.1l1.8,1.7c0.1,0.1,0.2,0.2,0.2,0.3l-0.7,0.7
	c-0.3-0.1-0.2-0.5-0.4-0.7c-0.4,0.2-0.5,0.5-0.8,0.7c-0.3,0.2-0.6,0.5-0.8,0.7c-0.3,0.2-0.5,0.5-0.7,0.8s-0.5,0.6-0.7,0.8
	c-0.1,0-0.2-0.1-0.3-0.1c-0.2-0.3-0.6-0.5-0.7-0.8c0-0.1,0.1-0.2,0.2-0.2c0.4-0.1,0.7-0.4,0.9-0.8l-0.3-0.4c0,0-0.1,0-0.1,0
	c-0.3,0.4-0.8,0.6-1.2,0.4c-0.7-0.1-1.2-0.6-1.4-1.3c-0.1-0.3-0.1-0.6,0-0.8c0.2-0.6,0.6-1.2,1.1-1.6c0.3-0.2,0.5-0.4,0.8-0.6
	c0.2-0.1,0.5-0.3,0.8-0.3c0.2-0.1,0.4-0.1,0.6,0c0.3,0.1,0.5,0.2,0.8,0.5c0.3,0.3,0.3,0.7,0.1,1.1c-0.1,0.2-0.3,0.4-0.5,0.5
	l-0.4-0.4c0.1-0.3,0.5-0.5,0.1-0.9c-0.2-0.1-0.4,0-0.6,0.2l-1.8,1.7c-0.1,0.1-0.3,0.3-0.4,0.4c-0.2,0.2-0.1,0.5,0,0.6c0,0,0,0,0.1,0
	C17,68.5,17.2,68.6,17.3,68.7z"/>
<path class="st0" d="M74.6,63.1c-0.1-0.1-0.1-0.2-0.2-0.3c-0.6-0.6-1.1-1.2-1.7-1.7c-0.1-0.1-0.2-0.2-0.3-0.4
	c-0.2-0.2-0.1-0.6,0.1-0.8c0,0,0.1,0,0.1-0.1l0.1,0c0.5,0.2,1,0.3,1.5,0.4c-0.1-0.1-0.1-0.2-0.2-0.3c-0.2-0.3-0.5-0.5-0.7-0.7
	c-0.2-0.1-0.3-0.3-0.3-0.5l0.2-0.3c0.2-0.1,0.4-0.1,0.6,0c0.5,0.2,1,0.3,1.6,0.4c0.7,0.2,1.3,0.3,2,0.5c0.2,0,0.5,0.1,0.7,0.2
	c0,0.4-0.1,0.7-0.4,1c-0.2,0-0.3-0.1-0.3-0.2c-0.1-0.2-0.3-0.3-0.5-0.3c-0.7-0.2-1.3-0.4-2-0.5c-0.1,0-0.2,0-0.3,0l1.3,1.3
	c0.1,0.1,0.2,0.2,0.2,0.4s-0.4,0.1-0.6,0l-1.3-0.4l-0.4-0.1c0.8,1,1.6,1.8,2.3,2.6c0.1,0.3,0,0.6-0.3,0.7l-0.3,0.1l-0.4-0.1
	l-3.6-1.3c-0.2,0-0.4-0.2-0.5-0.4c0-0.3,0.2-0.5,0.5-0.7c0.1,0,0.2,0.1,0.3,0.1c0.5,0.3,1.1,0.5,1.6,0.7c0.3,0.2,0.7,0.3,1.1,0.4
	C74.5,62.9,74.5,63,74.6,63.1L74.6,63.1L74.6,63.1z"/>
<path class="st0" d="M52.5,75.7c0.1,0,0.1-0.1,0.2-0.1c0.4,0,0.7-0.3,1-0.3c0,0,0,0.1,0,0.1c0,0.5,0.1,0.9,0.4,1.3
	c0.4,0.6,0.7,1.1,1.1,1.7c0.1-0.2,0.2-0.5,0.1-0.7c0-0.2,0-0.3,0-0.5c0-0.5,0-1-0.1-1.5c0-0.2,0-0.5-0.1-0.7c0-0.1,0-0.3,0.1-0.4
	c0.4-0.1,0.8-0.2,1.1-0.3c0.3-0.1,0.6-0.1,0.9,0c0.3,0.1,0.5,0.3,0.5,0.6c0.2,0.5,0.1,1.1-0.3,1.5l-0.2,0.2c0.4,0.3,0.8,0.6,1.1,1
	c0.2,0.2,0.4,0.3,0.6,0.5c0.1,0.1,0.2,0.1,0.3,0.2c-0.2,0.3-0.2,0.3-0.6,0.4c-0.5-0.1-0.9-0.3-1.1-0.7c-0.2-0.3-0.5-0.6-0.7-0.8
	s-0.3-0.2-0.6-0.2c0,0.1,0,0.3,0,0.4c0,0.6,0,1.2,0,1.8c0,0.2-0.1,0.4-0.2,0.5c-0.2,0.2-0.6,0.2-0.8,0c0,0-0.1-0.1-0.1-0.1
	c-0.3-0.5-0.6-1-0.9-1.5s-0.6-1-0.9-1.4c-0.2-0.2-0.3-0.4-0.5-0.6C52.7,76,52.6,75.8,52.5,75.7z M56.9,75c-0.2-0.2-0.4-0.3-0.7-0.1
	c0,0.6,0,1.1,0.1,1.7c0.4-0.1,0.7-0.5,0.8-0.9L56.9,75z"/>
<path class="st0" d="M71.6,69.8h-0.3c-0.2-0.2-0.2-0.6-0.4-1c-0.5-0.6-1.2-1.2-1.8-1.8c-0.2-0.2-0.5-0.4-0.7-0.5l-0.1-0.1
	c-0.1-0.1-0.2-0.3-0.1-0.4c0,0,0.1-0.1,0.1-0.1c0.1-0.1,0.3-0.3,0.4-0.4c0.2-0.3,0.6-0.6,1-0.6c0.4-0.1,0.9,0,1.3,0.2
	c0.6,0.4,1.2,0.8,1.7,1.4l0.2,0.2c0.4,0.5,0.4,1.3,0,1.8c-0.3,0.3-0.5,0.6-0.8,0.9C71.9,69.5,71.8,69.6,71.6,69.8z M71.9,68.4
	c0.4-0.3,0.4-0.9,0.1-1.3c-0.3-0.4-0.7-0.8-1.2-1.1c-0.3-0.2-0.5-0.3-0.8-0.5c-0.2-0.1-0.5-0.1-0.7,0.2c0,0,0,0,0,0V66L71.9,68.4z"
	/>
<path class="st0" d="M27.1,71.5c0.3,0,0.6,0.1,0.8,0.3c0.1,0.2,0.1,0.4,0,0.6c-0.1,0.3-0.2,0.7-0.3,1s-0.2,0.7-0.4,1.1
	c0.1,0,0.2,0,0.2-0.1c0.4-0.3,0.8-0.7,1.1-1c0.1-0.1,0.2-0.3,0.3-0.4c0.1-0.2,0.2-0.3,0.4-0.4c0.3,0.1,0.6,0.2,0.9,0.4v0.3l-3.4,3.4
	h-0.5c-0.1-0.1-0.2-0.1-0.4-0.2l-0.3-0.2c0.4-1.5,0.9-3,1.3-4.5C27,71.7,27.1,71.6,27.1,71.5z"/>
<path class="st0" d="M62,75.9c0-0.2-0.1-0.5,0.2-0.7c0.2,0,0.4,0,0.6,0.1H63c0.5,0.1,1,0,1-0.7c0-0.1,0-0.1,0-0.2
	c-0.2-0.2-0.4-0.4-0.7-0.3c-0.4,0-0.8,0-1.1-0.2c-0.2-0.1-0.4-0.1-0.6-0.3c-0.2-0.1-0.3-0.3-0.4-0.6c-0.1-0.3-0.1-0.7,0-1
	c0.4-0.7,1.2-1,2-0.8c0.3,0.1,0.5,0.4,0.6,0.7c0.1,0.3,0,0.5-0.4,0.7c-0.4,0-0.2-0.5-0.5-0.6s-0.5,0.2-0.8,0.3l-0.1,0.4
	c0.2,0.2,0.5,0.4,0.8,0.4c0.5,0,1,0.1,1.4,0.3c0.8,0.3,1.1,1.2,0.8,2c0,0.1-0.1,0.2-0.2,0.3c-0.2,0.2-0.5,0.4-0.8,0.5
	c-0.5,0.2-1,0.2-1.4,0C62.3,76.2,62.1,76.1,62,75.9z"/>
<path class="st0" d="M60.4,73l-0.1,0.3l-0.7,0.1c0.1,0.1,0.1,0.2,0.1,0.3c0.4,0.8,0.8,1.6,1.2,2.4c0.1,0.4,0.4,0.7,0.7,1v0.3
	c0,0,0,0.1-0.1,0.1l-1.4,0.7c-0.2,0.1-0.4,0.1-0.5,0l-0.1-0.3c0-0.2,0.2-0.4,0.4-0.4c0.2,0,0.3-0.1,0.5-0.2c0-0.6-0.4-0.9-0.6-1.4
	L59,76.3c-0.1,0-0.2-0.1-0.3-0.2c-0.2-0.1-0.2-0.4-0.1-0.5c0,0,0.1-0.1,0.1-0.1c0.2-0.2,0.4-0.3,0.6-0.4c-0.2-0.4-0.4-0.8-0.6-1.3
	c-0.3,0-0.4,0.2-0.5,0.4s-0.1,0.3-0.3,0.4c-0.2-0.2-0.4-0.5-0.4-0.8c0.1-0.1,0.2-0.1,0.3-0.2l1.7-0.8c0.1,0,0.2-0.1,0.2-0.2h0.3
	L60.4,73z"/>
<path class="st0" d="M39.2,80.9v-0.4c0.2-0.2,0.3-0.6,0.6-0.7c0.2,0.1,0.3,0.2,0.4,0.4c0.1,0.3,0.3,0.4,0.6,0.5
	c0.3,0.1,0.6,0,0.7-0.3c0-0.3,0-0.6-0.2-0.9c-0.2-0.3-0.3-0.5-0.5-0.8c-0.1-0.3-0.2-0.6-0.2-0.8c0-0.4,0.3-0.8,0.7-0.8
	c0.3-0.1,0.7,0,1,0.1c0.2,0,0.3,0.2,0.4,0.4l-0.3,0.5l-0.7-0.4L41.4,78c0.1,0.3,0.4,0.7,0.6,0.9c0.2,0.2,0.4,0.4,0.5,0.6
	c0.2,0.4,0.2,0.8,0,1.2c-0.1,0.3-0.3,0.5-0.6,0.7c-0.2,0.1-0.4,0.2-0.6,0.2c-0.6,0-1.2-0.1-1.7-0.4C39.5,81.1,39.4,81,39.2,80.9z"/>
<path class="st0" d="M67.4,67.7c-0.2,0-0.4-0.1-0.4-0.3c0.1-0.2,0.2-0.4,0.4-0.6c0.1-0.1,0.3-0.2,0.4-0.3c0.1-0.1,0.1-0.1,0.2-0.2
	c0.1,0.1,0.2,0.2,0.2,0.2c0.1,0.7,0.3,1.4,0.6,2c0.3,0.8,0.7,1.7,1,2.5c0,0.2,0.1,0.3,0.1,0.5L69.3,72H69l-1-0.5l-1.7-0.8
	c-0.1-0.1-0.2-0.2-0.4-0.3c0-0.3,0.1-0.4,0.5-0.7c0.2,0.1,0.3,0.1,0.5,0.2l1.5,0.7c0.1,0,0.2,0.1,0.3,0.1
	C68.4,69.8,67.9,68.7,67.4,67.7z"/>
<path class="st0" d="M36.7,77.5c0.3-0.5,0.4-0.6,1.1-0.4l0.1,0.2c-0.2,0.5-0.2,1.1-0.2,1.7l1.6-2.3l0.3-0.1l0.6,0.2
	c0.1,0.1,0.1,0.3,0,0.4C39.6,78,39,79,38.4,79.9c-0.1,0.2-0.2,0.3-0.3,0.5c-0.1,0.2-0.2,0.3-0.4,0.4h-0.4c-0.1-0.1-0.2-0.2-0.2-0.4
	c-0.1-0.6-0.1-1.2-0.2-1.8c0-0.2-0.1-0.3-0.1-0.5S36.7,77.7,36.7,77.5z"/>
<path class="st0" d="M49.6,79.1c0,0.5-0.1,0.9-0.4,1.3c-0.3,0.5-0.8,0.7-1.4,0.5c-0.7-0.1-1.3-0.7-1.3-1.5c-0.1-0.3-0.1-0.7,0-1
	c0.2-0.8,1-1.3,1.8-1.1c0.1,0,0.1,0,0.2,0.1c0.5,0.2,0.8,0.5,1,1C49.5,78.7,49.6,78.9,49.6,79.1z M48.2,80.3
	c0.2-0.1,0.3-0.3,0.4-0.5c0.1-0.4,0.1-0.8,0.1-1.2c0-0.2-0.1-0.3-0.2-0.4c-0.2-0.3-0.6-0.3-0.8-0.1c-0.1,0.2-0.2,0.4-0.2,0.7
	c0,0.2,0,0.4,0,0.7c0,0.3,0.1,0.7,0.4,0.9H48.2z"/>
<path class="st0" d="M67.7,73.2c-0.2,0.4-0.5,0.7-0.9,0.8c-0.2,0-0.3-0.1-0.3-0.3c-0.1-0.4-0.3-0.7-0.5-1c-0.5-0.7-1-1.4-1.5-2.1
	c0,0-0.1-0.1-0.1-0.1c-0.3,0.1-0.4,0.4-0.6,0.7h-0.3c0-0.1-0.1-0.2-0.2-0.4c-0.1-0.2-0.1-0.5,0.1-0.6l1.8-1.4c0.3,0,0.4,0.2,0.5,0.3
	v0.3c-0.1,0.1-0.2,0.2-0.3,0.3c-0.2,0-0.4,0.1-0.5,0.3c0.2,0.3,0.4,0.5,0.6,0.8c0.4,0.5,0.8,1.1,1.2,1.6c0.2,0.3,0.4,0.5,0.7,0.6
	C67.6,73.1,67.6,73.1,67.7,73.2z"/>
<path class="st0" d="M30.8,73.3c0.2,0,0.4,0.2,0.5,0.3c0,0.1,0,0.3-0.1,0.4l-1.8,3.7c-0.1,0.1-0.1,0.2-0.2,0.3
	c-0.4,0.1-0.6-0.2-0.9-0.3c-0.1-0.1-0.1-0.2,0-0.3c0.3-0.4,0.5-0.9,0.8-1.3c0.4-0.8,0.9-1.6,1.3-2.4C30.4,73.5,30.6,73.3,30.8,73.3z
	"/>
<path class="st0" d="M35.7,60.6c-0.1-0.2-0.1-0.3-0.2-0.5l-0.8-1.7c0-0.1,0-0.1,0-0.2l0,0c0.2,0.3,0.3,0.5,0.5,0.8
	c0.8,1.3,1.6,2.6,2.6,3.8c0.3,0.4,0.6,0.7,0.9,1.1c0.5,0.5,0.8,1.1,1,1.8c0,0.2,0,0.5,0,0.7c-0.2-0.1-0.3-0.2-0.4-0.3
	c-1.1-1-2.1-2.2-2.8-3.6c-0.3-0.6-0.5-1.2-0.8-1.8C35.7,60.7,35.7,60.7,35.7,60.6L35.7,60.6l0.1,0.2c0,0.1,0.1,0.2,0.1,0.3
	c0.3,0.6,0.7,1.2,1,1.8c0.5,0.8,1.1,1.5,1.7,2.3c0.2,0.3,0.4,0.5,0.7,0.8c-0.1-0.4-0.2-0.8-0.5-1.2c-0.4-0.6-0.9-1.1-1.3-1.7
	l-1.2-1.6c-0.1-0.3-0.3-0.5-0.5-0.8L35.7,60.6z"/>
<path class="st0" d="M70.2,63.7v-0.3l0.3-0.3h0.4l1.9,1.4c0.5,0.5,1.1,0.8,1.7,1.1c0,0,0.1,0,0.1,0.1c0.1,0.4,0.1,0.4-0.4,0.8
	c-0.1,0-0.2,0-0.3-0.1l-1.6-1.2c-0.6-0.4-1.2-0.8-1.7-1.2C70.5,63.9,70.3,63.8,70.2,63.7z"/>
<path class="st0" d="M43.8,63.8l0.2,0.1c0,0,0,0.1,0,0.1c0,0.2-0.2,0.2-0.3,0.3c-0.4,0.2-0.7,0.2-1.1,0.2c-0.5-0.1-1-0.2-1.5-0.3
	c-1-0.3-1.9-0.7-2.7-1.3c-0.4-0.3-0.8-0.7-1.2-1l2.1,1c0.7,0.3,1.4,0.5,2.1,0.7C42.3,63.7,43,63.8,43.8,63.8z"/>
<path class="st0" d="M42.8,60.6c-0.2,0.1-0.4,0.2-0.7,0.3c-1,0.2-2.1,0-3-0.5c-1.1-0.5-2.1-1.1-3.1-1.9c-1.5-1.2-2.6-2.8-3.2-4.6
	c0,0,0,0,0-0.1c0,0.1,0.1,0.1,0.1,0.2c0.4,0.6,0.8,1.2,1.2,1.8c0.5,0.7,1,1.4,1.7,2c0.8,0.7,1.7,1.4,2.6,1.9c0.6,0.4,1.3,0.6,2,0.8
	c0.7,0.2,1.5,0.2,2.3,0C42.7,60.5,42.8,60.6,42.8,60.6z"/>
<path class="st0" d="M33.3,59.7l0.3-0.2c0.1,0.1,0.1,0.2,0.2,0.3c0.3,0.8,0.6,1.6,0.7,2.4c0.2,0.8,0.2,1.7,0.2,2.5
	c0,0.2,0,0.2-0.2,0.4c-0.1-0.4-0.1-0.7-0.2-1.1c-0.1-0.5-0.1-1.1-0.2-1.6c-0.1-0.6-0.3-1.3-0.5-1.9C33.6,60.2,33.5,60,33.3,59.7z"/>
<path class="st0" d="M45.7,61.4c-0.2,0.2-0.4,0.4-0.7,0.5L44.6,62l0,0c0-0.1,0.1-0.1,0.2-0.2c0.5-0.3,0.8-0.7,1-1.1
	c0-0.1,0.1-0.2,0.3-0.3c0.1,0.1,0.1,0.3,0,0.4c-0.2,1.1-0.6,2.1-1.4,2.9c0,0-0.1,0.1-0.1,0.1h-0.1c0,0-0.1,0-0.1-0.1
	c0.1-0.1,0.1-0.2,0.2-0.3c0.4-0.5,0.7-1.1,1-1.7C45.6,61.6,45.6,61.5,45.7,61.4L45.7,61.4C45.7,61.4,45.7,61.4,45.7,61.4z"/>
<path class="st0" d="M74.3,57.5c0.3-0.1,0.7,0.1,0.9,0.3l0.1-0.1l0.5,0.5l-0.1,0.2c-0.3-0.2-0.6-0.3-0.9-0.3
	c-0.7-0.1-1.2-0.6-1.2-1.3c0-0.1,0-0.2,0.1-0.3c0.2,0.1,0.2,0.3,0.3,0.5S74.3,57.3,74.3,57.5z"/>
<path class="st0" d="M38.9,66.7l-0.3,0.2h-0.2c-0.7-0.3-1.4-0.4-2.2-0.4c-0.3,0-0.6,0-0.9-0.1C36.6,66,37.8,66.1,38.9,66.7
	L38.9,66.7z"/>
<path class="st0" d="M74.2,55.8c0.1-0.3,0.1-0.7,0.2-1c0-0.2,0.1-0.3,0.3-0.3c0,0.1,0,0.2,0,0.3c-0.1,0.3,0,0.7,0.2,1
	c0,0.1,0.1,0.1,0.1,0.2c0.3,0.4,0.4,0.8,0.3,1.3L75,57.5C75.1,56.8,74.8,56.1,74.2,55.8z"/>
<path class="st0" d="M53.7,47.5c1.2,0.5,2.2,1.4,2.9,2.5l-0.1,0.1C55.7,49.1,54.8,48.2,53.7,47.5z"/>
<path class="st0" d="M40.3,51.7l-0.2,0.1c-0.6-0.5-1.5-0.6-2.2-0.4c0.1-0.1,0.1-0.1,0.2-0.1c0.2-0.1,0.4-0.2,0.6-0.3
	c0.2-0.1,0.4-0.1,0.6,0C39.7,51.1,40.1,51.4,40.3,51.7z"/>
<path class="st0" d="M47.6,64.2c0.1,0.9-0.5,1.7-1.4,1.8c-0.1,0-0.2,0-0.2,0c0-0.1,0.1-0.1,0.2-0.1c0.4-0.2,0.8-0.5,1-0.9
	c0.1-0.2,0.2-0.4,0.3-0.6C47.5,64.4,47.6,64.3,47.6,64.2z"/>
<path class="st0" d="M40.5,61.4h-0.2c-0.9-0.2-1.8-0.6-2.6-1.2l-0.4-0.3l0,0l0.5,0.2l2.5,1.2C40.4,61.3,40.5,61.4,40.5,61.4z"/>
<path class="st0" d="M48.2,71.8l0.4-0.5c0.4,0.2,0.5,0.6,0.3,1c-0.1,0.1-0.2,0.3-0.3,0.3c-0.2,0.1-0.3,0.2-0.5,0.2
	c0.1-0.1,0.1-0.2,0.2-0.2c0.1-0.1,0.1-0.1,0.2-0.2v-0.5L48.2,71.8z"/>
<path class="st0" d="M76.4,52.3c0,0.1-0.1,0.3-0.1,0.4c-0.3,0.6-0.4,1.2-0.4,1.8l-0.3,0.1c-0.1-0.3-0.1-0.7,0-1
	C75.8,53.1,76.1,52.6,76.4,52.3L76.4,52.3z"/>
<path class="st0" d="M58.1,50.4c0.4,0.4,0.7,1,0.7,1.7c0,0.2-0.1,0.4-0.3,0.5c0-0.4,0-0.7,0-1.1C58.3,51.1,58.2,50.8,58.1,50.4z"/>
<path class="st0" d="M40.1,64.9c0.2,0.1,0.4,0.2,0.6,0.3c0.5,0.3,1.1,0.6,1.7,0.8c0,0,0,0,0.1,0c-0.2,0.1-0.4,0.2-0.6,0.1
	c-0.2-0.1-0.4-0.2-0.6-0.3c-0.3-0.2-0.6-0.4-0.9-0.6C40.2,65.1,40.2,65,40.1,64.9L40.1,64.9z"/>
<path class="st0" d="M57.7,49.3L57.7,49.3c0.8,0.1,1.1,0.5,0.7,1L57.7,49.3z"/>
<path class="st0" d="M45.5,69c0.1-0.1,0.2-0.3,0.4-0.3c0.3-0.1,0.6-0.2,0.8-0.4c0.1-0.1,0.2-0.1,0.3-0.1c-0.1,0.2-0.2,0.3-0.4,0.4
	c-0.2,0.1-0.3,0.2-0.5,0.3C45.9,69,45.7,69,45.5,69z"/>
<path class="st0" d="M42.9,69.7c0.4-0.3,0.9-0.5,1.4-0.5C43.9,69.6,43.3,69.5,42.9,69.7z"/>
<path class="st0" d="M47.7,68.7c-0.3,0.3-0.7,0.5-1.1,0.5C46.9,68.7,47.3,68.8,47.7,68.7z"/>
<path class="st0" d="M75.3,56.6l0.2-0.8l0.2-0.1c0,0,0,0.1,0,0.1C75.6,56.4,75.6,56.4,75.3,56.6z"/>
<path class="st0" d="M75.8,54.9c-0.2,0.4-0.2,0.4-0.3,0.5C75.4,55.2,75.4,55.1,75.8,54.9L75.8,54.9z"/>
<path class="st0" d="M42.2,75.9l0.1-0.1l0,0L42.2,75.9L42.2,75.9z"/>
<path class="st0" d="M40.5,61.4h0.1l0,0H40.5L40.5,61.4z"/>
<path class="st0" d="M34.7,58.3L34.7,58.3L34.7,58.3L34.7,58.3L34.7,58.3z"/>
<path class="st0" d="M41.3,75.5L41.3,75.5L41.3,75.5L41.3,75.5L41.3,75.5z"/>
<path class="st0" d="M40.6,50L40.6,50L40.6,50L40.6,50L40.6,50z"/>
<path class="st0" d="M40.5,49.9L40.5,49.9L40.5,49.9z"/>
<path class="st0" d="M36.7,54.3L36.7,54.3z"/>
<path class="st0" d="M75.8,54.9L75.8,54.9L75.8,54.9L75.8,54.9z"/>
<path class="st0" d="M35.7,60.6L35.7,60.6L35.7,60.6z"/>
<path class="st0" d="M44.6,62L44.6,62L44.6,62z"/>
<path class="st0" d="M45.7,63.2L45.7,63.2L45.7,63.2L45.7,63.2z"/>
<path class="st0" d="M40.1,64.9L40.1,64.9L40.1,64.9z"/>
<path class="st0" d="M38.7,59.5L38.7,59.5L38.7,59.5L38.7,59.5L38.7,59.5z"/>
<path class="st0" d="M38.7,59.6L38.7,59.6L38.7,59.6z"/>
<path class="st0" d="M37.4,59.9L37.4,59.9L37.4,59.9z"/>
<path class="st0" d="M40.3,75.1L40.3,75.1L40.3,75.1z"/>
<path class="st0" d="M78.7,56.5L78.7,56.5L78.7,56.5L78.7,56.5L78.7,56.5z"/>
<path class="st0" d="M76.4,52.3L76.4,52.3z"/>
<path class="st0" d="M60.3,64L60,64.2c-0.2-0.1-0.5-0.1-0.7-0.3l0.2-0.1L60.3,64z"/>
<path class="st0" d="M58.3,57L58.3,57L58.3,57L58.3,57z"/>
<path class="st0" d="M53.2,49.1l-0.1,0.2c-0.1,0-0.2,0.1-0.2,0.1l-1,0.1c-1.7,0.1-3.4,0-5.1,0.1c-0.2,0-0.3,0-0.5,0
	c-0.4,0-0.8,0-1.1-0.1h-0.3l-0.5-0.8c-0.5-0.8-1.1-1.5-1.7-2.3c-0.2-0.2-0.4-0.5-0.6-0.7c-0.2-0.1-0.4-0.3-0.6-0.4
	c-0.2-0.1-0.4-0.1-0.7,0l-0.5,0.3c0.2-0.4,0.6-0.7,1-0.7c0.6,0.1,1.1,0.5,1.5,1c0.7,0.8,1.3,1.6,1.9,2.5c0.2,0.2,0.3,0.5,0.4,0.7
	h0.2l1.5-0.1c0.7,0,1.3,0,2,0c1.4-0.1,2.7,0,4.1,0L53.2,49.1z"/>
<path class="st0" d="M54.1,51.6c-0.1,0-0.2,0.1-0.3,0.1c-0.6,0-1.2,0-1.8,0s-1.2,0-1.9-0.1l-3.4-0.1l-1.7-0.1c0,0-0.1,0-0.1,0
	c0.1-0.1,0.2-0.1,0.3-0.1H48l1.5,0.1c1.3,0,2.6,0.1,3.9,0.1C53.6,51.5,53.9,51.5,54.1,51.6L54.1,51.6z"/>
<path class="st0" d="M44.4,50.8L44.1,51C43,49.8,42,48.6,41,47.3c0.1-0.1,0.2,0,0.3,0.1l1,1.1c0.3,0.3,0.6,0.7,0.9,1l1.1,1.2
	C44.3,50.7,44.3,50.7,44.4,50.8z"/>
<path class="st0" d="M48.6,50.5c-0.1,0.1-0.2,0.1-0.4,0.1h-2.3c0,0,0,0-0.1,0c0.1-0.1,0.2-0.1,0.3-0.1l2.4-0.1L48.6,50.5L48.6,50.5z
	"/>
<path class="st0" d="M50.2,50.2c0.1-0.1,0.2-0.2,0.4-0.2c0.7,0,1.4,0,2.1,0c-0.1,0-0.1,0.1-0.2,0.1c-0.3,0-0.5,0.1-0.8,0.1
	L50.2,50.2z"/>
<path class="st0" d="M44.8,51c0.1,0,0.2-0.1,0.3-0.1h1.6c0,0.1-0.2,0.2-0.3,0.2c-0.5,0-1,0-1.5,0L44.8,51z"/>
<path class="st0" d="M53.9,51.1c-0.1,0.1-0.2,0.1-0.3,0.1c-0.6,0-1.2,0-1.8-0.1c0.1,0,0.2-0.1,0.2-0.1L53.9,51.1L53.9,51.1z"/>
<path class="st0" d="M38.8,46.2l-0.2-0.1l0,0L38.8,46.2L38.8,46.2z"/>
<path class="st0" d="M38.7,45.5L38.7,45.5L38.7,45.5z"/>
<path class="st0" d="M38.7,45.5L38.7,45.5L38.7,45.5L38.7,45.5L38.7,45.5z"/>
<path class="st0" d="M38.7,45.5L38.7,45.5L38.7,45.5L38.7,45.5L38.7,45.5z"/>
<path class="st0" d="M38.8,46.2L38.8,46.2L38.8,46.2z"/>
<path class="st0" d="M64.7,40.3L64.7,40.3L64.7,40.3L64.7,40.3z"/>
<path class="st0" d="M50,65.6l0.4-0.2c0.2,0.3,0.2,0.6-0.1,1.2c0-0.2,0-0.3,0-0.5C50.4,65.8,50.3,65.8,50,65.6z"/>
<path class="st0" d="M14.1,53.1c0.3,0.2,0.4,0.5,0.4,0.8c0,0.3,0,0.6,0,0.8c0,0.1-0.1,0.3-0.2,0.4c-0.2,0.2-0.4,0.5-0.3,0.8
	l-0.2-0.1l-0.2-0.6l0,0c0.5-0.3,0.7-0.9,0.5-1.4c0-0.1-0.1-0.3-0.1-0.4C14,53.2,14,53.1,14.1,53.1z"/>
<path class="st0" d="M15.5,51.6h0.7l0.4-0.2c0,0.3-0.2,0.5-0.5,0.5l-0.7,0.1c-0.2,0.1-0.2,0.4-0.5,0.4C15,52,15.2,51.7,15.5,51.6z"
	/>
<path class="st0" d="M16.1,57.3l-0.4-0.1l-0.2,0.2c-0.1-0.2,0-0.4,0.2-0.5c0.2-0.1,0.3-0.1,0.5-0.2c0.1,0,0.3,0,0.5,0
	C16.5,57,16.3,57.2,16.1,57.3z"/>
<path class="st0" d="M18.6,54.3c-0.2,0.3-0.5,0.4-0.8,0.3C18,54.3,18.1,54.2,18.6,54.3z"/>
<path class="st0" d="M17,55.5c0-0.2,0.1-0.4,0.3-0.5c0,0,0,0,0,0l0.3,0.1C17.6,55.4,17.6,55.4,17,55.5z"/>
<path class="st0" d="M16.4,56.4l0.2-0.5h0.2c0.1,0.2,0,0.5-0.1,0.7L16.4,56.4z"/>
<path class="st0" d="M18.2,52.9l0.1,0.1c-0.1,0.3-0.1,0.3-0.4,0.2C17.9,53,17.9,53,18.2,52.9z"/>
<path class="st0" d="M18.6,50.4c0,0.3,0,0.5-0.2,0.6c-0.1-0.1,0-0.3-0.1-0.4L18.6,50.4z"/>
<path class="st0" d="M18.7,52.1l0.1-0.4l0.2-0.1C19.1,52,18.9,52.1,18.7,52.1z"/>
<path class="st0" d="M72.4,34.2L72.4,34.2L72.4,34.2z"/>
<path class="st0" d="M11.7,53.4L11.7,53.4z"/>
<path class="st0" d="M74.6,63.1L74.6,63.1L74.6,63.1z"/>
<path class="st0" d="M45.7,61.4L45.7,61.4z"/>
<g class="st1">
	<path class="st0" d="M94.9,39.5v-6h2.3v5.9c0,1.7,0.9,2.6,2.3,2.6c1.4,0,2.3-0.9,2.3-2.5v-6h2.3v5.9c0,3.2-1.8,4.7-4.6,4.7
		S94.9,42.6,94.9,39.5z"/>
	<path class="st0" d="M106.4,33.5h2.1l4.9,6.5v-6.5h2.3V44h-2l-5.1-6.7V44h-2.3V33.5z"/>
	<path class="st0" d="M118.4,33.5h2.3V44h-2.3V33.5z"/>
	<path class="st0" d="M122.4,33.5h2.5l2.7,7.4l2.7-7.4h2.5L128.7,44h-2L122.4,33.5z"/>
	<path class="st0" d="M134.6,33.5h7.9v2.1h-5.6v2.1h4.9v2.1h-4.9v2.2h5.7V44h-8V33.5z"/>
	<path class="st0" d="M144.6,33.5h4.8c1.3,0,2.4,0.4,3.1,1.1c0.6,0.6,0.9,1.4,0.9,2.4v0c0,1.7-0.9,2.8-2.3,3.3l2.6,3.8H151l-2.3-3.4
		h-1.8V44h-2.3V33.5z M149.3,38.6c1.1,0,1.8-0.6,1.8-1.5v0c0-1-0.7-1.5-1.8-1.5h-2.3v3H149.3z"/>
	<path class="st0" d="M154.7,42.4l1.4-1.6c0.9,0.8,1.9,1.3,3.1,1.3c0.9,0,1.5-0.4,1.5-1v0c0-0.6-0.4-0.9-2.1-1.3
		c-2.1-0.5-3.5-1.1-3.5-3.2v0c0-1.9,1.5-3.2,3.7-3.2c1.5,0,2.8,0.5,3.9,1.3l-1.2,1.7c-0.9-0.6-1.8-1-2.7-1c-0.9,0-1.4,0.4-1.4,0.9v0
		c0,0.7,0.5,0.9,2.3,1.4c2.1,0.6,3.3,1.3,3.3,3.2v0c0,2.1-1.6,3.3-3.9,3.3C157.6,44.1,156,43.6,154.7,42.4z"/>
	<path class="st0" d="M165.2,33.5h2.3V44h-2.3V33.5z"/>
</g>
<g class="st1">
	<path class="st0" d="M169.5,33.5h4.1c3.3,0,5.6,2.3,5.6,5.2v0c0,3-2.3,5.3-5.6,5.3h-4.1V33.5z M173.6,41.9c1.9,0,3.2-1.3,3.2-3.1v0
		c0-1.9-1.3-3.2-3.2-3.2h-1.8v6.3H173.6z"/>
</g>
<g class="st1">
	<path class="st0" d="M184.2,33.4h2.1l4.5,10.6h-2.4l-1-2.4H183l-1,2.4h-2.4L184.2,33.4z M186.6,39.6l-1.4-3.4l-1.4,3.4H186.6z"/>
	<path class="st0" d="M192.4,33.5h4.1c3.3,0,5.6,2.3,5.6,5.2v0c0,3-2.3,5.3-5.6,5.3h-4.1V33.5z M196.5,41.9c1.9,0,3.2-1.3,3.2-3.1v0
		c0-1.9-1.3-3.2-3.2-3.2h-1.8v6.3H196.5z"/>
</g>
<g class="st1">
	<path class="st0" d="M95.1,51.5h4.1c3.3,0,5.6,2.3,5.6,5.2v0c0,3-2.3,5.3-5.6,5.3h-4.1V51.5z M99.2,59.9c1.9,0,3.2-1.3,3.2-3.1v0
		c0-1.9-1.3-3.2-3.2-3.2h-1.8v6.3H99.2z"/>
	<path class="st0" d="M106.8,51.5h7.9v2.1h-5.6v2.1h5v2.1h-5v2.2h5.7V62h-8V51.5z"/>
	<path class="st0" d="M121.4,51.5h4.9c1.2,0,2.1,0.3,2.7,0.9c0.5,0.5,0.7,1.1,0.7,1.8v0c0,1.2-0.6,1.8-1.4,2.3c1.2,0.5,2,1.2,2,2.6
		v0c0,1.9-1.6,2.9-3.9,2.9h-5V51.5z M125.7,55.7c1,0,1.7-0.3,1.7-1.1v0c0-0.7-0.5-1.1-1.5-1.1h-2.3v2.2H125.7z M126.4,59.9
		c1,0,1.6-0.4,1.6-1.1v0c0-0.7-0.5-1.1-1.7-1.1h-2.7v2.3H126.4z"/>
	<path class="st0" d="M132,57.5v-6h2.3v5.9c0,1.7,0.9,2.6,2.3,2.6c1.4,0,2.3-0.9,2.3-2.5v-6h2.3v5.9c0,3.2-1.8,4.7-4.6,4.7
		C133.8,62.1,132,60.6,132,57.5z"/>
	<path class="st0" d="M143.5,51.5h7.9v2.1h-5.6v2.1h5v2.1h-5v2.2h5.7V62h-8V51.5z"/>
	<path class="st0" d="M153.6,51.5h2.1l4.9,6.5v-6.5h2.3V62h-2l-5.1-6.7V62h-2.3V51.5z"/>
</g>
<g class="st1">
	<path class="st0" d="M165,56.8L165,56.8c0-3,2.4-5.5,5.6-5.5c3.2,0,5.6,2.4,5.6,5.4v0c0,3-2.4,5.4-5.6,5.4
		C167.3,62.1,165,59.7,165,56.8z M173.7,56.8L173.7,56.8c0-1.8-1.3-3.3-3.2-3.3c-1.9,0-3.1,1.5-3.1,3.3v0c0,1.8,1.3,3.3,3.2,3.3
		C172.4,60,173.7,58.5,173.7,56.8z"/>
</g>
<g class="st1">
	<path class="st0" d="M177.4,60.4l1.4-1.6c0.9,0.8,1.9,1.3,3.1,1.3c0.9,0,1.5-0.4,1.5-1v0c0-0.6-0.4-0.9-2.1-1.3
		c-2.1-0.5-3.5-1.1-3.5-3.2v0c0-1.9,1.5-3.2,3.7-3.2c1.5,0,2.8,0.5,3.9,1.3l-1.2,1.7c-0.9-0.6-1.8-1-2.7-1s-1.3,0.4-1.3,0.9v0
		c0,0.7,0.5,0.9,2.3,1.4c2.1,0.6,3.3,1.3,3.3,3.2v0c0,2.1-1.6,3.3-3.9,3.3C180.3,62.1,178.7,61.6,177.4,60.4z"/>
	<path class="st0" d="M195.8,51.4h2.1l4.5,10.6H200l-1-2.4h-4.4l-1,2.4h-2.4L195.8,51.4z M198.3,57.6l-1.4-3.4l-1.4,3.4H198.3z"/>
	<path class="st0" d="M204.2,51.5h2.3V62h-2.3V51.5z"/>
	<path class="st0" d="M209.1,51.5h4.8c1.3,0,2.4,0.4,3.1,1.1c0.6,0.6,0.9,1.4,0.9,2.4v0c0,1.7-0.9,2.8-2.3,3.3l2.6,3.8h-2.7
		l-2.3-3.4h-1.8V62h-2.3V51.5z M213.8,56.6c1.1,0,1.8-0.6,1.8-1.5v0c0-1-0.7-1.5-1.8-1.5h-2.3v3H213.8z"/>
	<path class="st0" d="M220,51.5h7.9v2.1h-5.6v2.1h5v2.1h-5v2.2h5.7V62h-8V51.5z"/>
	<path class="st0" d="M229.3,60.4l1.4-1.6c0.9,0.8,1.9,1.3,3.1,1.3c0.9,0,1.5-0.4,1.5-1v0c0-0.6-0.4-0.9-2.1-1.3
		c-2.1-0.5-3.5-1.1-3.5-3.2v0c0-1.9,1.5-3.2,3.7-3.2c1.5,0,2.8,0.5,3.9,1.3l-1.2,1.7c-0.9-0.6-1.8-1-2.7-1s-1.3,0.4-1.3,0.9v0
		c0,0.7,0.5,0.9,2.3,1.4c2.1,0.6,3.3,1.3,3.3,3.2v0c0,2.1-1.6,3.3-3.9,3.3C232.2,62.1,230.6,61.6,229.3,60.4z"/>
</g>
</svg>
